SplineFontDB: 3.2
FontName: DeterminationMonoWeb
FullName: Determination Mono Web
FamilyName: Determination Mono Web
Weight: Book
Copyright: 8-bit Operator (c) 2009 - 2014 Grand Chaos Productions.\nBased on spritesheet by Leafia_Barrett.\nModified by theFIZZYnator.\nUndertale is copyright and intellectual property of Toby Fox.
Version: 1
ItalicAngle: 0
UnderlinePosition: -288
UnderlineWidth: 64
Ascent: 819
Descent: 205
InvalidEm: 0
sfntRevision: 0x00010000
woffMajor: 1
woffMinor: 0
LayerCount: 2
Layer: 0 1 "Back" 1
Layer: 1 1 "Fore" 0
XUID: [1021 737 319405113 3610829]
StyleMap: 0x0040
FSType: 8
OS2Version: 3
OS2_WeightWidthSlopeOnly: 0
OS2_UseTypoMetrics: 0
CreationTime: 1398116253
ModificationTime: 1623507360
PfmFamily: 81
TTFWeight: 400
TTFWidth: 5
LineGap: 0
VLineGap: 0
Panose: 0 0 0 0 0 0 0 0 0 0
OS2TypoAscent: 576
OS2TypoAOffset: 0
OS2TypoDescent: -128
OS2TypoDOffset: 0
OS2TypoLinegap: 64
OS2WinAscent: 832
OS2WinAOffset: 0
OS2WinDescent: 192
OS2WinDOffset: 0
HheadAscent: 832
HheadAOffset: 0
HheadDescent: -192
HheadDOffset: 0
OS2SubXSize: 896
OS2SubYSize: 832
OS2SubXOff: 0
OS2SubYOff: 192
OS2SupXSize: 896
OS2SupYSize: 832
OS2SupXOff: 0
OS2SupYOff: 640
OS2StrikeYSize: 64
OS2StrikeYPos: 320
OS2CapHeight: 900
OS2XHeight: 700
OS2Vendor: 'UKYO'
OS2CodePages: 20000113.40000000
OS2UnicodeRanges: 8000002f.1000000a.00000000.00000000
MarkAttachClasses: 1
DEI: 91125
ShortTable: maxp 16
  1
  0
  257
  76
  15
  30
  4
  2
  0
  1
  1
  0
  64
  0
  2
  1
EndShort
LangName: 1033 "" "" "Regular" "FontForge 2.0 : Determination Mono Web : 9-12-2015" "" "Version 1"
GaspTable: 1 65535 2 0
Encoding: UnicodeFull
UnicodeInterp: none
NameList: AGL For New Fonts
DisplaySize: -48
AntiAlias: 1
FitToEm: 0
WinInfo: 0 38 14
BeginChars: 1114115 257

StartChar: .notdef
Encoding: 1114112 -1 0
Width: 512
Flags: W
LayerCount: 2
Fore
SplineSet
64 -128 m 1,0,-1
 448 -128 l 1,1,-1
 448 768 l 1,2,-1
 64 768 l 1,3,-1
 64 -128 l 1,0,-1
0 -192 m 1,4,-1
 0 832 l 1,5,-1
 512 832 l 1,6,-1
 512 -192 l 1,7,-1
 0 -192 l 1,4,-1
EndSplineSet
EndChar

StartChar: exclam
Encoding: 33 33 4
Width: 512
GlyphClass: 2
Flags: W
LayerCount: 2
Fore
SplineSet
320 0 m 1,0,-1
 192 0 l 1,1,-1
 192 128 l 1,2,-1
 320 128 l 1,3,-1
 320 0 l 1,0,-1
320 192 m 1,4,-1
 192 192 l 1,5,-1
 192 384 l 1,6,-1
 128 384 l 1,7,-1
 128 576 l 1,8,-1
 192 576 l 1,9,-1
 192 640 l 1,10,-1
 320 640 l 1,11,-1
 320 576 l 1,12,-1
 384 576 l 1,13,-1
 384 384 l 1,14,-1
 320 384 l 1,15,-1
 320 192 l 1,4,-1
EndSplineSet
EndChar

StartChar: quotedbl
Encoding: 34 34 5
Width: 512
GlyphClass: 2
Flags: W
LayerCount: 2
Fore
SplineSet
64 448 m 1,0,-1
 64 576 l 1,1,-1
 192 576 l 1,2,-1
 192 384 l 1,3,-1
 128 384 l 1,4,-1
 128 448 l 1,5,-1
 64 448 l 1,0,-1
320 448 m 1,6,-1
 256 448 l 1,7,-1
 256 576 l 1,8,-1
 384 576 l 1,9,-1
 384 384 l 1,10,-1
 320 384 l 1,11,-1
 320 448 l 1,6,-1
128 384 m 1,12,-1
 128 320 l 1,13,-1
 64 320 l 1,14,-1
 64 384 l 1,15,-1
 128 384 l 1,12,-1
320 384 m 1,16,-1
 320 320 l 1,17,-1
 256 320 l 1,18,-1
 256 384 l 1,19,-1
 320 384 l 1,16,-1
EndSplineSet
EndChar

StartChar: numbersign
Encoding: 35 35 6
Width: 574
GlyphClass: 2
Flags: W
LayerCount: 2
Fore
SplineSet
448 384 m 1,0,-1
 448 192 l 1,1,-1
 512 192 l 1,2,-1
 512 128 l 1,3,-1
 448 128 l 1,4,-1
 448 0 l 1,5,-1
 320 0 l 1,6,-1
 320 128 l 1,7,-1
 256 128 l 1,8,-1
 256 0 l 1,9,-1
 128 0 l 1,10,-1
 128 128 l 1,11,-1
 64 128 l 1,12,-1
 64 192 l 1,13,-1
 128 192 l 1,14,-1
 128 384 l 1,15,-1
 64 384 l 1,16,-1
 64 448 l 1,17,-1
 128 448 l 1,18,-1
 128 576 l 1,19,-1
 256 576 l 1,20,-1
 256 448 l 1,21,-1
 320 448 l 1,22,-1
 320 576 l 1,23,-1
 448 576 l 1,24,-1
 448 448 l 1,25,-1
 512 448 l 1,26,-1
 512 384 l 1,27,-1
 448 384 l 1,0,-1
320 192 m 1,28,-1
 320 384 l 1,29,-1
 256 384 l 1,30,-1
 256 192 l 1,31,-1
 320 192 l 1,28,-1
EndSplineSet
EndChar

StartChar: dollar
Encoding: 36 36 7
Width: 512
GlyphClass: 2
Flags: W
LayerCount: 2
Fore
SplineSet
320 0 m 1,0,-1
 320 -128 l 1,1,-1
 192 -128 l 1,2,-1
 192 0 l 1,3,-1
 128 0 l 1,4,-1
 128 64 l 1,5,-1
 64 64 l 1,6,-1
 64 192 l 1,7,-1
 192 192 l 1,8,-1
 192 64 l 1,9,-1
 320 64 l 1,10,-1
 320 256 l 1,11,-1
 128 256 l 1,12,-1
 128 320 l 1,13,-1
 64 320 l 1,14,-1
 64 512 l 1,15,-1
 128 512 l 1,16,-1
 128 576 l 1,17,-1
 192 576 l 1,18,-1
 192 704 l 1,19,-1
 320 704 l 1,20,-1
 320 576 l 1,21,-1
 384 576 l 1,22,-1
 384 512 l 1,23,-1
 448 512 l 1,24,-1
 448 384 l 1,25,-1
 320 384 l 1,26,-1
 320 512 l 1,27,-1
 192 512 l 1,28,-1
 192 320 l 1,29,-1
 384 320 l 1,30,-1
 384 256 l 1,31,-1
 448 256 l 1,32,-1
 448 64 l 1,33,-1
 384 64 l 1,34,-1
 384 0 l 1,35,-1
 320 0 l 1,0,-1
EndSplineSet
EndChar

StartChar: percent
Encoding: 37 37 8
Width: 576
GlyphClass: 2
Flags: W
LayerCount: 2
Fore
SplineSet
448 192 m 1,0,-1
 320 192 l 1,1,-1
 320 256 l 1,2,-1
 448 256 l 1,3,-1
 448 192 l 1,0,-1
448 0 m 1,4,-1
 320 0 l 1,5,-1
 320 64 l 1,6,-1
 448 64 l 1,7,-1
 448 0 l 1,4,-1
256 320 m 1,8,-1
 128 320 l 1,9,-1
 128 384 l 1,10,-1
 256 384 l 1,11,-1
 256 320 l 1,8,-1
256 512 m 1,12,-1
 128 512 l 1,13,-1
 128 576 l 1,14,-1
 256 576 l 1,15,-1
 256 512 l 1,12,-1
320 384 m 1,16,-1
 256 384 l 1,17,-1
 256 512 l 1,18,-1
 320 512 l 1,19,-1
 320 384 l 1,16,-1
320 64 m 1,20,-1
 256 64 l 1,21,-1
 256 192 l 1,22,-1
 320 192 l 1,23,-1
 320 64 l 1,20,-1
128 384 m 1,24,-1
 64 384 l 1,25,-1
 64 512 l 1,26,-1
 128 512 l 1,27,-1
 128 384 l 1,24,-1
512 64 m 1,28,-1
 448 64 l 1,29,-1
 448 192 l 1,30,-1
 512 192 l 1,31,-1
 512 64 l 1,28,-1
448 448 m 1,32,-1
 448 384 l 1,33,-1
 384 384 l 1,34,-1
 384 320 l 1,35,-1
 320 320 l 1,36,-1
 320 256 l 1,37,-1
 256 256 l 1,38,-1
 256 192 l 1,39,-1
 192 192 l 1,40,-1
 192 128 l 1,41,-1
 128 128 l 1,42,-1
 128 192 l 1,43,-1
 192 192 l 1,44,-1
 192 256 l 1,45,-1
 256 256 l 1,46,-1
 256 320 l 1,47,-1
 320 320 l 1,48,-1
 320 384 l 1,49,-1
 384 384 l 1,50,-1
 384 448 l 1,51,-1
 448 448 l 1,32,-1
448 448 m 1,52,-1
 448 512 l 1,53,-1
 512 512 l 1,54,-1
 512 448 l 1,55,-1
 448 448 l 1,52,-1
128 128 m 1,56,-1
 128 64 l 1,57,-1
 64 64 l 1,58,-1
 64 128 l 1,59,-1
 128 128 l 1,56,-1
EndSplineSet
EndChar

StartChar: ampersand
Encoding: 38 38 9
Width: 512
GlyphClass: 2
Flags: W
LayerCount: 2
Fore
SplineSet
192 576 m 1,0,-1
 384 576 l 1,1,-1
 384 512 l 1,2,-1
 448 512 l 1,3,-1
 448 384 l 1,4,-1
 384 384 l 1,5,-1
 384 320 l 1,6,-1
 320 320 l 1,7,-1
 320 256 l 1,8,-1
 512 256 l 1,9,-1
 512 192 l 1,10,-1
 448 192 l 1,11,-1
 448 64 l 1,12,-1
 512 64 l 1,13,-1
 512 0 l 1,14,-1
 384 0 l 1,15,-1
 384 64 l 1,16,-1
 320 64 l 1,17,-1
 320 0 l 1,18,-1
 128 0 l 1,19,-1
 128 64 l 1,20,-1
 64 64 l 1,21,-1
 64 256 l 1,22,-1
 128 256 l 1,23,-1
 128 320 l 1,24,-1
 192 320 l 1,25,-1
 192 384 l 1,26,-1
 128 384 l 1,27,-1
 128 512 l 1,28,-1
 192 512 l 1,29,-1
 192 576 l 1,0,-1
320 512 m 1,30,-1
 256 512 l 1,31,-1
 256 384 l 1,32,-1
 320 384 l 1,33,-1
 320 512 l 1,30,-1
320 64 m 1,34,-1
 320 192 l 1,35,-1
 256 192 l 1,36,-1
 256 256 l 1,37,-1
 192 256 l 1,38,-1
 192 64 l 1,39,-1
 320 64 l 1,34,-1
EndSplineSet
EndChar

StartChar: quotesingle
Encoding: 39 39 10
Width: 256
GlyphClass: 2
Flags: W
LayerCount: 2
Fore
SplineSet
64 448 m 1,0,-1
 64 576 l 1,1,-1
 192 576 l 1,2,-1
 192 384 l 1,3,-1
 128 384 l 1,4,-1
 128 448 l 1,5,-1
 64 448 l 1,0,-1
128 384 m 1,6,-1
 128 320 l 1,7,-1
 64 320 l 1,8,-1
 64 384 l 1,9,-1
 128 384 l 1,6,-1
EndSplineSet
EndChar

StartChar: parenleft
Encoding: 40 40 11
Width: 512
GlyphClass: 2
Flags: W
LayerCount: 2
Fore
SplineSet
448 576 m 1,0,-1
 448 512 l 1,1,-1
 384 512 l 1,2,-1
 384 448 l 1,3,-1
 320 448 l 1,4,-1
 320 128 l 1,5,-1
 384 128 l 1,6,-1
 384 64 l 1,7,-1
 448 64 l 1,8,-1
 448 0 l 1,9,-1
 320 0 l 1,10,-1
 320 64 l 1,11,-1
 256 64 l 1,12,-1
 256 128 l 1,13,-1
 192 128 l 1,14,-1
 192 448 l 1,15,-1
 256 448 l 1,16,-1
 256 512 l 1,17,-1
 320 512 l 1,18,-1
 320 576 l 1,19,-1
 448 576 l 1,0,-1
EndSplineSet
EndChar

StartChar: parenright
Encoding: 41 41 12
Width: 512
GlyphClass: 2
Flags: W
LayerCount: 2
Fore
SplineSet
192 576 m 1,0,-1
 192 512 l 1,1,-1
 256 512 l 1,2,-1
 256 448 l 1,3,-1
 320 448 l 1,4,-1
 320 128 l 1,5,-1
 256 128 l 1,6,-1
 256 64 l 1,7,-1
 192 64 l 1,8,-1
 192 0 l 1,9,-1
 64 0 l 1,10,-1
 64 64 l 1,11,-1
 128 64 l 1,12,-1
 128 128 l 1,13,-1
 192 128 l 1,14,-1
 192 448 l 1,15,-1
 128 448 l 1,16,-1
 128 512 l 1,17,-1
 64 512 l 1,18,-1
 64 576 l 1,19,-1
 192 576 l 1,0,-1
EndSplineSet
EndChar

StartChar: asterisk
Encoding: 42 42 13
Width: 512
GlyphClass: 2
Flags: W
LayerCount: 2
Fore
SplineSet
128 320 m 1,0,-1
 128 384 l 1,1,-1
 64 384 l 1,2,-1
 64 448 l 1,3,-1
 192 448 l 1,4,-1
 192 384 l 1,5,-1
 320 384 l 1,6,-1
 320 448 l 1,7,-1
 448 448 l 1,8,-1
 448 384 l 1,9,-1
 384 384 l 1,10,-1
 384 320 l 1,11,-1
 512 320 l 1,12,-1
 512 256 l 1,13,-1
 384 256 l 1,14,-1
 384 192 l 1,15,-1
 448 192 l 1,16,-1
 448 128 l 1,17,-1
 320 128 l 1,18,-1
 320 192 l 1,19,-1
 192 192 l 1,20,-1
 192 128 l 1,21,-1
 64 128 l 1,22,-1
 64 192 l 1,23,-1
 128 192 l 1,24,-1
 128 256 l 1,25,-1
 0 256 l 1,26,-1
 0 320 l 1,27,-1
 128 320 l 1,0,-1
EndSplineSet
EndChar

StartChar: plus
Encoding: 43 43 14
Width: 512
GlyphClass: 2
Flags: W
LayerCount: 2
Fore
SplineSet
64 256 m 1,0,-1
 64 320 l 1,1,-1
 192 320 l 1,2,-1
 192 448 l 1,3,-1
 320 448 l 1,4,-1
 320 320 l 1,5,-1
 448 320 l 1,6,-1
 448 256 l 1,7,-1
 320 256 l 1,8,-1
 320 128 l 1,9,-1
 192 128 l 1,10,-1
 192 256 l 1,11,-1
 64 256 l 1,0,-1
EndSplineSet
EndChar

StartChar: comma
Encoding: 44 44 15
Width: 258
GlyphClass: 2
Flags: W
LayerCount: 2
Fore
SplineSet
128 -64 m 1,0,-1
 128 -128 l 1,1,-1
 64 -128 l 1,2,-1
 64 -64 l 1,3,-1
 128 -64 l 1,0,-1
128 -64 m 1,4,-1
 128 0 l 1,5,-1
 64 0 l 1,6,-1
 64 128 l 1,7,-1
 192 128 l 1,8,-1
 192 -64 l 1,9,-1
 128 -64 l 1,4,-1
EndSplineSet
EndChar

StartChar: hyphen
Encoding: 45 45 16
Width: 512
GlyphClass: 2
Flags: W
LayerCount: 2
Fore
SplineSet
128 256 m 1,0,-1
 128 320 l 1,1,-1
 384 320 l 1,2,-1
 384 256 l 1,3,-1
 128 256 l 1,0,-1
EndSplineSet
EndChar

StartChar: period
Encoding: 46 46 17
Width: 512
GlyphClass: 2
Flags: W
LayerCount: 2
Fore
SplineSet
192 0 m 1,0,-1
 64 0 l 1,1,-1
 64 128 l 1,2,-1
 192 128 l 1,3,-1
 192 0 l 1,0,-1
EndSplineSet
EndChar

StartChar: slash
Encoding: 47 47 18
Width: 512
GlyphClass: 2
Flags: W
LayerCount: 2
Fore
SplineSet
64 -64 m 1,0,-1
 64 64 l 1,1,-1
 128 64 l 1,2,-1
 128 192 l 1,3,-1
 192 192 l 1,4,-1
 192 320 l 1,5,-1
 256 320 l 1,6,-1
 256 448 l 1,7,-1
 320 448 l 1,8,-1
 320 576 l 1,9,-1
 448 576 l 1,10,-1
 448 448 l 1,11,-1
 384 448 l 1,12,-1
 384 320 l 1,13,-1
 320 320 l 1,14,-1
 320 192 l 1,15,-1
 256 192 l 1,16,-1
 256 64 l 1,17,-1
 192 64 l 1,18,-1
 192 -64 l 1,19,-1
 64 -64 l 1,0,-1
EndSplineSet
EndChar

StartChar: zero
Encoding: 48 48 19
Width: 512
GlyphClass: 2
Flags: W
LayerCount: 2
Fore
SplineSet
256 256 m 1,0,-1
 256 128 l 1,1,-1
 192 128 l 1,2,-1
 192 64 l 1,3,-1
 320 64 l 1,4,-1
 320 256 l 1,5,-1
 256 256 l 1,0,-1
320 448 m 1,6,-1
 320 512 l 1,7,-1
 192 512 l 1,8,-1
 192 320 l 1,9,-1
 256 320 l 1,10,-1
 256 448 l 1,11,-1
 320 448 l 1,6,-1
384 64 m 1,12,-1
 384 0 l 1,13,-1
 128 0 l 1,14,-1
 128 64 l 1,15,-1
 64 64 l 1,16,-1
 64 512 l 1,17,-1
 128 512 l 1,18,-1
 128 576 l 1,19,-1
 384 576 l 1,20,-1
 384 512 l 1,21,-1
 448 512 l 1,22,-1
 448 64 l 1,23,-1
 384 64 l 1,12,-1
EndSplineSet
EndChar

StartChar: one
Encoding: 49 49 20
Width: 512
GlyphClass: 2
Flags: W
LayerCount: 2
Fore
SplineSet
192 448 m 1,0,-1
 64 448 l 1,1,-1
 64 512 l 1,2,-1
 192 512 l 1,3,-1
 192 576 l 1,4,-1
 320 576 l 1,5,-1
 320 64 l 1,6,-1
 448 64 l 1,7,-1
 448 0 l 1,8,-1
 64 0 l 1,9,-1
 64 64 l 1,10,-1
 192 64 l 1,11,-1
 192 448 l 1,0,-1
EndSplineSet
EndChar

StartChar: two
Encoding: 50 50 21
Width: 512
GlyphClass: 2
Flags: W
LayerCount: 2
Fore
SplineSet
128 128 m 1,0,-1
 128 192 l 1,1,-1
 192 192 l 1,2,-1
 192 256 l 1,3,-1
 256 256 l 1,4,-1
 256 320 l 1,5,-1
 320 320 l 1,6,-1
 320 512 l 1,7,-1
 192 512 l 1,8,-1
 192 384 l 1,9,-1
 64 384 l 1,10,-1
 64 512 l 1,11,-1
 128 512 l 1,12,-1
 128 576 l 1,13,-1
 384 576 l 1,14,-1
 384 512 l 1,15,-1
 448 512 l 1,16,-1
 448 320 l 1,17,-1
 384 320 l 1,18,-1
 384 256 l 1,19,-1
 320 256 l 1,20,-1
 320 192 l 1,21,-1
 256 192 l 1,22,-1
 256 128 l 1,23,-1
 192 128 l 1,24,-1
 192 64 l 1,25,-1
 448 64 l 1,26,-1
 448 0 l 1,27,-1
 64 0 l 1,28,-1
 64 128 l 1,29,-1
 128 128 l 1,0,-1
EndSplineSet
EndChar

StartChar: three
Encoding: 51 51 22
Width: 512
GlyphClass: 2
Flags: W
LayerCount: 2
Fore
SplineSet
64 64 m 1,0,-1
 64 192 l 1,1,-1
 192 192 l 1,2,-1
 192 64 l 1,3,-1
 320 64 l 1,4,-1
 320 256 l 1,5,-1
 192 256 l 1,6,-1
 192 320 l 1,7,-1
 320 320 l 1,8,-1
 320 512 l 1,9,-1
 192 512 l 1,10,-1
 192 384 l 1,11,-1
 64 384 l 1,12,-1
 64 512 l 1,13,-1
 128 512 l 1,14,-1
 128 576 l 1,15,-1
 384 576 l 1,16,-1
 384 512 l 1,17,-1
 448 512 l 1,18,-1
 448 320 l 1,19,-1
 384 320 l 1,20,-1
 384 256 l 1,21,-1
 448 256 l 1,22,-1
 448 64 l 1,23,-1
 384 64 l 1,24,-1
 384 0 l 1,25,-1
 128 0 l 1,26,-1
 128 64 l 1,27,-1
 64 64 l 1,0,-1
EndSplineSet
EndChar

StartChar: four
Encoding: 52 52 23
Width: 512
GlyphClass: 2
Flags: W
LayerCount: 2
Fore
SplineSet
320 192 m 1,0,-1
 320 384 l 1,1,-1
 256 384 l 1,2,-1
 256 320 l 1,3,-1
 192 320 l 1,4,-1
 192 192 l 1,5,-1
 320 192 l 1,0,-1
448 0 m 1,6,-1
 320 0 l 1,7,-1
 320 128 l 1,8,-1
 64 128 l 1,9,-1
 64 320 l 1,10,-1
 128 320 l 1,11,-1
 128 384 l 1,12,-1
 192 384 l 1,13,-1
 192 448 l 1,14,-1
 256 448 l 1,15,-1
 256 512 l 1,16,-1
 320 512 l 1,17,-1
 320 576 l 1,18,-1
 448 576 l 1,19,-1
 448 0 l 1,6,-1
EndSplineSet
EndChar

StartChar: five
Encoding: 53 53 24
Width: 512
GlyphClass: 2
Flags: W
LayerCount: 2
Fore
SplineSet
448 512 m 1,0,-1
 192 512 l 1,1,-1
 192 320 l 1,2,-1
 384 320 l 1,3,-1
 384 256 l 1,4,-1
 448 256 l 1,5,-1
 448 64 l 1,6,-1
 384 64 l 1,7,-1
 384 0 l 1,8,-1
 128 0 l 1,9,-1
 128 64 l 1,10,-1
 64 64 l 1,11,-1
 64 192 l 1,12,-1
 192 192 l 1,13,-1
 192 64 l 1,14,-1
 320 64 l 1,15,-1
 320 256 l 1,16,-1
 64 256 l 1,17,-1
 64 576 l 1,18,-1
 448 576 l 1,19,-1
 448 512 l 1,0,-1
EndSplineSet
EndChar

StartChar: six
Encoding: 54 54 25
Width: 512
GlyphClass: 2
Flags: W
LayerCount: 2
Fore
SplineSet
128 448 m 1,0,-1
 128 512 l 1,1,-1
 256 512 l 1,2,-1
 256 448 l 1,3,-1
 128 448 l 1,0,-1
192 320 m 1,4,-1
 384 320 l 1,5,-1
 384 256 l 1,6,-1
 448 256 l 1,7,-1
 448 64 l 1,8,-1
 384 64 l 1,9,-1
 384 0 l 1,10,-1
 128 0 l 1,11,-1
 128 64 l 1,12,-1
 64 64 l 1,13,-1
 64 448 l 1,14,-1
 192 448 l 1,15,-1
 192 320 l 1,4,-1
192 256 m 1,16,-1
 192 64 l 1,17,-1
 320 64 l 1,18,-1
 320 256 l 1,19,-1
 192 256 l 1,16,-1
192 512 m 1,20,-1
 192 576 l 1,21,-1
 448 576 l 1,22,-1
 448 512 l 1,23,-1
 192 512 l 1,20,-1
EndSplineSet
EndChar

StartChar: seven
Encoding: 55 55 26
Width: 512
GlyphClass: 2
Flags: W
LayerCount: 2
Fore
SplineSet
320 512 m 1,0,-1
 64 512 l 1,1,-1
 64 576 l 1,2,-1
 448 576 l 1,3,-1
 448 384 l 1,4,-1
 384 384 l 1,5,-1
 384 256 l 1,6,-1
 320 256 l 1,7,-1
 320 0 l 1,8,-1
 192 0 l 1,9,-1
 192 256 l 1,10,-1
 256 256 l 1,11,-1
 256 384 l 1,12,-1
 320 384 l 1,13,-1
 320 512 l 1,0,-1
EndSplineSet
EndChar

StartChar: eight
Encoding: 56 56 27
Width: 512
GlyphClass: 2
Flags: W
LayerCount: 2
Fore
SplineSet
192 320 m 1,0,-1
 320 320 l 1,1,-1
 320 512 l 1,2,-1
 192 512 l 1,3,-1
 192 320 l 1,0,-1
192 256 m 1,4,-1
 192 64 l 1,5,-1
 320 64 l 1,6,-1
 320 256 l 1,7,-1
 192 256 l 1,4,-1
448 320 m 1,8,-1
 384 320 l 1,9,-1
 384 256 l 1,10,-1
 448 256 l 1,11,-1
 448 64 l 1,12,-1
 384 64 l 1,13,-1
 384 0 l 1,14,-1
 128 0 l 1,15,-1
 128 64 l 1,16,-1
 64 64 l 1,17,-1
 64 256 l 1,18,-1
 128 256 l 1,19,-1
 128 320 l 1,20,-1
 64 320 l 1,21,-1
 64 512 l 1,22,-1
 128 512 l 1,23,-1
 128 576 l 1,24,-1
 384 576 l 1,25,-1
 384 512 l 1,26,-1
 448 512 l 1,27,-1
 448 320 l 1,8,-1
EndSplineSet
EndChar

StartChar: nine
Encoding: 57 57 28
Width: 512
GlyphClass: 2
Flags: W
LayerCount: 2
Fore
SplineSet
320 320 m 1,0,-1
 320 512 l 1,1,-1
 192 512 l 1,2,-1
 192 320 l 1,3,-1
 320 320 l 1,0,-1
320 256 m 1,4,-1
 128 256 l 1,5,-1
 128 320 l 1,6,-1
 64 320 l 1,7,-1
 64 512 l 1,8,-1
 128 512 l 1,9,-1
 128 576 l 1,10,-1
 384 576 l 1,11,-1
 384 512 l 1,12,-1
 448 512 l 1,13,-1
 448 128 l 1,14,-1
 384 128 l 1,15,-1
 384 64 l 1,16,-1
 320 64 l 1,17,-1
 320 0 l 1,18,-1
 128 0 l 1,19,-1
 128 64 l 1,20,-1
 256 64 l 1,21,-1
 256 128 l 1,22,-1
 320 128 l 1,23,-1
 320 256 l 1,4,-1
EndSplineSet
EndChar

StartChar: colon
Encoding: 58 58 29
Width: 512
GlyphClass: 2
Flags: W
LayerCount: 2
Fore
SplineSet
320 0 m 1,0,-1
 192 0 l 1,1,-1
 192 128 l 1,2,-1
 320 128 l 1,3,-1
 320 0 l 1,0,-1
320 320 m 1,4,-1
 192 320 l 1,5,-1
 192 448 l 1,6,-1
 320 448 l 1,7,-1
 320 320 l 1,4,-1
EndSplineSet
EndChar

StartChar: semicolon
Encoding: 59 59 30
Width: 512
GlyphClass: 2
Flags: W
LayerCount: 2
Fore
SplineSet
320 320 m 1,0,-1
 192 320 l 1,1,-1
 192 448 l 1,2,-1
 320 448 l 1,3,-1
 320 320 l 1,0,-1
192 0 m 1,4,-1
 192 128 l 1,5,-1
 320 128 l 1,6,-1
 320 -64 l 1,7,-1
 256 -64 l 1,8,-1
 256 0 l 1,9,-1
 192 0 l 1,4,-1
256 -64 m 1,10,-1
 192 -64 l 1,11,-1
 192 -128 l 1,12,-1
 256 -128 l 1,13,-1
 256 -64 l 1,10,-1
EndSplineSet
EndChar

StartChar: less
Encoding: 60 60 31
Width: 512
GlyphClass: 2
Flags: W
LayerCount: 2
Fore
SplineSet
320 512 m 1,0,-1
 320 576 l 1,1,-1
 384 576 l 1,2,-1
 384 448 l 1,3,-1
 320 448 l 1,4,-1
 320 384 l 1,5,-1
 256 384 l 1,6,-1
 256 320 l 1,7,-1
 192 320 l 1,8,-1
 192 256 l 1,9,-1
 256 256 l 1,10,-1
 256 192 l 1,11,-1
 320 192 l 1,12,-1
 320 128 l 1,13,-1
 384 128 l 1,14,-1
 384 0 l 1,15,-1
 320 0 l 1,16,-1
 320 64 l 1,17,-1
 256 64 l 1,18,-1
 256 128 l 1,19,-1
 192 128 l 1,20,-1
 192 192 l 1,21,-1
 128 192 l 1,22,-1
 128 256 l 1,23,-1
 64 256 l 1,24,-1
 64 320 l 1,25,-1
 128 320 l 1,26,-1
 128 384 l 1,27,-1
 192 384 l 1,28,-1
 192 448 l 1,29,-1
 256 448 l 1,30,-1
 256 512 l 1,31,-1
 320 512 l 1,0,-1
EndSplineSet
EndChar

StartChar: equal
Encoding: 61 61 32
Width: 512
GlyphClass: 2
Flags: W
LayerCount: 2
Fore
SplineSet
64 192 m 1,0,-1
 64 256 l 1,1,-1
 448 256 l 1,2,-1
 448 192 l 1,3,-1
 64 192 l 1,0,-1
64 320 m 1,4,-1
 64 384 l 1,5,-1
 448 384 l 1,6,-1
 448 320 l 1,7,-1
 64 320 l 1,4,-1
EndSplineSet
EndChar

StartChar: greater
Encoding: 62 62 33
Width: 512
GlyphClass: 2
Flags: W
LayerCount: 2
Fore
SplineSet
256 512 m 1,0,-1
 256 448 l 1,1,-1
 320 448 l 1,2,-1
 320 384 l 1,3,-1
 384 384 l 1,4,-1
 384 320 l 1,5,-1
 448 320 l 1,6,-1
 448 256 l 1,7,-1
 384 256 l 1,8,-1
 384 192 l 1,9,-1
 320 192 l 1,10,-1
 320 128 l 1,11,-1
 256 128 l 1,12,-1
 256 64 l 1,13,-1
 192 64 l 1,14,-1
 192 0 l 1,15,-1
 128 0 l 1,16,-1
 128 128 l 1,17,-1
 192 128 l 1,18,-1
 192 192 l 1,19,-1
 256 192 l 1,20,-1
 256 256 l 1,21,-1
 320 256 l 1,22,-1
 320 320 l 1,23,-1
 256 320 l 1,24,-1
 256 384 l 1,25,-1
 192 384 l 1,26,-1
 192 448 l 1,27,-1
 128 448 l 1,28,-1
 128 576 l 1,29,-1
 192 576 l 1,30,-1
 192 512 l 1,31,-1
 256 512 l 1,0,-1
EndSplineSet
EndChar

StartChar: question
Encoding: 63 63 34
Width: 512
GlyphClass: 2
Flags: W
LayerCount: 2
Fore
SplineSet
320 0 m 1,0,-1
 192 0 l 1,1,-1
 192 128 l 1,2,-1
 320 128 l 1,3,-1
 320 0 l 1,0,-1
192 192 m 1,4,-1
 192 256 l 1,5,-1
 256 256 l 1,6,-1
 256 320 l 1,7,-1
 320 320 l 1,8,-1
 320 512 l 1,9,-1
 192 512 l 1,10,-1
 192 384 l 1,11,-1
 64 384 l 1,12,-1
 64 512 l 1,13,-1
 128 512 l 1,14,-1
 128 576 l 1,15,-1
 384 576 l 1,16,-1
 384 512 l 1,17,-1
 448 512 l 1,18,-1
 448 320 l 1,19,-1
 384 320 l 1,20,-1
 384 256 l 1,21,-1
 320 256 l 1,22,-1
 320 192 l 1,23,-1
 192 192 l 1,4,-1
EndSplineSet
EndChar

StartChar: at
Encoding: 64 64 35
Width: 512
GlyphClass: 2
Flags: W
LayerCount: 2
Fore
SplineSet
192 64 m 1,0,-1
 448 64 l 1,1,-1
 448 0 l 1,2,-1
 128 0 l 1,3,-1
 128 64 l 1,4,-1
 64 64 l 1,5,-1
 64 512 l 1,6,-1
 128 512 l 1,7,-1
 128 576 l 1,8,-1
 384 576 l 1,9,-1
 384 512 l 1,10,-1
 448 512 l 1,11,-1
 448 192 l 1,12,-1
 256 192 l 1,13,-1
 256 384 l 1,14,-1
 320 384 l 1,15,-1
 320 512 l 1,16,-1
 192 512 l 1,17,-1
 192 64 l 1,0,-1
EndSplineSet
EndChar

StartChar: A
Encoding: 65 65 36
Width: 512
GlyphClass: 2
Flags: W
LayerCount: 2
Fore
SplineSet
192 256 m 1,0,-1
 320 256 l 1,1,-1
 320 512 l 1,2,-1
 192 512 l 1,3,-1
 192 256 l 1,0,-1
320 192 m 1,4,-1
 192 192 l 1,5,-1
 192 0 l 1,6,-1
 64 0 l 1,7,-1
 64 512 l 1,8,-1
 128 512 l 1,9,-1
 128 576 l 1,10,-1
 384 576 l 1,11,-1
 384 512 l 1,12,-1
 448 512 l 1,13,-1
 448 0 l 1,14,-1
 320 0 l 1,15,-1
 320 192 l 1,4,-1
EndSplineSet
EndChar

StartChar: B
Encoding: 66 66 37
Width: 512
GlyphClass: 2
Flags: W
LayerCount: 2
Fore
SplineSet
384 320 m 1,0,-1
 384 256 l 1,1,-1
 448 256 l 1,2,-1
 448 64 l 1,3,-1
 384 64 l 1,4,-1
 384 0 l 1,5,-1
 64 0 l 1,6,-1
 64 576 l 1,7,-1
 384 576 l 1,8,-1
 384 512 l 1,9,-1
 448 512 l 1,10,-1
 448 320 l 1,11,-1
 384 320 l 1,0,-1
192 320 m 1,12,-1
 320 320 l 1,13,-1
 320 512 l 1,14,-1
 192 512 l 1,15,-1
 192 320 l 1,12,-1
192 256 m 1,16,-1
 192 64 l 1,17,-1
 320 64 l 1,18,-1
 320 256 l 1,19,-1
 192 256 l 1,16,-1
EndSplineSet
EndChar

StartChar: C
Encoding: 67 67 38
Width: 512
GlyphClass: 2
Flags: W
LayerCount: 2
Fore
SplineSet
320 64 m 1,0,-1
 320 192 l 1,1,-1
 448 192 l 1,2,-1
 448 64 l 1,3,-1
 384 64 l 1,4,-1
 384 0 l 1,5,-1
 128 0 l 1,6,-1
 128 64 l 1,7,-1
 64 64 l 1,8,-1
 64 512 l 1,9,-1
 128 512 l 1,10,-1
 128 576 l 1,11,-1
 384 576 l 1,12,-1
 384 512 l 1,13,-1
 448 512 l 1,14,-1
 448 384 l 1,15,-1
 320 384 l 1,16,-1
 320 512 l 1,17,-1
 192 512 l 1,18,-1
 192 64 l 1,19,-1
 320 64 l 1,0,-1
EndSplineSet
EndChar

StartChar: D
Encoding: 68 68 39
Width: 512
GlyphClass: 2
Flags: W
LayerCount: 2
Fore
SplineSet
192 64 m 1,0,-1
 320 64 l 1,1,-1
 320 512 l 1,2,-1
 192 512 l 1,3,-1
 192 64 l 1,0,-1
384 64 m 1,4,-1
 384 0 l 1,5,-1
 64 0 l 1,6,-1
 64 576 l 1,7,-1
 384 576 l 1,8,-1
 384 512 l 1,9,-1
 448 512 l 1,10,-1
 448 64 l 1,11,-1
 384 64 l 1,4,-1
EndSplineSet
EndChar

StartChar: E
Encoding: 69 69 40
Width: 512
GlyphClass: 2
Flags: W
LayerCount: 2
Fore
SplineSet
192 64 m 1,0,-1
 448 64 l 1,1,-1
 448 0 l 1,2,-1
 64 0 l 1,3,-1
 64 576 l 1,4,-1
 448 576 l 1,5,-1
 448 512 l 1,6,-1
 192 512 l 1,7,-1
 192 320 l 1,8,-1
 384 320 l 1,9,-1
 384 256 l 1,10,-1
 192 256 l 1,11,-1
 192 64 l 1,0,-1
EndSplineSet
EndChar

StartChar: F
Encoding: 70 70 41
Width: 512
GlyphClass: 2
Flags: W
LayerCount: 2
Fore
SplineSet
192 320 m 1,0,-1
 384 320 l 1,1,-1
 384 256 l 1,2,-1
 192 256 l 1,3,-1
 192 0 l 1,4,-1
 64 0 l 1,5,-1
 64 576 l 1,6,-1
 448 576 l 1,7,-1
 448 512 l 1,8,-1
 192 512 l 1,9,-1
 192 320 l 1,0,-1
EndSplineSet
EndChar

StartChar: G
Encoding: 71 71 42
Width: 512
GlyphClass: 2
Flags: W
LayerCount: 2
Fore
SplineSet
384 512 m 1,0,-1
 448 512 l 1,1,-1
 448 384 l 1,2,-1
 320 384 l 1,3,-1
 320 512 l 1,4,-1
 192 512 l 1,5,-1
 192 64 l 1,6,-1
 320 64 l 1,7,-1
 320 256 l 1,8,-1
 256 256 l 1,9,-1
 256 320 l 1,10,-1
 448 320 l 1,11,-1
 448 64 l 1,12,-1
 384 64 l 1,13,-1
 384 0 l 1,14,-1
 128 0 l 1,15,-1
 128 64 l 1,16,-1
 64 64 l 1,17,-1
 64 512 l 1,18,-1
 128 512 l 1,19,-1
 128 576 l 1,20,-1
 384 576 l 1,21,-1
 384 512 l 1,0,-1
EndSplineSet
EndChar

StartChar: H
Encoding: 72 72 43
Width: 512
GlyphClass: 2
Flags: W
LayerCount: 2
Fore
SplineSet
192 256 m 1,0,-1
 192 0 l 1,1,-1
 64 0 l 1,2,-1
 64 576 l 1,3,-1
 192 576 l 1,4,-1
 192 320 l 1,5,-1
 320 320 l 1,6,-1
 320 576 l 1,7,-1
 448 576 l 1,8,-1
 448 0 l 1,9,-1
 320 0 l 1,10,-1
 320 256 l 1,11,-1
 192 256 l 1,0,-1
EndSplineSet
EndChar

StartChar: I
Encoding: 73 73 44
Width: 512
GlyphClass: 2
Flags: W
LayerCount: 2
Fore
SplineSet
192 512 m 1,0,-1
 64 512 l 1,1,-1
 64 576 l 1,2,-1
 448 576 l 1,3,-1
 448 512 l 1,4,-1
 320 512 l 1,5,-1
 320 64 l 1,6,-1
 448 64 l 1,7,-1
 448 0 l 1,8,-1
 64 0 l 1,9,-1
 64 64 l 1,10,-1
 192 64 l 1,11,-1
 192 512 l 1,0,-1
EndSplineSet
EndChar

StartChar: J
Encoding: 74 74 45
Width: 512
GlyphClass: 2
Flags: W
LayerCount: 2
Fore
SplineSet
320 512 m 1,0,-1
 192 512 l 1,1,-1
 192 576 l 1,2,-1
 448 576 l 1,3,-1
 448 64 l 1,4,-1
 384 64 l 1,5,-1
 384 0 l 1,6,-1
 128 0 l 1,7,-1
 128 64 l 1,8,-1
 64 64 l 1,9,-1
 64 192 l 1,10,-1
 192 192 l 1,11,-1
 192 64 l 1,12,-1
 320 64 l 1,13,-1
 320 512 l 1,0,-1
EndSplineSet
EndChar

StartChar: K
Encoding: 75 75 46
Width: 512
GlyphClass: 2
Flags: W
LayerCount: 2
Fore
SplineSet
192 256 m 1,0,-1
 192 0 l 1,1,-1
 64 0 l 1,2,-1
 64 576 l 1,3,-1
 192 576 l 1,4,-1
 192 320 l 1,5,-1
 256 320 l 1,6,-1
 256 448 l 1,7,-1
 320 448 l 1,8,-1
 320 576 l 1,9,-1
 448 576 l 1,10,-1
 448 448 l 1,11,-1
 384 448 l 1,12,-1
 384 320 l 1,13,-1
 320 320 l 1,14,-1
 320 256 l 1,15,-1
 384 256 l 1,16,-1
 384 128 l 1,17,-1
 448 128 l 1,18,-1
 448 0 l 1,19,-1
 320 0 l 1,20,-1
 320 128 l 1,21,-1
 256 128 l 1,22,-1
 256 256 l 1,23,-1
 192 256 l 1,0,-1
EndSplineSet
EndChar

StartChar: L
Encoding: 76 76 47
Width: 512
GlyphClass: 2
Flags: W
LayerCount: 2
Fore
SplineSet
192 64 m 1,0,-1
 448 64 l 1,1,-1
 448 0 l 1,2,-1
 64 0 l 1,3,-1
 64 576 l 1,4,-1
 192 576 l 1,5,-1
 192 64 l 1,0,-1
EndSplineSet
EndChar

StartChar: M
Encoding: 77 77 48
Width: 580
GlyphClass: 2
Flags: W
LayerCount: 2
Fore
SplineSet
64 0 m 1,0,-1
 64 576 l 1,1,-1
 128 576 l 1,2,-1
 128 512 l 1,3,-1
 192 512 l 1,4,-1
 192 448 l 1,5,-1
 256 448 l 1,6,-1
 256 384 l 1,7,-1
 320 384 l 1,8,-1
 320 448 l 1,9,-1
 384 448 l 1,10,-1
 384 512 l 1,11,-1
 448 512 l 1,12,-1
 448 576 l 1,13,-1
 512 576 l 1,14,-1
 512 0 l 1,15,-1
 384 0 l 1,16,-1
 384 320 l 1,17,-1
 320 320 l 1,18,-1
 320 256 l 1,19,-1
 256 256 l 1,20,-1
 256 320 l 1,21,-1
 192 320 l 1,22,-1
 192 0 l 1,23,-1
 64 0 l 1,0,-1
EndSplineSet
EndChar

StartChar: N
Encoding: 78 78 49
Width: 512
GlyphClass: 2
Flags: W
LayerCount: 2
Fore
SplineSet
192 320 m 1,0,-1
 192 0 l 1,1,-1
 64 0 l 1,2,-1
 64 576 l 1,3,-1
 192 576 l 1,4,-1
 192 448 l 1,5,-1
 256 448 l 1,6,-1
 256 320 l 1,7,-1
 192 320 l 1,0,-1
256 320 m 1,8,-1
 320 320 l 1,9,-1
 320 576 l 1,10,-1
 448 576 l 1,11,-1
 448 0 l 1,12,-1
 320 0 l 1,13,-1
 320 192 l 1,14,-1
 256 192 l 1,15,-1
 256 320 l 1,8,-1
EndSplineSet
EndChar

StartChar: O
Encoding: 79 79 50
Width: 512
GlyphClass: 2
Flags: W
LayerCount: 2
Fore
SplineSet
192 64 m 1,0,-1
 320 64 l 1,1,-1
 320 512 l 1,2,-1
 192 512 l 1,3,-1
 192 64 l 1,0,-1
384 64 m 1,4,-1
 384 0 l 1,5,-1
 128 0 l 1,6,-1
 128 64 l 1,7,-1
 64 64 l 1,8,-1
 64 512 l 1,9,-1
 128 512 l 1,10,-1
 128 576 l 1,11,-1
 384 576 l 1,12,-1
 384 512 l 1,13,-1
 448 512 l 1,14,-1
 448 64 l 1,15,-1
 384 64 l 1,4,-1
EndSplineSet
EndChar

StartChar: P
Encoding: 80 80 51
Width: 512
GlyphClass: 2
Flags: W
LayerCount: 2
Fore
SplineSet
192 256 m 1,0,-1
 192 0 l 1,1,-1
 64 0 l 1,2,-1
 64 576 l 1,3,-1
 384 576 l 1,4,-1
 384 512 l 1,5,-1
 448 512 l 1,6,-1
 448 320 l 1,7,-1
 384 320 l 1,8,-1
 384 256 l 1,9,-1
 192 256 l 1,0,-1
192 320 m 1,10,-1
 320 320 l 1,11,-1
 320 512 l 1,12,-1
 192 512 l 1,13,-1
 192 320 l 1,10,-1
EndSplineSet
EndChar

StartChar: Q
Encoding: 81 81 52
Width: 512
GlyphClass: 2
Flags: W
LayerCount: 2
Fore
SplineSet
320 512 m 1,0,-1
 192 512 l 1,1,-1
 192 64 l 1,2,-1
 320 64 l 1,3,-1
 320 512 l 1,0,-1
128 512 m 1,4,-1
 128 576 l 1,5,-1
 384 576 l 1,6,-1
 384 512 l 1,7,-1
 448 512 l 1,8,-1
 448 64 l 1,9,-1
 384 64 l 1,10,-1
 384 0 l 1,11,-1
 320 0 l 1,12,-1
 320 -64 l 1,13,-1
 448 -64 l 1,14,-1
 448 -128 l 1,15,-1
 256 -128 l 1,16,-1
 256 -64 l 1,17,-1
 192 -64 l 1,18,-1
 192 0 l 1,19,-1
 128 0 l 1,20,-1
 128 64 l 1,21,-1
 64 64 l 1,22,-1
 64 512 l 1,23,-1
 128 512 l 1,4,-1
EndSplineSet
EndChar

StartChar: R
Encoding: 82 82 53
Width: 512
GlyphClass: 2
Flags: W
LayerCount: 2
Fore
SplineSet
192 320 m 1,0,-1
 320 320 l 1,1,-1
 320 512 l 1,2,-1
 192 512 l 1,3,-1
 192 320 l 1,0,-1
192 256 m 1,4,-1
 192 0 l 1,5,-1
 64 0 l 1,6,-1
 64 576 l 1,7,-1
 384 576 l 1,8,-1
 384 512 l 1,9,-1
 448 512 l 1,10,-1
 448 320 l 1,11,-1
 384 320 l 1,12,-1
 384 256 l 1,13,-1
 448 256 l 1,14,-1
 448 0 l 1,15,-1
 320 0 l 1,16,-1
 320 256 l 1,17,-1
 192 256 l 1,4,-1
EndSplineSet
EndChar

StartChar: S
Encoding: 83 83 54
Width: 512
GlyphClass: 2
Flags: W
LayerCount: 2
Fore
SplineSet
384 512 m 1,0,-1
 448 512 l 1,1,-1
 448 384 l 1,2,-1
 320 384 l 1,3,-1
 320 512 l 1,4,-1
 192 512 l 1,5,-1
 192 320 l 1,6,-1
 384 320 l 1,7,-1
 384 256 l 1,8,-1
 448 256 l 1,9,-1
 448 64 l 1,10,-1
 384 64 l 1,11,-1
 384 0 l 1,12,-1
 128 0 l 1,13,-1
 128 64 l 1,14,-1
 64 64 l 1,15,-1
 64 192 l 1,16,-1
 192 192 l 1,17,-1
 192 64 l 1,18,-1
 320 64 l 1,19,-1
 320 256 l 1,20,-1
 128 256 l 1,21,-1
 128 320 l 1,22,-1
 64 320 l 1,23,-1
 64 512 l 1,24,-1
 128 512 l 1,25,-1
 128 576 l 1,26,-1
 384 576 l 1,27,-1
 384 512 l 1,0,-1
EndSplineSet
EndChar

StartChar: T
Encoding: 84 84 55
Width: 512
GlyphClass: 2
Flags: W
LayerCount: 2
Fore
SplineSet
192 512 m 1,0,-1
 64 512 l 1,1,-1
 64 576 l 1,2,-1
 448 576 l 1,3,-1
 448 512 l 1,4,-1
 320 512 l 1,5,-1
 320 0 l 1,6,-1
 192 0 l 1,7,-1
 192 512 l 1,0,-1
EndSplineSet
EndChar

StartChar: U
Encoding: 85 85 56
Width: 512
GlyphClass: 2
Flags: W
LayerCount: 2
Fore
SplineSet
128 64 m 1,0,-1
 64 64 l 1,1,-1
 64 576 l 1,2,-1
 192 576 l 1,3,-1
 192 64 l 1,4,-1
 320 64 l 1,5,-1
 320 576 l 1,6,-1
 448 576 l 1,7,-1
 448 64 l 1,8,-1
 384 64 l 1,9,-1
 384 0 l 1,10,-1
 128 0 l 1,11,-1
 128 64 l 1,0,-1
EndSplineSet
EndChar

StartChar: V
Encoding: 86 86 57
Width: 512
GlyphClass: 2
Flags: W
LayerCount: 2
Fore
SplineSet
128 256 m 1,0,-1
 64 256 l 1,1,-1
 64 576 l 1,2,-1
 192 576 l 1,3,-1
 192 256 l 1,4,-1
 320 256 l 1,5,-1
 320 576 l 1,6,-1
 448 576 l 1,7,-1
 448 256 l 1,8,-1
 384 256 l 1,9,-1
 384 128 l 1,10,-1
 320 128 l 1,11,-1
 320 0 l 1,12,-1
 192 0 l 1,13,-1
 192 128 l 1,14,-1
 128 128 l 1,15,-1
 128 256 l 1,0,-1
EndSplineSet
EndChar

StartChar: W
Encoding: 87 87 58
Width: 580
GlyphClass: 2
Flags: W
LayerCount: 2
Fore
SplineSet
320 128 m 1,0,-1
 256 128 l 1,1,-1
 256 448 l 1,2,-1
 320 448 l 1,3,-1
 320 128 l 1,0,-1
320 128 m 1,4,-1
 384 128 l 1,5,-1
 384 576 l 1,6,-1
 512 576 l 1,7,-1
 512 128 l 1,8,-1
 448 128 l 1,9,-1
 448 0 l 1,10,-1
 320 0 l 1,11,-1
 320 128 l 1,4,-1
256 0 m 1,12,-1
 128 0 l 1,13,-1
 128 128 l 1,14,-1
 64 128 l 1,15,-1
 64 576 l 1,16,-1
 192 576 l 1,17,-1
 192 128 l 1,18,-1
 256 128 l 1,19,-1
 256 0 l 1,12,-1
EndSplineSet
EndChar

StartChar: X
Encoding: 88 88 59
Width: 512
GlyphClass: 2
Flags: W
LayerCount: 2
Fore
SplineSet
128 448 m 1,0,-1
 64 448 l 1,1,-1
 64 576 l 1,2,-1
 192 576 l 1,3,-1
 192 448 l 1,4,-1
 320 448 l 1,5,-1
 320 576 l 1,6,-1
 448 576 l 1,7,-1
 448 448 l 1,8,-1
 384 448 l 1,9,-1
 384 320 l 1,10,-1
 320 320 l 1,11,-1
 320 256 l 1,12,-1
 384 256 l 1,13,-1
 384 128 l 1,14,-1
 448 128 l 1,15,-1
 448 0 l 1,16,-1
 320 0 l 1,17,-1
 320 128 l 1,18,-1
 192 128 l 1,19,-1
 192 0 l 1,20,-1
 64 0 l 1,21,-1
 64 128 l 1,22,-1
 128 128 l 1,23,-1
 128 256 l 1,24,-1
 192 256 l 1,25,-1
 192 320 l 1,26,-1
 128 320 l 1,27,-1
 128 448 l 1,0,-1
EndSplineSet
EndChar

StartChar: Y
Encoding: 89 89 60
Width: 512
GlyphClass: 2
Flags: W
LayerCount: 2
Fore
SplineSet
128 320 m 1,0,-1
 64 320 l 1,1,-1
 64 576 l 1,2,-1
 192 576 l 1,3,-1
 192 320 l 1,4,-1
 320 320 l 1,5,-1
 320 576 l 1,6,-1
 448 576 l 1,7,-1
 448 320 l 1,8,-1
 384 320 l 1,9,-1
 384 256 l 1,10,-1
 320 256 l 1,11,-1
 320 0 l 1,12,-1
 192 0 l 1,13,-1
 192 256 l 1,14,-1
 128 256 l 1,15,-1
 128 320 l 1,0,-1
EndSplineSet
EndChar

StartChar: Z
Encoding: 90 90 61
Width: 512
GlyphClass: 2
Flags: W
LayerCount: 2
Fore
SplineSet
320 512 m 1,0,-1
 64 512 l 1,1,-1
 64 576 l 1,2,-1
 448 576 l 1,3,-1
 448 384 l 1,4,-1
 384 384 l 1,5,-1
 384 320 l 1,6,-1
 320 320 l 1,7,-1
 320 256 l 1,8,-1
 256 256 l 1,9,-1
 256 192 l 1,10,-1
 192 192 l 1,11,-1
 192 64 l 1,12,-1
 448 64 l 1,13,-1
 448 0 l 1,14,-1
 64 0 l 1,15,-1
 64 192 l 1,16,-1
 128 192 l 1,17,-1
 128 256 l 1,18,-1
 192 256 l 1,19,-1
 192 320 l 1,20,-1
 256 320 l 1,21,-1
 256 384 l 1,22,-1
 320 384 l 1,23,-1
 320 512 l 1,0,-1
EndSplineSet
EndChar

StartChar: bracketleft
Encoding: 91 91 62
Width: 512
GlyphClass: 2
Flags: W
LayerCount: 2
Fore
SplineSet
320 64 m 1,0,-1
 448 64 l 1,1,-1
 448 0 l 1,2,-1
 192 0 l 1,3,-1
 192 576 l 1,4,-1
 448 576 l 1,5,-1
 448 512 l 1,6,-1
 320 512 l 1,7,-1
 320 64 l 1,0,-1
EndSplineSet
EndChar

StartChar: backslash
Encoding: 92 92 63
Width: 512
GlyphClass: 2
Flags: W
LayerCount: 2
Fore
SplineSet
256 0 m 1,0,-1
 256 192 l 1,1,-1
 192 192 l 1,2,-1
 192 384 l 1,3,-1
 128 384 l 1,4,-1
 128 576 l 1,5,-1
 256 576 l 1,6,-1
 256 384 l 1,7,-1
 320 384 l 1,8,-1
 320 192 l 1,9,-1
 384 192 l 1,10,-1
 384 0 l 1,11,-1
 256 0 l 1,0,-1
EndSplineSet
EndChar

StartChar: bracketright
Encoding: 93 93 64
Width: 512
GlyphClass: 2
Flags: W
LayerCount: 2
Fore
SplineSet
192 512 m 1,0,-1
 64 512 l 1,1,-1
 64 576 l 1,2,-1
 320 576 l 1,3,-1
 320 0 l 1,4,-1
 64 0 l 1,5,-1
 64 64 l 1,6,-1
 192 64 l 1,7,-1
 192 512 l 1,0,-1
EndSplineSet
EndChar

StartChar: asciicircum
Encoding: 94 94 65
Width: 512
GlyphClass: 2
Flags: W
LayerCount: 2
Fore
SplineSet
128 512 m 1,0,-1
 192 512 l 1,1,-1
 192 576 l 1,2,-1
 320 576 l 1,3,-1
 320 512 l 1,4,-1
 384 512 l 1,5,-1
 384 448 l 1,6,-1
 448 448 l 1,7,-1
 448 320 l 1,8,-1
 384 320 l 1,9,-1
 384 384 l 1,10,-1
 320 384 l 1,11,-1
 320 448 l 1,12,-1
 192 448 l 1,13,-1
 192 384 l 1,14,-1
 128 384 l 1,15,-1
 128 320 l 1,16,-1
 64 320 l 1,17,-1
 64 448 l 1,18,-1
 128 448 l 1,19,-1
 128 512 l 1,0,-1
EndSplineSet
EndChar

StartChar: underscore
Encoding: 95 95 66
Width: 512
GlyphClass: 2
Flags: W
LayerCount: 2
Fore
SplineSet
64 -128 m 1,0,-1
 64 -64 l 1,1,-1
 448 -64 l 1,2,-1
 448 -128 l 1,3,-1
 64 -128 l 1,0,-1
EndSplineSet
EndChar

StartChar: grave
Encoding: 96 96 67
Width: 512
GlyphClass: 2
Flags: W
LayerCount: 2
Fore
SplineSet
256 512 m 1,0,-1
 256 448 l 1,1,-1
 128 448 l 1,2,-1
 128 512 l 1,3,-1
 64 512 l 1,4,-1
 64 576 l 1,5,-1
 192 576 l 1,6,-1
 192 512 l 1,7,-1
 256 512 l 1,0,-1
EndSplineSet
EndChar

StartChar: a
Encoding: 97 97 68
Width: 512
GlyphClass: 2
Flags: W
LayerCount: 2
Fore
SplineSet
192 64 m 1,0,-1
 320 64 l 1,1,-1
 320 192 l 1,2,-1
 192 192 l 1,3,-1
 192 64 l 1,0,-1
128 384 m 1,4,-1
 128 448 l 1,5,-1
 384 448 l 1,6,-1
 384 384 l 1,7,-1
 448 384 l 1,8,-1
 448 0 l 1,9,-1
 128 0 l 1,10,-1
 128 64 l 1,11,-1
 64 64 l 1,12,-1
 64 192 l 1,13,-1
 128 192 l 1,14,-1
 128 256 l 1,15,-1
 320 256 l 1,16,-1
 320 384 l 1,17,-1
 192 384 l 1,18,-1
 192 320 l 1,19,-1
 64 320 l 1,20,-1
 64 384 l 1,21,-1
 128 384 l 1,4,-1
EndSplineSet
EndChar

StartChar: b
Encoding: 98 98 69
Width: 512
GlyphClass: 2
Flags: W
LayerCount: 2
Fore
SplineSet
384 64 m 1,0,-1
 384 0 l 1,1,-1
 64 0 l 1,2,-1
 64 576 l 1,3,-1
 192 576 l 1,4,-1
 192 448 l 1,5,-1
 384 448 l 1,6,-1
 384 384 l 1,7,-1
 448 384 l 1,8,-1
 448 64 l 1,9,-1
 384 64 l 1,0,-1
192 64 m 1,10,-1
 320 64 l 1,11,-1
 320 384 l 1,12,-1
 192 384 l 1,13,-1
 192 64 l 1,10,-1
EndSplineSet
EndChar

StartChar: c
Encoding: 99 99 70
Width: 512
GlyphClass: 2
Flags: W
LayerCount: 2
Fore
SplineSet
320 64 m 1,0,-1
 320 192 l 1,1,-1
 448 192 l 1,2,-1
 448 64 l 1,3,-1
 384 64 l 1,4,-1
 384 0 l 1,5,-1
 128 0 l 1,6,-1
 128 64 l 1,7,-1
 64 64 l 1,8,-1
 64 384 l 1,9,-1
 128 384 l 1,10,-1
 128 448 l 1,11,-1
 384 448 l 1,12,-1
 384 384 l 1,13,-1
 448 384 l 1,14,-1
 448 256 l 1,15,-1
 320 256 l 1,16,-1
 320 384 l 1,17,-1
 192 384 l 1,18,-1
 192 64 l 1,19,-1
 320 64 l 1,0,-1
EndSplineSet
EndChar

StartChar: d
Encoding: 100 100 71
Width: 512
GlyphClass: 2
Flags: W
LayerCount: 2
Fore
SplineSet
192 64 m 1,0,-1
 320 64 l 1,1,-1
 320 384 l 1,2,-1
 192 384 l 1,3,-1
 192 64 l 1,0,-1
448 0 m 1,4,-1
 128 0 l 1,5,-1
 128 64 l 1,6,-1
 64 64 l 1,7,-1
 64 384 l 1,8,-1
 128 384 l 1,9,-1
 128 448 l 1,10,-1
 320 448 l 1,11,-1
 320 576 l 1,12,-1
 448 576 l 1,13,-1
 448 0 l 1,4,-1
EndSplineSet
EndChar

StartChar: e
Encoding: 101 101 72
Width: 512
GlyphClass: 2
Flags: W
LayerCount: 2
Fore
SplineSet
192 256 m 1,0,-1
 320 256 l 1,1,-1
 320 384 l 1,2,-1
 192 384 l 1,3,-1
 192 256 l 1,0,-1
384 64 m 1,4,-1
 384 0 l 1,5,-1
 128 0 l 1,6,-1
 128 64 l 1,7,-1
 64 64 l 1,8,-1
 64 384 l 1,9,-1
 128 384 l 1,10,-1
 128 448 l 1,11,-1
 384 448 l 1,12,-1
 384 384 l 1,13,-1
 448 384 l 1,14,-1
 448 192 l 1,15,-1
 192 192 l 1,16,-1
 192 64 l 1,17,-1
 320 64 l 1,18,-1
 320 128 l 1,19,-1
 448 128 l 1,20,-1
 448 64 l 1,21,-1
 384 64 l 1,4,-1
EndSplineSet
EndChar

StartChar: f
Encoding: 102 102 73
Width: 512
GlyphClass: 2
Flags: W
LayerCount: 2
Fore
SplineSet
192 384 m 1,0,-1
 192 512 l 1,1,-1
 256 512 l 1,2,-1
 256 576 l 1,3,-1
 448 576 l 1,4,-1
 448 512 l 1,5,-1
 320 512 l 1,6,-1
 320 384 l 1,7,-1
 448 384 l 1,8,-1
 448 320 l 1,9,-1
 320 320 l 1,10,-1
 320 0 l 1,11,-1
 192 0 l 1,12,-1
 192 320 l 1,13,-1
 64 320 l 1,14,-1
 64 384 l 1,15,-1
 192 384 l 1,0,-1
EndSplineSet
EndChar

StartChar: g
Encoding: 103 103 74
Width: 512
GlyphClass: 2
Flags: W
LayerCount: 2
Fore
SplineSet
384 -128 m 1,0,-1
 384 -192 l 1,1,-1
 128 -192 l 1,2,-1
 128 -128 l 1,3,-1
 64 -128 l 1,4,-1
 64 -64 l 1,5,-1
 192 -64 l 1,6,-1
 192 -128 l 1,7,-1
 320 -128 l 1,8,-1
 320 0 l 1,9,-1
 128 0 l 1,10,-1
 128 64 l 1,11,-1
 64 64 l 1,12,-1
 64 384 l 1,13,-1
 128 384 l 1,14,-1
 128 448 l 1,15,-1
 448 448 l 1,16,-1
 448 -128 l 1,17,-1
 384 -128 l 1,0,-1
320 384 m 1,18,-1
 192 384 l 1,19,-1
 192 64 l 1,20,-1
 320 64 l 1,21,-1
 320 384 l 1,18,-1
EndSplineSet
EndChar

StartChar: h
Encoding: 104 104 75
Width: 512
GlyphClass: 2
Flags: W
LayerCount: 2
Fore
SplineSet
384 384 m 1,0,-1
 448 384 l 1,1,-1
 448 0 l 1,2,-1
 320 0 l 1,3,-1
 320 384 l 1,4,-1
 192 384 l 1,5,-1
 192 0 l 1,6,-1
 64 0 l 1,7,-1
 64 576 l 1,8,-1
 192 576 l 1,9,-1
 192 448 l 1,10,-1
 384 448 l 1,11,-1
 384 384 l 1,0,-1
EndSplineSet
EndChar

StartChar: i
Encoding: 105 105 76
Width: 512
GlyphClass: 2
Flags: W
LayerCount: 2
Fore
SplineSet
192 384 m 1,0,-1
 64 384 l 1,1,-1
 64 448 l 1,2,-1
 320 448 l 1,3,-1
 320 64 l 1,4,-1
 448 64 l 1,5,-1
 448 0 l 1,6,-1
 64 0 l 1,7,-1
 64 64 l 1,8,-1
 192 64 l 1,9,-1
 192 384 l 1,0,-1
320 640 m 1,10,-1
 320 512 l 1,11,-1
 192 512 l 1,12,-1
 192 640 l 1,13,-1
 320 640 l 1,10,-1
EndSplineSet
EndChar

StartChar: j
Encoding: 106 106 77
Width: 512
GlyphClass: 2
Flags: W
LayerCount: 2
Fore
SplineSet
320 384 m 1,0,-1
 192 384 l 1,1,-1
 192 448 l 1,2,-1
 448 448 l 1,3,-1
 448 -128 l 1,4,-1
 384 -128 l 1,5,-1
 384 -192 l 1,6,-1
 128 -192 l 1,7,-1
 128 -128 l 1,8,-1
 64 -128 l 1,9,-1
 64 -64 l 1,10,-1
 192 -64 l 1,11,-1
 192 -128 l 1,12,-1
 320 -128 l 1,13,-1
 320 384 l 1,0,-1
448 640 m 1,14,-1
 448 512 l 1,15,-1
 320 512 l 1,16,-1
 320 640 l 1,17,-1
 448 640 l 1,14,-1
EndSplineSet
EndChar

StartChar: k
Encoding: 107 107 78
Width: 512
GlyphClass: 2
Flags: W
LayerCount: 2
Fore
SplineSet
192 192 m 1,0,-1
 192 0 l 1,1,-1
 64 0 l 1,2,-1
 64 576 l 1,3,-1
 192 576 l 1,4,-1
 192 256 l 1,5,-1
 256 256 l 1,6,-1
 256 320 l 1,7,-1
 320 320 l 1,8,-1
 320 448 l 1,9,-1
 448 448 l 1,10,-1
 448 320 l 1,11,-1
 384 320 l 1,12,-1
 384 256 l 1,13,-1
 320 256 l 1,14,-1
 320 192 l 1,15,-1
 384 192 l 1,16,-1
 384 128 l 1,17,-1
 448 128 l 1,18,-1
 448 0 l 1,19,-1
 320 0 l 1,20,-1
 320 128 l 1,21,-1
 256 128 l 1,22,-1
 256 192 l 1,23,-1
 192 192 l 1,0,-1
EndSplineSet
EndChar

StartChar: l
Encoding: 108 108 79
Width: 512
GlyphClass: 2
Flags: W
LayerCount: 2
Fore
SplineSet
192 512 m 1,0,-1
 64 512 l 1,1,-1
 64 576 l 1,2,-1
 320 576 l 1,3,-1
 320 64 l 1,4,-1
 448 64 l 1,5,-1
 448 0 l 1,6,-1
 64 0 l 1,7,-1
 64 64 l 1,8,-1
 192 64 l 1,9,-1
 192 512 l 1,0,-1
EndSplineSet
EndChar

StartChar: m
Encoding: 109 109 80
Width: 583
GlyphClass: 2
Flags: W
LayerCount: 2
Fore
SplineSet
192 320 m 1,0,-1
 192 0 l 1,1,-1
 64 0 l 1,2,-1
 64 448 l 1,3,-1
 256 448 l 1,4,-1
 256 384 l 1,5,-1
 320 384 l 1,6,-1
 320 448 l 1,7,-1
 448 448 l 1,8,-1
 448 384 l 1,9,-1
 512 384 l 1,10,-1
 512 0 l 1,11,-1
 384 0 l 1,12,-1
 384 320 l 1,13,-1
 320 320 l 1,14,-1
 320 64 l 1,15,-1
 256 64 l 1,16,-1
 256 320 l 1,17,-1
 192 320 l 1,0,-1
EndSplineSet
EndChar

StartChar: n
Encoding: 110 110 81
Width: 512
GlyphClass: 2
Flags: W
LayerCount: 2
Fore
SplineSet
192 384 m 1,0,-1
 192 0 l 1,1,-1
 64 0 l 1,2,-1
 64 448 l 1,3,-1
 384 448 l 1,4,-1
 384 384 l 1,5,-1
 448 384 l 1,6,-1
 448 0 l 1,7,-1
 320 0 l 1,8,-1
 320 384 l 1,9,-1
 192 384 l 1,0,-1
EndSplineSet
EndChar

StartChar: o
Encoding: 111 111 82
Width: 512
GlyphClass: 2
Flags: W
LayerCount: 2
Fore
SplineSet
192 64 m 1,0,-1
 320 64 l 1,1,-1
 320 384 l 1,2,-1
 192 384 l 1,3,-1
 192 64 l 1,0,-1
384 64 m 1,4,-1
 384 0 l 1,5,-1
 128 0 l 1,6,-1
 128 64 l 1,7,-1
 64 64 l 1,8,-1
 64 384 l 1,9,-1
 128 384 l 1,10,-1
 128 448 l 1,11,-1
 384 448 l 1,12,-1
 384 384 l 1,13,-1
 448 384 l 1,14,-1
 448 64 l 1,15,-1
 384 64 l 1,4,-1
EndSplineSet
EndChar

StartChar: p
Encoding: 112 112 83
Width: 512
GlyphClass: 2
Flags: W
LayerCount: 2
Fore
SplineSet
192 0 m 1,0,-1
 192 -192 l 1,1,-1
 64 -192 l 1,2,-1
 64 448 l 1,3,-1
 384 448 l 1,4,-1
 384 384 l 1,5,-1
 448 384 l 1,6,-1
 448 64 l 1,7,-1
 384 64 l 1,8,-1
 384 0 l 1,9,-1
 192 0 l 1,0,-1
192 64 m 1,10,-1
 320 64 l 1,11,-1
 320 384 l 1,12,-1
 192 384 l 1,13,-1
 192 64 l 1,10,-1
EndSplineSet
EndChar

StartChar: q
Encoding: 113 113 84
Width: 512
GlyphClass: 2
Flags: W
LayerCount: 2
Fore
SplineSet
320 0 m 1,0,-1
 128 0 l 1,1,-1
 128 64 l 1,2,-1
 64 64 l 1,3,-1
 64 384 l 1,4,-1
 128 384 l 1,5,-1
 128 448 l 1,6,-1
 448 448 l 1,7,-1
 448 -192 l 1,8,-1
 320 -192 l 1,9,-1
 320 0 l 1,0,-1
192 64 m 1,10,-1
 320 64 l 1,11,-1
 320 384 l 1,12,-1
 192 384 l 1,13,-1
 192 64 l 1,10,-1
EndSplineSet
EndChar

StartChar: r
Encoding: 114 114 85
Width: 512
GlyphClass: 2
Flags: W
LayerCount: 2
Fore
SplineSet
192 384 m 1,0,-1
 192 0 l 1,1,-1
 64 0 l 1,2,-1
 64 448 l 1,3,-1
 384 448 l 1,4,-1
 384 384 l 1,5,-1
 448 384 l 1,6,-1
 448 256 l 1,7,-1
 320 256 l 1,8,-1
 320 384 l 1,9,-1
 192 384 l 1,0,-1
EndSplineSet
EndChar

StartChar: s
Encoding: 115 115 86
Width: 512
GlyphClass: 2
Flags: W
LayerCount: 2
Fore
SplineSet
384 384 m 1,0,-1
 448 384 l 1,1,-1
 448 320 l 1,2,-1
 320 320 l 1,3,-1
 320 384 l 1,4,-1
 192 384 l 1,5,-1
 192 256 l 1,6,-1
 384 256 l 1,7,-1
 384 192 l 1,8,-1
 448 192 l 1,9,-1
 448 64 l 1,10,-1
 384 64 l 1,11,-1
 384 0 l 1,12,-1
 128 0 l 1,13,-1
 128 64 l 1,14,-1
 64 64 l 1,15,-1
 64 128 l 1,16,-1
 192 128 l 1,17,-1
 192 64 l 1,18,-1
 320 64 l 1,19,-1
 320 192 l 1,20,-1
 128 192 l 1,21,-1
 128 256 l 1,22,-1
 64 256 l 1,23,-1
 64 384 l 1,24,-1
 128 384 l 1,25,-1
 128 448 l 1,26,-1
 384 448 l 1,27,-1
 384 384 l 1,0,-1
EndSplineSet
EndChar

StartChar: t
Encoding: 116 116 87
Width: 512
GlyphClass: 2
Flags: W
LayerCount: 2
Fore
SplineSet
64 384 m 1,0,-1
 64 448 l 1,1,-1
 192 448 l 1,2,-1
 192 576 l 1,3,-1
 320 576 l 1,4,-1
 320 448 l 1,5,-1
 448 448 l 1,6,-1
 448 384 l 1,7,-1
 320 384 l 1,8,-1
 320 64 l 1,9,-1
 448 64 l 1,10,-1
 448 0 l 1,11,-1
 256 0 l 1,12,-1
 256 64 l 1,13,-1
 192 64 l 1,14,-1
 192 384 l 1,15,-1
 64 384 l 1,0,-1
EndSplineSet
EndChar

StartChar: u
Encoding: 117 117 88
Width: 512
GlyphClass: 2
Flags: W
LayerCount: 2
Fore
SplineSet
320 64 m 1,0,-1
 320 448 l 1,1,-1
 448 448 l 1,2,-1
 448 0 l 1,3,-1
 128 0 l 1,4,-1
 128 64 l 1,5,-1
 64 64 l 1,6,-1
 64 448 l 1,7,-1
 192 448 l 1,8,-1
 192 64 l 1,9,-1
 320 64 l 1,0,-1
EndSplineSet
EndChar

StartChar: v
Encoding: 118 118 89
Width: 512
GlyphClass: 2
Flags: W
LayerCount: 2
Fore
SplineSet
128 256 m 1,0,-1
 64 256 l 1,1,-1
 64 448 l 1,2,-1
 192 448 l 1,3,-1
 192 256 l 1,4,-1
 320 256 l 1,5,-1
 320 448 l 1,6,-1
 448 448 l 1,7,-1
 448 256 l 1,8,-1
 384 256 l 1,9,-1
 384 128 l 1,10,-1
 320 128 l 1,11,-1
 320 0 l 1,12,-1
 192 0 l 1,13,-1
 192 128 l 1,14,-1
 128 128 l 1,15,-1
 128 256 l 1,0,-1
EndSplineSet
EndChar

StartChar: w
Encoding: 119 119 90
Width: 580
GlyphClass: 2
Flags: W
LayerCount: 2
Fore
SplineSet
320 128 m 1,0,-1
 256 128 l 1,1,-1
 256 384 l 1,2,-1
 320 384 l 1,3,-1
 320 128 l 1,0,-1
320 128 m 1,4,-1
 384 128 l 1,5,-1
 384 448 l 1,6,-1
 512 448 l 1,7,-1
 512 128 l 1,8,-1
 448 128 l 1,9,-1
 448 0 l 1,10,-1
 320 0 l 1,11,-1
 320 128 l 1,4,-1
256 0 m 1,12,-1
 128 0 l 1,13,-1
 128 128 l 1,14,-1
 64 128 l 1,15,-1
 64 448 l 1,16,-1
 192 448 l 1,17,-1
 192 128 l 1,18,-1
 256 128 l 1,19,-1
 256 0 l 1,12,-1
EndSplineSet
EndChar

StartChar: x
Encoding: 120 120 91
Width: 512
GlyphClass: 2
Flags: W
LayerCount: 2
Fore
SplineSet
128 320 m 1,0,-1
 64 320 l 1,1,-1
 64 448 l 1,2,-1
 192 448 l 1,3,-1
 192 320 l 1,4,-1
 320 320 l 1,5,-1
 320 448 l 1,6,-1
 448 448 l 1,7,-1
 448 320 l 1,8,-1
 384 320 l 1,9,-1
 384 256 l 1,10,-1
 320 256 l 1,11,-1
 320 192 l 1,12,-1
 384 192 l 1,13,-1
 384 128 l 1,14,-1
 448 128 l 1,15,-1
 448 0 l 1,16,-1
 320 0 l 1,17,-1
 320 128 l 1,18,-1
 192 128 l 1,19,-1
 192 0 l 1,20,-1
 64 0 l 1,21,-1
 64 128 l 1,22,-1
 128 128 l 1,23,-1
 128 192 l 1,24,-1
 192 192 l 1,25,-1
 192 256 l 1,26,-1
 128 256 l 1,27,-1
 128 320 l 1,0,-1
EndSplineSet
EndChar

StartChar: y
Encoding: 121 121 92
Width: 512
GlyphClass: 2
Flags: W
LayerCount: 2
Fore
SplineSet
192 -128 m 1,0,-1
 320 -128 l 1,1,-1
 320 0 l 1,2,-1
 128 0 l 1,3,-1
 128 64 l 1,4,-1
 64 64 l 1,5,-1
 64 448 l 1,6,-1
 192 448 l 1,7,-1
 192 64 l 1,8,-1
 320 64 l 1,9,-1
 320 448 l 1,10,-1
 448 448 l 1,11,-1
 448 -128 l 1,12,-1
 384 -128 l 1,13,-1
 384 -192 l 1,14,-1
 128 -192 l 1,15,-1
 128 -128 l 1,16,-1
 64 -128 l 1,17,-1
 64 -64 l 1,18,-1
 192 -64 l 1,19,-1
 192 -128 l 1,0,-1
EndSplineSet
EndChar

StartChar: z
Encoding: 122 122 93
Width: 512
GlyphClass: 2
Flags: W
LayerCount: 2
Fore
SplineSet
320 384 m 1,0,-1
 64 384 l 1,1,-1
 64 448 l 1,2,-1
 448 448 l 1,3,-1
 448 320 l 1,4,-1
 384 320 l 1,5,-1
 384 256 l 1,6,-1
 320 256 l 1,7,-1
 320 192 l 1,8,-1
 256 192 l 1,9,-1
 256 128 l 1,10,-1
 192 128 l 1,11,-1
 192 64 l 1,12,-1
 448 64 l 1,13,-1
 448 0 l 1,14,-1
 64 0 l 1,15,-1
 64 128 l 1,16,-1
 128 128 l 1,17,-1
 128 192 l 1,18,-1
 192 192 l 1,19,-1
 192 256 l 1,20,-1
 256 256 l 1,21,-1
 256 320 l 1,22,-1
 320 320 l 1,23,-1
 320 384 l 1,0,-1
EndSplineSet
EndChar

StartChar: braceleft
Encoding: 123 123 94
Width: 512
GlyphClass: 2
Flags: W
LayerCount: 2
Fore
SplineSet
320 256 m 1,0,-1
 320 64 l 1,1,-1
 448 64 l 1,2,-1
 448 0 l 1,3,-1
 256 0 l 1,4,-1
 256 64 l 1,5,-1
 192 64 l 1,6,-1
 192 256 l 1,7,-1
 128 256 l 1,8,-1
 128 320 l 1,9,-1
 192 320 l 1,10,-1
 192 512 l 1,11,-1
 256 512 l 1,12,-1
 256 576 l 1,13,-1
 448 576 l 1,14,-1
 448 512 l 1,15,-1
 320 512 l 1,16,-1
 320 320 l 1,17,-1
 256 320 l 1,18,-1
 256 256 l 1,19,-1
 320 256 l 1,0,-1
EndSplineSet
EndChar

StartChar: bar
Encoding: 124 124 95
Width: 512
GlyphClass: 2
Flags: W
LayerCount: 2
Fore
SplineSet
320 576 m 1,0,-1
 320 0 l 1,1,-1
 192 0 l 1,2,-1
 192 576 l 1,3,-1
 320 576 l 1,0,-1
EndSplineSet
EndChar

StartChar: braceright
Encoding: 125 125 96
Width: 512
GlyphClass: 2
Flags: W
LayerCount: 2
Fore
SplineSet
256 256 m 1,0,-1
 256 320 l 1,1,-1
 192 320 l 1,2,-1
 192 512 l 1,3,-1
 64 512 l 1,4,-1
 64 576 l 1,5,-1
 256 576 l 1,6,-1
 256 512 l 1,7,-1
 320 512 l 1,8,-1
 320 320 l 1,9,-1
 384 320 l 1,10,-1
 384 256 l 1,11,-1
 320 256 l 1,12,-1
 320 64 l 1,13,-1
 256 64 l 1,14,-1
 256 0 l 1,15,-1
 64 0 l 1,16,-1
 64 64 l 1,17,-1
 192 64 l 1,18,-1
 192 256 l 1,19,-1
 256 256 l 1,0,-1
EndSplineSet
EndChar

StartChar: asciitilde
Encoding: 126 126 97
Width: 512
GlyphClass: 2
Flags: W
LayerCount: 2
Fore
SplineSet
192 256 m 1,0,-1
 192 192 l 1,1,-1
 64 192 l 1,2,-1
 64 256 l 1,3,-1
 128 256 l 1,4,-1
 128 320 l 1,5,-1
 320 320 l 1,6,-1
 320 256 l 1,7,-1
 384 256 l 1,8,-1
 384 320 l 1,9,-1
 512 320 l 1,10,-1
 512 256 l 1,11,-1
 448 256 l 1,12,-1
 448 192 l 1,13,-1
 256 192 l 1,14,-1
 256 256 l 1,15,-1
 192 256 l 1,0,-1
EndSplineSet
EndChar

StartChar: cent
Encoding: 162 162 100
Width: 512
GlyphClass: 2
Flags: W
LayerCount: 2
Fore
SplineSet
320 192 m 1,0,-1
 320 256 l 1,1,-1
 448 256 l 1,2,-1
 448 192 l 1,3,-1
 384 192 l 1,4,-1
 384 128 l 1,5,-1
 320 128 l 1,6,-1
 320 0 l 1,7,-1
 192 0 l 1,8,-1
 192 128 l 1,9,-1
 128 128 l 1,10,-1
 128 192 l 1,11,-1
 64 192 l 1,12,-1
 64 384 l 1,13,-1
 128 384 l 1,14,-1
 128 448 l 1,15,-1
 192 448 l 1,16,-1
 192 576 l 1,17,-1
 320 576 l 1,18,-1
 320 448 l 1,19,-1
 384 448 l 1,20,-1
 384 384 l 1,21,-1
 448 384 l 1,22,-1
 448 320 l 1,23,-1
 320 320 l 1,24,-1
 320 384 l 1,25,-1
 192 384 l 1,26,-1
 192 192 l 1,27,-1
 320 192 l 1,0,-1
EndSplineSet
EndChar

StartChar: sterling
Encoding: 163 163 101
Width: 512
GlyphClass: 2
Flags: W
LayerCount: 2
Fore
SplineSet
384 64 m 1,0,-1
 384 192 l 1,1,-1
 512 192 l 1,2,-1
 512 64 l 1,3,-1
 448 64 l 1,4,-1
 448 0 l 1,5,-1
 64 0 l 1,6,-1
 64 64 l 1,7,-1
 128 64 l 1,8,-1
 128 256 l 1,9,-1
 64 256 l 1,10,-1
 64 320 l 1,11,-1
 128 320 l 1,12,-1
 128 512 l 1,13,-1
 192 512 l 1,14,-1
 192 576 l 1,15,-1
 448 576 l 1,16,-1
 448 512 l 1,17,-1
 512 512 l 1,18,-1
 512 384 l 1,19,-1
 384 384 l 1,20,-1
 384 512 l 1,21,-1
 256 512 l 1,22,-1
 256 320 l 1,23,-1
 384 320 l 1,24,-1
 384 256 l 1,25,-1
 256 256 l 1,26,-1
 256 64 l 1,27,-1
 384 64 l 1,0,-1
EndSplineSet
EndChar

StartChar: yen
Encoding: 165 165 102
Width: 512
GlyphClass: 2
Flags: W
LayerCount: 2
Fore
SplineSet
320 64 m 1,0,-1
 320 0 l 1,1,-1
 192 0 l 1,2,-1
 192 64 l 1,3,-1
 64 64 l 1,4,-1
 64 128 l 1,5,-1
 192 128 l 1,6,-1
 192 192 l 1,7,-1
 64 192 l 1,8,-1
 64 256 l 1,9,-1
 128 256 l 1,10,-1
 128 320 l 1,11,-1
 64 320 l 1,12,-1
 64 576 l 1,13,-1
 192 576 l 1,14,-1
 192 320 l 1,15,-1
 320 320 l 1,16,-1
 320 576 l 1,17,-1
 448 576 l 1,18,-1
 448 320 l 1,19,-1
 384 320 l 1,20,-1
 384 256 l 1,21,-1
 448 256 l 1,22,-1
 448 192 l 1,23,-1
 320 192 l 1,24,-1
 320 128 l 1,25,-1
 448 128 l 1,26,-1
 448 64 l 1,27,-1
 320 64 l 1,0,-1
EndSplineSet
EndChar

StartChar: brokenbar
Encoding: 166 166 103
Width: 512
GlyphClass: 2
Flags: W
LayerCount: 2
Fore
SplineSet
320 0 m 1,0,-1
 192 0 l 1,1,-1
 192 256 l 1,2,-1
 320 256 l 1,3,-1
 320 0 l 1,0,-1
320 320 m 1,4,-1
 192 320 l 1,5,-1
 192 576 l 1,6,-1
 320 576 l 1,7,-1
 320 320 l 1,4,-1
EndSplineSet
EndChar

StartChar: section
Encoding: 167 167 104
Width: 512
GlyphClass: 2
Flags: W
LayerCount: 2
Fore
SplineSet
384 512 m 1,0,-1
 448 512 l 1,1,-1
 448 448 l 1,2,-1
 320 448 l 1,3,-1
 320 512 l 1,4,-1
 192 512 l 1,5,-1
 192 384 l 1,6,-1
 384 384 l 1,7,-1
 384 320 l 1,8,-1
 448 320 l 1,9,-1
 448 64 l 1,10,-1
 384 64 l 1,11,-1
 384 0 l 1,12,-1
 448 0 l 1,13,-1
 448 -128 l 1,14,-1
 384 -128 l 1,15,-1
 384 -192 l 1,16,-1
 128 -192 l 1,17,-1
 128 -128 l 1,18,-1
 64 -128 l 1,19,-1
 64 -64 l 1,20,-1
 192 -64 l 1,21,-1
 192 -128 l 1,22,-1
 320 -128 l 1,23,-1
 320 0 l 1,24,-1
 128 0 l 1,25,-1
 128 64 l 1,26,-1
 64 64 l 1,27,-1
 64 320 l 1,28,-1
 128 320 l 1,29,-1
 128 384 l 1,30,-1
 64 384 l 1,31,-1
 64 512 l 1,32,-1
 128 512 l 1,33,-1
 128 576 l 1,34,-1
 384 576 l 1,35,-1
 384 512 l 1,0,-1
320 64 m 1,36,-1
 320 320 l 1,37,-1
 192 320 l 1,38,-1
 192 64 l 1,39,-1
 320 64 l 1,36,-1
EndSplineSet
EndChar

StartChar: dieresis
Encoding: 168 168 105
Width: 512
GlyphClass: 2
Flags: W
LayerCount: 2
Fore
SplineSet
192 448 m 1,0,-1
 64 448 l 1,1,-1
 64 576 l 1,2,-1
 192 576 l 1,3,-1
 192 448 l 1,0,-1
448 448 m 1,4,-1
 320 448 l 1,5,-1
 320 576 l 1,6,-1
 448 576 l 1,7,-1
 448 448 l 1,4,-1
EndSplineSet
EndChar

StartChar: copyright
Encoding: 169 169 106
Width: 512
GlyphClass: 2
Flags: W
LayerCount: 2
Fore
SplineSet
384 192 m 1,0,-1
 320 192 l 1,1,-1
 320 256 l 1,2,-1
 384 256 l 1,3,-1
 384 192 l 1,0,-1
384 320 m 1,4,-1
 320 320 l 1,5,-1
 320 384 l 1,6,-1
 384 384 l 1,7,-1
 384 320 l 1,4,-1
192 384 m 1,8,-1
 192 192 l 1,9,-1
 128 192 l 1,10,-1
 128 384 l 1,11,-1
 192 384 l 1,8,-1
192 384 m 1,12,-1
 192 448 l 1,13,-1
 320 448 l 1,14,-1
 320 384 l 1,15,-1
 192 384 l 1,12,-1
192 192 m 1,16,-1
 320 192 l 1,17,-1
 320 128 l 1,18,-1
 192 128 l 1,19,-1
 192 192 l 1,16,-1
384 64 m 1,20,-1
 384 128 l 1,21,-1
 448 128 l 1,22,-1
 448 64 l 1,23,-1
 384 64 l 1,20,-1
448 128 m 1,24,-1
 448 448 l 1,25,-1
 512 448 l 1,26,-1
 512 128 l 1,27,-1
 448 128 l 1,24,-1
448 448 m 1,28,-1
 384 448 l 1,29,-1
 384 512 l 1,30,-1
 448 512 l 1,31,-1
 448 448 l 1,28,-1
128 64 m 1,32,-1
 64 64 l 1,33,-1
 64 128 l 1,34,-1
 128 128 l 1,35,-1
 128 64 l 1,32,-1
384 64 m 1,36,-1
 384 0 l 1,37,-1
 128 0 l 1,38,-1
 128 64 l 1,39,-1
 384 64 l 1,36,-1
64 128 m 1,40,-1
 0 128 l 1,41,-1
 0 448 l 1,42,-1
 64 448 l 1,43,-1
 64 128 l 1,40,-1
64 448 m 1,44,-1
 64 512 l 1,45,-1
 128 512 l 1,46,-1
 128 448 l 1,47,-1
 64 448 l 1,44,-1
384 576 m 1,48,-1
 384 512 l 1,49,-1
 128 512 l 1,50,-1
 128 576 l 1,51,-1
 384 576 l 1,48,-1
EndSplineSet
EndChar

StartChar: ordfeminine
Encoding: 170 170 107
Width: 512
GlyphClass: 2
Flags: W
LayerCount: 2
Fore
SplineSet
192 192 m 1,0,-1
 320 192 l 1,1,-1
 320 320 l 1,2,-1
 192 320 l 1,3,-1
 192 192 l 1,0,-1
128 512 m 1,4,-1
 128 576 l 1,5,-1
 384 576 l 1,6,-1
 384 512 l 1,7,-1
 448 512 l 1,8,-1
 448 128 l 1,9,-1
 128 128 l 1,10,-1
 128 192 l 1,11,-1
 64 192 l 1,12,-1
 64 320 l 1,13,-1
 128 320 l 1,14,-1
 128 384 l 1,15,-1
 320 384 l 1,16,-1
 320 512 l 1,17,-1
 192 512 l 1,18,-1
 192 448 l 1,19,-1
 64 448 l 1,20,-1
 64 512 l 1,21,-1
 128 512 l 1,4,-1
EndSplineSet
EndChar

StartChar: guillemotleft
Encoding: 171 171 108
Width: 512
GlyphClass: 2
Flags: W
LayerCount: 2
Fore
SplineSet
128 128 m 1,0,-1
 128 192 l 1,1,-1
 64 192 l 1,2,-1
 64 256 l 1,3,-1
 0 256 l 1,4,-1
 0 320 l 1,5,-1
 64 320 l 1,6,-1
 64 384 l 1,7,-1
 128 384 l 1,8,-1
 128 448 l 1,9,-1
 256 448 l 1,10,-1
 256 384 l 1,11,-1
 192 384 l 1,12,-1
 192 320 l 1,13,-1
 128 320 l 1,14,-1
 128 256 l 1,15,-1
 192 256 l 1,16,-1
 192 192 l 1,17,-1
 256 192 l 1,18,-1
 256 128 l 1,19,-1
 128 128 l 1,0,-1
384 128 m 1,20,-1
 384 192 l 1,21,-1
 320 192 l 1,22,-1
 320 256 l 1,23,-1
 256 256 l 1,24,-1
 256 320 l 1,25,-1
 320 320 l 1,26,-1
 320 384 l 1,27,-1
 384 384 l 1,28,-1
 384 448 l 1,29,-1
 512 448 l 1,30,-1
 512 384 l 1,31,-1
 448 384 l 1,32,-1
 448 320 l 1,33,-1
 384 320 l 1,34,-1
 384 256 l 1,35,-1
 448 256 l 1,36,-1
 448 192 l 1,37,-1
 512 192 l 1,38,-1
 512 128 l 1,39,-1
 384 128 l 1,20,-1
EndSplineSet
EndChar

StartChar: logicalnot
Encoding: 172 172 109
Width: 512
GlyphClass: 2
Flags: W
LayerCount: 2
Fore
SplineSet
64 256 m 1,0,-1
 64 320 l 1,1,-1
 448 320 l 1,2,-1
 448 128 l 1,3,-1
 320 128 l 1,4,-1
 320 256 l 1,5,-1
 64 256 l 1,0,-1
EndSplineSet
EndChar

StartChar: uni00AD
Encoding: 173 173 110
Width: 512
GlyphClass: 2
Flags: W
LayerCount: 2
Fore
SplineSet
128 256 m 1,0,-1
 128 320 l 1,1,-1
 384 320 l 1,2,-1
 384 256 l 1,3,-1
 128 256 l 1,0,-1
EndSplineSet
EndChar

StartChar: registered
Encoding: 174 174 111
Width: 512
GlyphClass: 2
Flags: W
LayerCount: 2
Fore
SplineSet
384 576 m 1,0,-1
 384 512 l 1,1,-1
 128 512 l 1,2,-1
 128 576 l 1,3,-1
 384 576 l 1,0,-1
64 448 m 1,4,-1
 64 512 l 1,5,-1
 128 512 l 1,6,-1
 128 448 l 1,7,-1
 64 448 l 1,4,-1
64 128 m 1,8,-1
 0 128 l 1,9,-1
 0 448 l 1,10,-1
 64 448 l 1,11,-1
 64 128 l 1,8,-1
384 64 m 1,12,-1
 384 0 l 1,13,-1
 128 0 l 1,14,-1
 128 64 l 1,15,-1
 384 64 l 1,12,-1
128 64 m 1,16,-1
 64 64 l 1,17,-1
 64 128 l 1,18,-1
 128 128 l 1,19,-1
 128 64 l 1,16,-1
448 448 m 1,20,-1
 384 448 l 1,21,-1
 384 512 l 1,22,-1
 448 512 l 1,23,-1
 448 448 l 1,20,-1
448 128 m 1,24,-1
 448 448 l 1,25,-1
 512 448 l 1,26,-1
 512 128 l 1,27,-1
 448 128 l 1,24,-1
384 64 m 1,28,-1
 384 128 l 1,29,-1
 448 128 l 1,30,-1
 448 64 l 1,31,-1
 384 64 l 1,28,-1
192 320 m 1,32,-1
 320 320 l 1,33,-1
 320 256 l 1,34,-1
 192 256 l 1,35,-1
 192 128 l 1,36,-1
 128 128 l 1,37,-1
 128 448 l 1,38,-1
 320 448 l 1,39,-1
 320 384 l 1,40,-1
 192 384 l 1,41,-1
 192 320 l 1,32,-1
384 320 m 1,42,-1
 320 320 l 1,43,-1
 320 384 l 1,44,-1
 384 384 l 1,45,-1
 384 320 l 1,42,-1
384 128 m 1,46,-1
 320 128 l 1,47,-1
 320 256 l 1,48,-1
 384 256 l 1,49,-1
 384 128 l 1,46,-1
EndSplineSet
EndChar

StartChar: degree
Encoding: 176 176 112
Width: 512
GlyphClass: 2
Flags: W
LayerCount: 2
Fore
SplineSet
256 512 m 1,0,-1
 320 512 l 1,1,-1
 320 384 l 1,2,-1
 256 384 l 1,3,-1
 256 512 l 1,0,-1
128 512 m 1,4,-1
 128 576 l 1,5,-1
 256 576 l 1,6,-1
 256 512 l 1,7,-1
 128 512 l 1,4,-1
128 384 m 1,8,-1
 64 384 l 1,9,-1
 64 512 l 1,10,-1
 128 512 l 1,11,-1
 128 384 l 1,8,-1
256 384 m 1,12,-1
 256 320 l 1,13,-1
 128 320 l 1,14,-1
 128 384 l 1,15,-1
 256 384 l 1,12,-1
EndSplineSet
EndChar

StartChar: plusminus
Encoding: 177 177 113
Width: 512
GlyphClass: 2
Flags: W
LayerCount: 2
Fore
SplineSet
64 256 m 1,0,-1
 64 320 l 1,1,-1
 192 320 l 1,2,-1
 192 448 l 1,3,-1
 320 448 l 1,4,-1
 320 320 l 1,5,-1
 448 320 l 1,6,-1
 448 256 l 1,7,-1
 320 256 l 1,8,-1
 320 128 l 1,9,-1
 192 128 l 1,10,-1
 192 256 l 1,11,-1
 64 256 l 1,0,-1
64 0 m 1,12,-1
 64 64 l 1,13,-1
 448 64 l 1,14,-1
 448 0 l 1,15,-1
 64 0 l 1,12,-1
EndSplineSet
EndChar

StartChar: acute
Encoding: 180 180 114
Width: 512
GlyphClass: 2
Flags: W
LayerCount: 2
Fore
SplineSet
128 512 m 1,0,-1
 128 576 l 1,1,-1
 256 576 l 1,2,-1
 256 512 l 1,3,-1
 192 512 l 1,4,-1
 192 448 l 1,5,-1
 64 448 l 1,6,-1
 64 512 l 1,7,-1
 128 512 l 1,0,-1
EndSplineSet
EndChar

StartChar: mu
Encoding: 181 181 115
Width: 512
GlyphClass: 2
Flags: W
LayerCount: 2
Fore
SplineSet
320 448 m 1,0,-1
 448 448 l 1,1,-1
 448 64 l 1,2,-1
 384 64 l 1,3,-1
 384 0 l 1,4,-1
 192 0 l 1,5,-1
 192 -192 l 1,6,-1
 64 -192 l 1,7,-1
 64 448 l 1,8,-1
 192 448 l 1,9,-1
 192 64 l 1,10,-1
 320 64 l 1,11,-1
 320 448 l 1,0,-1
EndSplineSet
EndChar

StartChar: paragraph
Encoding: 182 182 116
Width: 512
GlyphClass: 2
Flags: W
LayerCount: 2
Fore
SplineSet
320 0 m 1,0,-1
 192 0 l 1,1,-1
 192 256 l 1,2,-1
 128 256 l 1,3,-1
 128 320 l 1,4,-1
 64 320 l 1,5,-1
 64 512 l 1,6,-1
 128 512 l 1,7,-1
 128 576 l 1,8,-1
 512 576 l 1,9,-1
 512 0 l 1,10,-1
 384 0 l 1,11,-1
 384 512 l 1,12,-1
 320 512 l 1,13,-1
 320 0 l 1,0,-1
EndSplineSet
EndChar

StartChar: periodcentered
Encoding: 183 183 117
Width: 512
GlyphClass: 2
Flags: W
LayerCount: 2
Fore
SplineSet
320 192 m 1,0,-1
 192 192 l 1,1,-1
 192 320 l 1,2,-1
 320 320 l 1,3,-1
 320 192 l 1,0,-1
EndSplineSet
EndChar

StartChar: cedilla
Encoding: 184 184 118
Width: 512
GlyphClass: 2
Flags: W
LayerCount: 2
Fore
SplineSet
320 -64 m 1,0,-1
 384 -64 l 1,1,-1
 384 -128 l 1,2,-1
 320 -128 l 1,3,-1
 320 -192 l 1,4,-1
 64 -192 l 1,5,-1
 64 -128 l 1,6,-1
 256 -128 l 1,7,-1
 256 -64 l 1,8,-1
 192 -64 l 1,9,-1
 192 0 l 1,10,-1
 320 0 l 1,11,-1
 320 -64 l 1,0,-1
EndSplineSet
EndChar

StartChar: ordmasculine
Encoding: 186 186 119
Width: 512
GlyphClass: 2
Flags: W
LayerCount: 2
Fore
SplineSet
192 192 m 1,0,-1
 320 192 l 1,1,-1
 320 512 l 1,2,-1
 192 512 l 1,3,-1
 192 192 l 1,0,-1
384 192 m 1,4,-1
 384 128 l 1,5,-1
 128 128 l 1,6,-1
 128 192 l 1,7,-1
 64 192 l 1,8,-1
 64 512 l 1,9,-1
 128 512 l 1,10,-1
 128 576 l 1,11,-1
 384 576 l 1,12,-1
 384 512 l 1,13,-1
 448 512 l 1,14,-1
 448 192 l 1,15,-1
 384 192 l 1,4,-1
EndSplineSet
EndChar

StartChar: guillemotright
Encoding: 187 187 120
Width: 512
GlyphClass: 2
Flags: W
LayerCount: 2
Fore
SplineSet
0 128 m 1,0,-1
 0 192 l 1,1,-1
 64 192 l 1,2,-1
 64 256 l 1,3,-1
 128 256 l 1,4,-1
 128 320 l 1,5,-1
 64 320 l 1,6,-1
 64 384 l 1,7,-1
 0 384 l 1,8,-1
 0 448 l 1,9,-1
 128 448 l 1,10,-1
 128 384 l 1,11,-1
 192 384 l 1,12,-1
 192 320 l 1,13,-1
 256 320 l 1,14,-1
 256 256 l 1,15,-1
 192 256 l 1,16,-1
 192 192 l 1,17,-1
 128 192 l 1,18,-1
 128 128 l 1,19,-1
 0 128 l 1,0,-1
256 128 m 1,20,-1
 256 192 l 1,21,-1
 320 192 l 1,22,-1
 320 256 l 1,23,-1
 384 256 l 1,24,-1
 384 320 l 1,25,-1
 320 320 l 1,26,-1
 320 384 l 1,27,-1
 256 384 l 1,28,-1
 256 448 l 1,29,-1
 384 448 l 1,30,-1
 384 384 l 1,31,-1
 448 384 l 1,32,-1
 448 320 l 1,33,-1
 512 320 l 1,34,-1
 512 256 l 1,35,-1
 448 256 l 1,36,-1
 448 192 l 1,37,-1
 384 192 l 1,38,-1
 384 128 l 1,39,-1
 256 128 l 1,20,-1
EndSplineSet
EndChar

StartChar: questiondown
Encoding: 191 191 121
Width: 512
GlyphClass: 2
Flags: W
LayerCount: 2
Fore
SplineSet
192 384 m 1,0,-1
 320 384 l 1,1,-1
 320 256 l 1,2,-1
 192 256 l 1,3,-1
 192 384 l 1,0,-1
320 192 m 1,4,-1
 320 128 l 1,5,-1
 256 128 l 1,6,-1
 256 64 l 1,7,-1
 192 64 l 1,8,-1
 192 -128 l 1,9,-1
 320 -128 l 1,10,-1
 320 0 l 1,11,-1
 448 0 l 1,12,-1
 448 -128 l 1,13,-1
 384 -128 l 1,14,-1
 384 -192 l 1,15,-1
 128 -192 l 1,16,-1
 128 -128 l 1,17,-1
 64 -128 l 1,18,-1
 64 64 l 1,19,-1
 128 64 l 1,20,-1
 128 128 l 1,21,-1
 192 128 l 1,22,-1
 192 192 l 1,23,-1
 320 192 l 1,4,-1
EndSplineSet
EndChar

StartChar: Agrave
Encoding: 192 192 122
Width: 512
GlyphClass: 2
Flags: W
LayerCount: 2
Fore
SplineSet
192 256 m 1,0,-1
 320 256 l 1,1,-1
 320 512 l 1,2,-1
 192 512 l 1,3,-1
 192 256 l 1,0,-1
320 192 m 1,4,-1
 192 192 l 1,5,-1
 192 0 l 1,6,-1
 64 0 l 1,7,-1
 64 512 l 1,8,-1
 128 512 l 1,9,-1
 128 576 l 1,10,-1
 384 576 l 1,11,-1
 384 512 l 1,12,-1
 448 512 l 1,13,-1
 448 0 l 1,14,-1
 320 0 l 1,15,-1
 320 192 l 1,4,-1
320 704 m 1,16,-1
 320 640 l 1,17,-1
 192 640 l 1,18,-1
 192 704 l 1,19,-1
 128 704 l 1,20,-1
 128 768 l 1,21,-1
 256 768 l 1,22,-1
 256 704 l 1,23,-1
 320 704 l 1,16,-1
EndSplineSet
EndChar

StartChar: Aacute
Encoding: 193 193 123
Width: 512
GlyphClass: 2
Flags: W
LayerCount: 2
Fore
SplineSet
320 512 m 1,0,-1
 192 512 l 1,1,-1
 192 256 l 1,2,-1
 320 256 l 1,3,-1
 320 512 l 1,0,-1
192 0 m 1,4,-1
 64 0 l 1,5,-1
 64 512 l 1,6,-1
 128 512 l 1,7,-1
 128 576 l 1,8,-1
 384 576 l 1,9,-1
 384 512 l 1,10,-1
 448 512 l 1,11,-1
 448 0 l 1,12,-1
 320 0 l 1,13,-1
 320 192 l 1,14,-1
 192 192 l 1,15,-1
 192 0 l 1,4,-1
256 704 m 1,16,-1
 256 768 l 1,17,-1
 384 768 l 1,18,-1
 384 704 l 1,19,-1
 320 704 l 1,20,-1
 320 640 l 1,21,-1
 192 640 l 1,22,-1
 192 704 l 1,23,-1
 256 704 l 1,16,-1
EndSplineSet
EndChar

StartChar: Acircumflex
Encoding: 194 194 124
Width: 512
GlyphClass: 2
Flags: W
LayerCount: 2
Fore
SplineSet
192 256 m 1,0,-1
 320 256 l 1,1,-1
 320 512 l 1,2,-1
 192 512 l 1,3,-1
 192 256 l 1,0,-1
320 192 m 1,4,-1
 192 192 l 1,5,-1
 192 0 l 1,6,-1
 64 0 l 1,7,-1
 64 512 l 1,8,-1
 128 512 l 1,9,-1
 128 576 l 1,10,-1
 384 576 l 1,11,-1
 384 512 l 1,12,-1
 448 512 l 1,13,-1
 448 0 l 1,14,-1
 320 0 l 1,15,-1
 320 192 l 1,4,-1
128 768 m 1,16,-1
 192 768 l 1,17,-1
 192 832 l 1,18,-1
 320 832 l 1,19,-1
 320 768 l 1,20,-1
 384 768 l 1,21,-1
 384 704 l 1,22,-1
 448 704 l 1,23,-1
 448 640 l 1,24,-1
 320 640 l 1,25,-1
 320 704 l 1,26,-1
 192 704 l 1,27,-1
 192 640 l 1,28,-1
 64 640 l 1,29,-1
 64 704 l 1,30,-1
 128 704 l 1,31,-1
 128 768 l 1,16,-1
EndSplineSet
EndChar

StartChar: Atilde
Encoding: 195 195 125
Width: 512
GlyphClass: 2
Flags: W
LayerCount: 2
Fore
SplineSet
192 256 m 1,0,-1
 320 256 l 1,1,-1
 320 512 l 1,2,-1
 192 512 l 1,3,-1
 192 256 l 1,0,-1
320 192 m 1,4,-1
 192 192 l 1,5,-1
 192 0 l 1,6,-1
 64 0 l 1,7,-1
 64 512 l 1,8,-1
 128 512 l 1,9,-1
 128 576 l 1,10,-1
 384 576 l 1,11,-1
 384 512 l 1,12,-1
 448 512 l 1,13,-1
 448 0 l 1,14,-1
 320 0 l 1,15,-1
 320 192 l 1,4,-1
192 704 m 1,16,-1
 192 640 l 1,17,-1
 64 640 l 1,18,-1
 64 704 l 1,19,-1
 128 704 l 1,20,-1
 128 768 l 1,21,-1
 320 768 l 1,22,-1
 320 704 l 1,23,-1
 384 704 l 1,24,-1
 384 768 l 1,25,-1
 512 768 l 1,26,-1
 512 704 l 1,27,-1
 448 704 l 1,28,-1
 448 640 l 1,29,-1
 256 640 l 1,30,-1
 256 704 l 1,31,-1
 192 704 l 1,16,-1
EndSplineSet
EndChar

StartChar: Adieresis
Encoding: 196 196 126
Width: 512
GlyphClass: 2
Flags: W
LayerCount: 2
Fore
SplineSet
192 256 m 1,0,-1
 320 256 l 1,1,-1
 320 512 l 1,2,-1
 192 512 l 1,3,-1
 192 256 l 1,0,-1
384 576 m 1,4,-1
 384 512 l 1,5,-1
 448 512 l 1,6,-1
 448 0 l 1,7,-1
 320 0 l 1,8,-1
 320 192 l 1,9,-1
 192 192 l 1,10,-1
 192 0 l 1,11,-1
 64 0 l 1,12,-1
 64 512 l 1,13,-1
 128 512 l 1,14,-1
 128 576 l 1,15,-1
 384 576 l 1,4,-1
320 640 m 1,16,-1
 320 768 l 1,17,-1
 448 768 l 1,18,-1
 448 640 l 1,19,-1
 320 640 l 1,16,-1
192 768 m 1,20,-1
 192 640 l 1,21,-1
 64 640 l 1,22,-1
 64 768 l 1,23,-1
 192 768 l 1,20,-1
EndSplineSet
EndChar

StartChar: Aring
Encoding: 197 197 127
Width: 512
GlyphClass: 2
Flags: W
LayerCount: 2
Fore
SplineSet
192 256 m 1,0,-1
 320 256 l 1,1,-1
 320 512 l 1,2,-1
 192 512 l 1,3,-1
 192 256 l 1,0,-1
320 192 m 1,4,-1
 192 192 l 1,5,-1
 192 0 l 1,6,-1
 64 0 l 1,7,-1
 64 512 l 1,8,-1
 128 512 l 1,9,-1
 128 576 l 1,10,-1
 384 576 l 1,11,-1
 384 512 l 1,12,-1
 448 512 l 1,13,-1
 448 0 l 1,14,-1
 320 0 l 1,15,-1
 320 192 l 1,4,-1
192 704 m 1,16,-1
 320 704 l 1,17,-1
 320 768 l 1,18,-1
 192 768 l 1,19,-1
 192 704 l 1,16,-1
384 704 m 1,20,-1
 384 640 l 1,21,-1
 128 640 l 1,22,-1
 128 704 l 1,23,-1
 64 704 l 1,24,-1
 64 768 l 1,25,-1
 128 768 l 1,26,-1
 128 832 l 1,27,-1
 384 832 l 1,28,-1
 384 768 l 1,29,-1
 448 768 l 1,30,-1
 448 704 l 1,31,-1
 384 704 l 1,20,-1
EndSplineSet
EndChar

StartChar: AE
Encoding: 198 198 128
Width: 512
GlyphClass: 2
Flags: W
LayerCount: 2
Fore
SplineSet
256 256 m 1,0,-1
 256 512 l 1,1,-1
 192 512 l 1,2,-1
 192 256 l 1,3,-1
 256 256 l 1,0,-1
384 320 m 1,4,-1
 512 320 l 1,5,-1
 512 256 l 1,6,-1
 384 256 l 1,7,-1
 384 64 l 1,8,-1
 512 64 l 1,9,-1
 512 0 l 1,10,-1
 256 0 l 1,11,-1
 256 192 l 1,12,-1
 192 192 l 1,13,-1
 192 0 l 1,14,-1
 64 0 l 1,15,-1
 64 512 l 1,16,-1
 128 512 l 1,17,-1
 128 576 l 1,18,-1
 512 576 l 1,19,-1
 512 512 l 1,20,-1
 384 512 l 1,21,-1
 384 320 l 1,4,-1
EndSplineSet
EndChar

StartChar: Ccedilla
Encoding: 199 199 129
Width: 512
GlyphClass: 2
Flags: W
LayerCount: 2
Fore
SplineSet
192 0 m 1,0,-1
 128 0 l 1,1,-1
 128 64 l 1,2,-1
 64 64 l 1,3,-1
 64 512 l 1,4,-1
 128 512 l 1,5,-1
 128 576 l 1,6,-1
 384 576 l 1,7,-1
 384 512 l 1,8,-1
 448 512 l 1,9,-1
 448 384 l 1,10,-1
 320 384 l 1,11,-1
 320 512 l 1,12,-1
 192 512 l 1,13,-1
 192 64 l 1,14,-1
 320 64 l 1,15,-1
 320 192 l 1,16,-1
 448 192 l 1,17,-1
 448 64 l 1,18,-1
 384 64 l 1,19,-1
 384 0 l 1,20,-1
 320 0 l 1,21,-1
 320 -64 l 1,22,-1
 384 -64 l 1,23,-1
 384 -128 l 1,24,-1
 320 -128 l 1,25,-1
 320 -192 l 1,26,-1
 64 -192 l 1,27,-1
 64 -128 l 1,28,-1
 256 -128 l 1,29,-1
 256 -64 l 1,30,-1
 192 -64 l 1,31,-1
 192 0 l 1,0,-1
EndSplineSet
EndChar

StartChar: Egrave
Encoding: 200 200 130
Width: 512
GlyphClass: 2
Flags: W
LayerCount: 2
Fore
SplineSet
192 64 m 1,0,-1
 448 64 l 1,1,-1
 448 0 l 1,2,-1
 64 0 l 1,3,-1
 64 576 l 1,4,-1
 448 576 l 1,5,-1
 448 512 l 1,6,-1
 192 512 l 1,7,-1
 192 320 l 1,8,-1
 384 320 l 1,9,-1
 384 256 l 1,10,-1
 192 256 l 1,11,-1
 192 64 l 1,0,-1
320 704 m 1,12,-1
 320 640 l 1,13,-1
 192 640 l 1,14,-1
 192 704 l 1,15,-1
 128 704 l 1,16,-1
 128 768 l 1,17,-1
 256 768 l 1,18,-1
 256 704 l 1,19,-1
 320 704 l 1,12,-1
EndSplineSet
EndChar

StartChar: Eacute
Encoding: 201 201 131
Width: 512
GlyphClass: 2
Flags: W
LayerCount: 2
Fore
SplineSet
192 64 m 1,0,-1
 448 64 l 1,1,-1
 448 0 l 1,2,-1
 64 0 l 1,3,-1
 64 576 l 1,4,-1
 448 576 l 1,5,-1
 448 512 l 1,6,-1
 192 512 l 1,7,-1
 192 320 l 1,8,-1
 384 320 l 1,9,-1
 384 256 l 1,10,-1
 192 256 l 1,11,-1
 192 64 l 1,0,-1
256 704 m 1,12,-1
 256 768 l 1,13,-1
 384 768 l 1,14,-1
 384 704 l 1,15,-1
 320 704 l 1,16,-1
 320 640 l 1,17,-1
 192 640 l 1,18,-1
 192 704 l 1,19,-1
 256 704 l 1,12,-1
EndSplineSet
EndChar

StartChar: Ecircumflex
Encoding: 202 202 132
Width: 512
GlyphClass: 2
Flags: W
LayerCount: 2
Fore
SplineSet
192 64 m 1,0,-1
 448 64 l 1,1,-1
 448 0 l 1,2,-1
 64 0 l 1,3,-1
 64 576 l 1,4,-1
 448 576 l 1,5,-1
 448 512 l 1,6,-1
 192 512 l 1,7,-1
 192 320 l 1,8,-1
 384 320 l 1,9,-1
 384 256 l 1,10,-1
 192 256 l 1,11,-1
 192 64 l 1,0,-1
128 768 m 1,12,-1
 192 768 l 1,13,-1
 192 832 l 1,14,-1
 320 832 l 1,15,-1
 320 768 l 1,16,-1
 384 768 l 1,17,-1
 384 704 l 1,18,-1
 448 704 l 1,19,-1
 448 640 l 1,20,-1
 320 640 l 1,21,-1
 320 704 l 1,22,-1
 192 704 l 1,23,-1
 192 640 l 1,24,-1
 64 640 l 1,25,-1
 64 704 l 1,26,-1
 128 704 l 1,27,-1
 128 768 l 1,12,-1
EndSplineSet
EndChar

StartChar: Edieresis
Encoding: 203 203 133
Width: 512
GlyphClass: 2
Flags: W
LayerCount: 2
Fore
SplineSet
192 64 m 1,0,-1
 448 64 l 1,1,-1
 448 0 l 1,2,-1
 64 0 l 1,3,-1
 64 576 l 1,4,-1
 448 576 l 1,5,-1
 448 512 l 1,6,-1
 192 512 l 1,7,-1
 192 320 l 1,8,-1
 384 320 l 1,9,-1
 384 256 l 1,10,-1
 192 256 l 1,11,-1
 192 64 l 1,0,-1
192 640 m 1,12,-1
 64 640 l 1,13,-1
 64 768 l 1,14,-1
 192 768 l 1,15,-1
 192 640 l 1,12,-1
448 640 m 1,16,-1
 320 640 l 1,17,-1
 320 768 l 1,18,-1
 448 768 l 1,19,-1
 448 640 l 1,16,-1
EndSplineSet
EndChar

StartChar: Igrave
Encoding: 204 204 134
Width: 512
GlyphClass: 2
Flags: W
LayerCount: 2
Fore
SplineSet
192 512 m 1,0,-1
 64 512 l 1,1,-1
 64 576 l 1,2,-1
 448 576 l 1,3,-1
 448 512 l 1,4,-1
 320 512 l 1,5,-1
 320 64 l 1,6,-1
 448 64 l 1,7,-1
 448 0 l 1,8,-1
 64 0 l 1,9,-1
 64 64 l 1,10,-1
 192 64 l 1,11,-1
 192 512 l 1,0,-1
320 704 m 1,12,-1
 320 640 l 1,13,-1
 192 640 l 1,14,-1
 192 704 l 1,15,-1
 128 704 l 1,16,-1
 128 768 l 1,17,-1
 256 768 l 1,18,-1
 256 704 l 1,19,-1
 320 704 l 1,12,-1
EndSplineSet
EndChar

StartChar: Iacute
Encoding: 205 205 135
Width: 512
GlyphClass: 2
Flags: W
LayerCount: 2
Fore
SplineSet
192 512 m 1,0,-1
 64 512 l 1,1,-1
 64 576 l 1,2,-1
 448 576 l 1,3,-1
 448 512 l 1,4,-1
 320 512 l 1,5,-1
 320 64 l 1,6,-1
 448 64 l 1,7,-1
 448 0 l 1,8,-1
 64 0 l 1,9,-1
 64 64 l 1,10,-1
 192 64 l 1,11,-1
 192 512 l 1,0,-1
256 704 m 1,12,-1
 256 768 l 1,13,-1
 384 768 l 1,14,-1
 384 704 l 1,15,-1
 320 704 l 1,16,-1
 320 640 l 1,17,-1
 192 640 l 1,18,-1
 192 704 l 1,19,-1
 256 704 l 1,12,-1
EndSplineSet
EndChar

StartChar: Icircumflex
Encoding: 206 206 136
Width: 512
GlyphClass: 2
Flags: W
LayerCount: 2
Fore
SplineSet
192 512 m 1,0,-1
 64 512 l 1,1,-1
 64 576 l 1,2,-1
 448 576 l 1,3,-1
 448 512 l 1,4,-1
 320 512 l 1,5,-1
 320 64 l 1,6,-1
 448 64 l 1,7,-1
 448 0 l 1,8,-1
 64 0 l 1,9,-1
 64 64 l 1,10,-1
 192 64 l 1,11,-1
 192 512 l 1,0,-1
128 768 m 1,12,-1
 192 768 l 1,13,-1
 192 832 l 1,14,-1
 320 832 l 1,15,-1
 320 768 l 1,16,-1
 384 768 l 1,17,-1
 384 704 l 1,18,-1
 448 704 l 1,19,-1
 448 640 l 1,20,-1
 320 640 l 1,21,-1
 320 704 l 1,22,-1
 192 704 l 1,23,-1
 192 640 l 1,24,-1
 64 640 l 1,25,-1
 64 704 l 1,26,-1
 128 704 l 1,27,-1
 128 768 l 1,12,-1
EndSplineSet
EndChar

StartChar: Idieresis
Encoding: 207 207 137
Width: 512
GlyphClass: 2
Flags: W
LayerCount: 2
Fore
SplineSet
192 512 m 1,0,-1
 64 512 l 1,1,-1
 64 576 l 1,2,-1
 448 576 l 1,3,-1
 448 512 l 1,4,-1
 320 512 l 1,5,-1
 320 64 l 1,6,-1
 448 64 l 1,7,-1
 448 0 l 1,8,-1
 64 0 l 1,9,-1
 64 64 l 1,10,-1
 192 64 l 1,11,-1
 192 512 l 1,0,-1
192 640 m 1,12,-1
 64 640 l 1,13,-1
 64 768 l 1,14,-1
 192 768 l 1,15,-1
 192 640 l 1,12,-1
448 640 m 1,16,-1
 320 640 l 1,17,-1
 320 768 l 1,18,-1
 448 768 l 1,19,-1
 448 640 l 1,16,-1
EndSplineSet
EndChar

StartChar: Eth
Encoding: 208 208 138
Width: 512
GlyphClass: 2
Flags: W
LayerCount: 2
Fore
SplineSet
64 320 m 1,0,-1
 64 576 l 1,1,-1
 384 576 l 1,2,-1
 384 512 l 1,3,-1
 448 512 l 1,4,-1
 448 64 l 1,5,-1
 384 64 l 1,6,-1
 384 0 l 1,7,-1
 64 0 l 1,8,-1
 64 256 l 1,9,-1
 0 256 l 1,10,-1
 0 320 l 1,11,-1
 64 320 l 1,0,-1
192 320 m 1,12,-1
 256 320 l 1,13,-1
 256 256 l 1,14,-1
 192 256 l 1,15,-1
 192 64 l 1,16,-1
 320 64 l 1,17,-1
 320 512 l 1,18,-1
 192 512 l 1,19,-1
 192 320 l 1,12,-1
EndSplineSet
EndChar

StartChar: Ntilde
Encoding: 209 209 139
Width: 512
GlyphClass: 2
Flags: W
LayerCount: 2
Fore
SplineSet
192 320 m 1,0,-1
 192 0 l 1,1,-1
 64 0 l 1,2,-1
 64 576 l 1,3,-1
 192 576 l 1,4,-1
 192 448 l 1,5,-1
 256 448 l 1,6,-1
 256 320 l 1,7,-1
 320 320 l 1,8,-1
 320 576 l 1,9,-1
 448 576 l 1,10,-1
 448 0 l 1,11,-1
 320 0 l 1,12,-1
 320 192 l 1,13,-1
 256 192 l 1,14,-1
 256 320 l 1,15,-1
 192 320 l 1,0,-1
192 704 m 1,16,-1
 192 640 l 1,17,-1
 64 640 l 1,18,-1
 64 704 l 1,19,-1
 128 704 l 1,20,-1
 128 768 l 1,21,-1
 320 768 l 1,22,-1
 320 704 l 1,23,-1
 384 704 l 1,24,-1
 384 768 l 1,25,-1
 512 768 l 1,26,-1
 512 704 l 1,27,-1
 448 704 l 1,28,-1
 448 640 l 1,29,-1
 256 640 l 1,30,-1
 256 704 l 1,31,-1
 192 704 l 1,16,-1
EndSplineSet
EndChar

StartChar: Ograve
Encoding: 210 210 140
Width: 512
GlyphClass: 2
Flags: W
LayerCount: 2
Fore
SplineSet
192 64 m 1,0,-1
 320 64 l 1,1,-1
 320 512 l 1,2,-1
 192 512 l 1,3,-1
 192 64 l 1,0,-1
384 64 m 1,4,-1
 384 0 l 1,5,-1
 128 0 l 1,6,-1
 128 64 l 1,7,-1
 64 64 l 1,8,-1
 64 512 l 1,9,-1
 128 512 l 1,10,-1
 128 576 l 1,11,-1
 384 576 l 1,12,-1
 384 512 l 1,13,-1
 448 512 l 1,14,-1
 448 64 l 1,15,-1
 384 64 l 1,4,-1
320 704 m 1,16,-1
 320 640 l 1,17,-1
 192 640 l 1,18,-1
 192 704 l 1,19,-1
 128 704 l 1,20,-1
 128 768 l 1,21,-1
 256 768 l 1,22,-1
 256 704 l 1,23,-1
 320 704 l 1,16,-1
EndSplineSet
EndChar

StartChar: Oacute
Encoding: 211 211 141
Width: 512
GlyphClass: 2
Flags: W
LayerCount: 2
Fore
SplineSet
192 64 m 1,0,-1
 320 64 l 1,1,-1
 320 512 l 1,2,-1
 192 512 l 1,3,-1
 192 64 l 1,0,-1
384 64 m 1,4,-1
 384 0 l 1,5,-1
 128 0 l 1,6,-1
 128 64 l 1,7,-1
 64 64 l 1,8,-1
 64 512 l 1,9,-1
 128 512 l 1,10,-1
 128 576 l 1,11,-1
 384 576 l 1,12,-1
 384 512 l 1,13,-1
 448 512 l 1,14,-1
 448 64 l 1,15,-1
 384 64 l 1,4,-1
256 704 m 1,16,-1
 256 768 l 1,17,-1
 384 768 l 1,18,-1
 384 704 l 1,19,-1
 320 704 l 1,20,-1
 320 640 l 1,21,-1
 192 640 l 1,22,-1
 192 704 l 1,23,-1
 256 704 l 1,16,-1
EndSplineSet
EndChar

StartChar: Ocircumflex
Encoding: 212 212 142
Width: 512
GlyphClass: 2
Flags: W
LayerCount: 2
Fore
SplineSet
192 64 m 1,0,-1
 320 64 l 1,1,-1
 320 512 l 1,2,-1
 192 512 l 1,3,-1
 192 64 l 1,0,-1
384 64 m 1,4,-1
 384 0 l 1,5,-1
 128 0 l 1,6,-1
 128 64 l 1,7,-1
 64 64 l 1,8,-1
 64 512 l 1,9,-1
 128 512 l 1,10,-1
 128 576 l 1,11,-1
 384 576 l 1,12,-1
 384 512 l 1,13,-1
 448 512 l 1,14,-1
 448 64 l 1,15,-1
 384 64 l 1,4,-1
128 768 m 1,16,-1
 192 768 l 1,17,-1
 192 832 l 1,18,-1
 320 832 l 1,19,-1
 320 768 l 1,20,-1
 384 768 l 1,21,-1
 384 704 l 1,22,-1
 448 704 l 1,23,-1
 448 640 l 1,24,-1
 320 640 l 1,25,-1
 320 704 l 1,26,-1
 192 704 l 1,27,-1
 192 640 l 1,28,-1
 64 640 l 1,29,-1
 64 704 l 1,30,-1
 128 704 l 1,31,-1
 128 768 l 1,16,-1
EndSplineSet
EndChar

StartChar: Otilde
Encoding: 213 213 143
Width: 512
GlyphClass: 2
Flags: W
LayerCount: 2
Fore
SplineSet
192 64 m 1,0,-1
 320 64 l 1,1,-1
 320 512 l 1,2,-1
 192 512 l 1,3,-1
 192 64 l 1,0,-1
384 64 m 1,4,-1
 384 0 l 1,5,-1
 128 0 l 1,6,-1
 128 64 l 1,7,-1
 64 64 l 1,8,-1
 64 512 l 1,9,-1
 128 512 l 1,10,-1
 128 576 l 1,11,-1
 384 576 l 1,12,-1
 384 512 l 1,13,-1
 448 512 l 1,14,-1
 448 64 l 1,15,-1
 384 64 l 1,4,-1
192 704 m 1,16,-1
 192 640 l 1,17,-1
 64 640 l 1,18,-1
 64 704 l 1,19,-1
 128 704 l 1,20,-1
 128 768 l 1,21,-1
 320 768 l 1,22,-1
 320 704 l 1,23,-1
 384 704 l 1,24,-1
 384 768 l 1,25,-1
 512 768 l 1,26,-1
 512 704 l 1,27,-1
 448 704 l 1,28,-1
 448 640 l 1,29,-1
 256 640 l 1,30,-1
 256 704 l 1,31,-1
 192 704 l 1,16,-1
EndSplineSet
EndChar

StartChar: Odieresis
Encoding: 214 214 144
Width: 512
GlyphClass: 2
Flags: W
LayerCount: 2
Fore
SplineSet
192 64 m 1,0,-1
 320 64 l 1,1,-1
 320 512 l 1,2,-1
 192 512 l 1,3,-1
 192 64 l 1,0,-1
384 64 m 1,4,-1
 384 0 l 1,5,-1
 128 0 l 1,6,-1
 128 64 l 1,7,-1
 64 64 l 1,8,-1
 64 512 l 1,9,-1
 128 512 l 1,10,-1
 128 576 l 1,11,-1
 384 576 l 1,12,-1
 384 512 l 1,13,-1
 448 512 l 1,14,-1
 448 64 l 1,15,-1
 384 64 l 1,4,-1
320 640 m 1,16,-1
 320 768 l 1,17,-1
 448 768 l 1,18,-1
 448 640 l 1,19,-1
 320 640 l 1,16,-1
192 768 m 1,20,-1
 192 640 l 1,21,-1
 64 640 l 1,22,-1
 64 768 l 1,23,-1
 192 768 l 1,20,-1
EndSplineSet
EndChar

StartChar: multiply
Encoding: 215 215 145
Width: 512
GlyphClass: 2
Flags: W
LayerCount: 2
Fore
SplineSet
128 320 m 1,0,-1
 64 320 l 1,1,-1
 64 384 l 1,2,-1
 192 384 l 1,3,-1
 192 320 l 1,4,-1
 320 320 l 1,5,-1
 320 384 l 1,6,-1
 448 384 l 1,7,-1
 448 320 l 1,8,-1
 384 320 l 1,9,-1
 384 256 l 1,10,-1
 320 256 l 1,11,-1
 320 192 l 1,12,-1
 384 192 l 1,13,-1
 384 128 l 1,14,-1
 448 128 l 1,15,-1
 448 64 l 1,16,-1
 320 64 l 1,17,-1
 320 128 l 1,18,-1
 192 128 l 1,19,-1
 192 64 l 1,20,-1
 64 64 l 1,21,-1
 64 128 l 1,22,-1
 128 128 l 1,23,-1
 128 192 l 1,24,-1
 192 192 l 1,25,-1
 192 256 l 1,26,-1
 128 256 l 1,27,-1
 128 320 l 1,0,-1
EndSplineSet
EndChar

StartChar: Oslash
Encoding: 216 216 146
Width: 512
GlyphClass: 2
Flags: W
LayerCount: 2
Fore
SplineSet
256 256 m 1,0,-1
 256 192 l 1,1,-1
 192 192 l 1,2,-1
 192 64 l 1,3,-1
 320 64 l 1,4,-1
 320 256 l 1,5,-1
 256 256 l 1,0,-1
320 384 m 1,6,-1
 320 512 l 1,7,-1
 192 512 l 1,8,-1
 192 320 l 1,9,-1
 256 320 l 1,10,-1
 256 384 l 1,11,-1
 320 384 l 1,6,-1
64 64 m 1,12,-1
 64 0 l 1,13,-1
 0 0 l 1,14,-1
 0 128 l 1,15,-1
 64 128 l 1,16,-1
 64 512 l 1,17,-1
 128 512 l 1,18,-1
 128 576 l 1,19,-1
 384 576 l 1,20,-1
 384 512 l 1,21,-1
 448 512 l 1,22,-1
 448 576 l 1,23,-1
 512 576 l 1,24,-1
 512 448 l 1,25,-1
 448 448 l 1,26,-1
 448 64 l 1,27,-1
 384 64 l 1,28,-1
 384 0 l 1,29,-1
 128 0 l 1,30,-1
 128 64 l 1,31,-1
 64 64 l 1,12,-1
EndSplineSet
EndChar

StartChar: Ugrave
Encoding: 217 217 147
Width: 512
GlyphClass: 2
Flags: W
LayerCount: 2
Fore
SplineSet
128 64 m 1,0,-1
 64 64 l 1,1,-1
 64 576 l 1,2,-1
 192 576 l 1,3,-1
 192 64 l 1,4,-1
 320 64 l 1,5,-1
 320 576 l 1,6,-1
 448 576 l 1,7,-1
 448 64 l 1,8,-1
 384 64 l 1,9,-1
 384 0 l 1,10,-1
 128 0 l 1,11,-1
 128 64 l 1,0,-1
320 704 m 1,12,-1
 320 640 l 1,13,-1
 192 640 l 1,14,-1
 192 704 l 1,15,-1
 128 704 l 1,16,-1
 128 768 l 1,17,-1
 256 768 l 1,18,-1
 256 704 l 1,19,-1
 320 704 l 1,12,-1
EndSplineSet
EndChar

StartChar: Uacute
Encoding: 218 218 148
Width: 512
GlyphClass: 2
Flags: W
LayerCount: 2
Fore
SplineSet
384 0 m 1,0,-1
 128 0 l 1,1,-1
 128 64 l 1,2,-1
 64 64 l 1,3,-1
 64 576 l 1,4,-1
 192 576 l 1,5,-1
 192 64 l 1,6,-1
 320 64 l 1,7,-1
 320 576 l 1,8,-1
 448 576 l 1,9,-1
 448 64 l 1,10,-1
 384 64 l 1,11,-1
 384 0 l 1,0,-1
256 704 m 1,12,-1
 256 768 l 1,13,-1
 384 768 l 1,14,-1
 384 704 l 1,15,-1
 320 704 l 1,16,-1
 320 640 l 1,17,-1
 192 640 l 1,18,-1
 192 704 l 1,19,-1
 256 704 l 1,12,-1
EndSplineSet
EndChar

StartChar: Ucircumflex
Encoding: 219 219 149
Width: 512
GlyphClass: 2
Flags: W
LayerCount: 2
Fore
SplineSet
128 64 m 1,0,-1
 64 64 l 1,1,-1
 64 576 l 1,2,-1
 192 576 l 1,3,-1
 192 64 l 1,4,-1
 320 64 l 1,5,-1
 320 576 l 1,6,-1
 448 576 l 1,7,-1
 448 64 l 1,8,-1
 384 64 l 1,9,-1
 384 0 l 1,10,-1
 128 0 l 1,11,-1
 128 64 l 1,0,-1
128 768 m 1,12,-1
 192 768 l 1,13,-1
 192 832 l 1,14,-1
 320 832 l 1,15,-1
 320 768 l 1,16,-1
 384 768 l 1,17,-1
 384 704 l 1,18,-1
 448 704 l 1,19,-1
 448 640 l 1,20,-1
 320 640 l 1,21,-1
 320 704 l 1,22,-1
 192 704 l 1,23,-1
 192 640 l 1,24,-1
 64 640 l 1,25,-1
 64 704 l 1,26,-1
 128 704 l 1,27,-1
 128 768 l 1,12,-1
EndSplineSet
EndChar

StartChar: Udieresis
Encoding: 220 220 150
Width: 512
GlyphClass: 2
Flags: W
LayerCount: 2
Fore
SplineSet
128 64 m 1,0,-1
 64 64 l 1,1,-1
 64 576 l 1,2,-1
 192 576 l 1,3,-1
 192 64 l 1,4,-1
 320 64 l 1,5,-1
 320 576 l 1,6,-1
 448 576 l 1,7,-1
 448 64 l 1,8,-1
 384 64 l 1,9,-1
 384 0 l 1,10,-1
 128 0 l 1,11,-1
 128 64 l 1,0,-1
320 640 m 1,12,-1
 320 768 l 1,13,-1
 448 768 l 1,14,-1
 448 640 l 1,15,-1
 320 640 l 1,12,-1
192 768 m 1,16,-1
 192 640 l 1,17,-1
 64 640 l 1,18,-1
 64 768 l 1,19,-1
 192 768 l 1,16,-1
EndSplineSet
EndChar

StartChar: Yacute
Encoding: 221 221 151
Width: 512
GlyphClass: 2
Flags: W
LayerCount: 2
Fore
SplineSet
128 320 m 1,0,-1
 64 320 l 1,1,-1
 64 576 l 1,2,-1
 192 576 l 1,3,-1
 192 320 l 1,4,-1
 320 320 l 1,5,-1
 320 576 l 1,6,-1
 448 576 l 1,7,-1
 448 320 l 1,8,-1
 384 320 l 1,9,-1
 384 256 l 1,10,-1
 320 256 l 1,11,-1
 320 0 l 1,12,-1
 192 0 l 1,13,-1
 192 256 l 1,14,-1
 128 256 l 1,15,-1
 128 320 l 1,0,-1
256 704 m 1,16,-1
 256 768 l 1,17,-1
 384 768 l 1,18,-1
 384 704 l 1,19,-1
 320 704 l 1,20,-1
 320 640 l 1,21,-1
 192 640 l 1,22,-1
 192 704 l 1,23,-1
 256 704 l 1,16,-1
EndSplineSet
EndChar

StartChar: Thorn
Encoding: 222 222 152
Width: 512
GlyphClass: 2
Flags: W
LayerCount: 2
Fore
SplineSet
192 192 m 1,0,-1
 320 192 l 1,1,-1
 320 384 l 1,2,-1
 192 384 l 1,3,-1
 192 192 l 1,0,-1
192 128 m 1,4,-1
 192 0 l 1,5,-1
 64 0 l 1,6,-1
 64 576 l 1,7,-1
 192 576 l 1,8,-1
 192 448 l 1,9,-1
 384 448 l 1,10,-1
 384 384 l 1,11,-1
 448 384 l 1,12,-1
 448 192 l 1,13,-1
 384 192 l 1,14,-1
 384 128 l 1,15,-1
 192 128 l 1,4,-1
EndSplineSet
EndChar

StartChar: germandbls
Encoding: 223 223 153
Width: 512
GlyphClass: 2
Flags: W
LayerCount: 2
Fore
SplineSet
128 576 m 1,0,-1
 384 576 l 1,1,-1
 384 512 l 1,2,-1
 448 512 l 1,3,-1
 448 320 l 1,4,-1
 384 320 l 1,5,-1
 384 256 l 1,6,-1
 448 256 l 1,7,-1
 448 64 l 1,8,-1
 384 64 l 1,9,-1
 384 0 l 1,10,-1
 256 0 l 1,11,-1
 256 64 l 1,12,-1
 320 64 l 1,13,-1
 320 256 l 1,14,-1
 256 256 l 1,15,-1
 256 320 l 1,16,-1
 320 320 l 1,17,-1
 320 512 l 1,18,-1
 192 512 l 1,19,-1
 192 0 l 1,20,-1
 64 0 l 1,21,-1
 64 512 l 1,22,-1
 128 512 l 1,23,-1
 128 576 l 1,0,-1
EndSplineSet
EndChar

StartChar: agrave
Encoding: 224 224 154
Width: 512
GlyphClass: 2
Flags: W
LayerCount: 2
Fore
SplineSet
192 64 m 1,0,-1
 320 64 l 1,1,-1
 320 192 l 1,2,-1
 192 192 l 1,3,-1
 192 64 l 1,0,-1
128 384 m 1,4,-1
 128 448 l 1,5,-1
 384 448 l 1,6,-1
 384 384 l 1,7,-1
 448 384 l 1,8,-1
 448 0 l 1,9,-1
 128 0 l 1,10,-1
 128 64 l 1,11,-1
 64 64 l 1,12,-1
 64 192 l 1,13,-1
 128 192 l 1,14,-1
 128 256 l 1,15,-1
 320 256 l 1,16,-1
 320 384 l 1,17,-1
 192 384 l 1,18,-1
 192 320 l 1,19,-1
 64 320 l 1,20,-1
 64 384 l 1,21,-1
 128 384 l 1,4,-1
320 576 m 1,22,-1
 320 512 l 1,23,-1
 192 512 l 1,24,-1
 192 576 l 1,25,-1
 128 576 l 1,26,-1
 128 640 l 1,27,-1
 256 640 l 1,28,-1
 256 576 l 1,29,-1
 320 576 l 1,22,-1
EndSplineSet
EndChar

StartChar: aacute
Encoding: 225 225 155
Width: 512
GlyphClass: 2
Flags: W
LayerCount: 2
Fore
SplineSet
192 64 m 1,0,-1
 320 64 l 1,1,-1
 320 192 l 1,2,-1
 192 192 l 1,3,-1
 192 64 l 1,0,-1
128 384 m 1,4,-1
 128 448 l 1,5,-1
 384 448 l 1,6,-1
 384 384 l 1,7,-1
 448 384 l 1,8,-1
 448 0 l 1,9,-1
 128 0 l 1,10,-1
 128 64 l 1,11,-1
 64 64 l 1,12,-1
 64 192 l 1,13,-1
 128 192 l 1,14,-1
 128 256 l 1,15,-1
 320 256 l 1,16,-1
 320 384 l 1,17,-1
 192 384 l 1,18,-1
 192 320 l 1,19,-1
 64 320 l 1,20,-1
 64 384 l 1,21,-1
 128 384 l 1,4,-1
256 576 m 1,22,-1
 256 640 l 1,23,-1
 384 640 l 1,24,-1
 384 576 l 1,25,-1
 320 576 l 1,26,-1
 320 512 l 1,27,-1
 192 512 l 1,28,-1
 192 576 l 1,29,-1
 256 576 l 1,22,-1
EndSplineSet
EndChar

StartChar: acircumflex
Encoding: 226 226 156
Width: 512
GlyphClass: 2
Flags: W
LayerCount: 2
Fore
SplineSet
192 64 m 1,0,-1
 320 64 l 1,1,-1
 320 192 l 1,2,-1
 192 192 l 1,3,-1
 192 64 l 1,0,-1
128 384 m 1,4,-1
 128 448 l 1,5,-1
 384 448 l 1,6,-1
 384 384 l 1,7,-1
 448 384 l 1,8,-1
 448 0 l 1,9,-1
 128 0 l 1,10,-1
 128 64 l 1,11,-1
 64 64 l 1,12,-1
 64 192 l 1,13,-1
 128 192 l 1,14,-1
 128 256 l 1,15,-1
 320 256 l 1,16,-1
 320 384 l 1,17,-1
 192 384 l 1,18,-1
 192 320 l 1,19,-1
 64 320 l 1,20,-1
 64 384 l 1,21,-1
 128 384 l 1,4,-1
128 640 m 1,22,-1
 192 640 l 1,23,-1
 192 704 l 1,24,-1
 320 704 l 1,25,-1
 320 640 l 1,26,-1
 384 640 l 1,27,-1
 384 576 l 1,28,-1
 448 576 l 1,29,-1
 448 512 l 1,30,-1
 320 512 l 1,31,-1
 320 576 l 1,32,-1
 192 576 l 1,33,-1
 192 512 l 1,34,-1
 64 512 l 1,35,-1
 64 576 l 1,36,-1
 128 576 l 1,37,-1
 128 640 l 1,22,-1
EndSplineSet
EndChar

StartChar: atilde
Encoding: 227 227 157
Width: 512
GlyphClass: 2
Flags: W
LayerCount: 2
Fore
SplineSet
192 64 m 1,0,-1
 320 64 l 1,1,-1
 320 192 l 1,2,-1
 192 192 l 1,3,-1
 192 64 l 1,0,-1
128 384 m 1,4,-1
 128 448 l 1,5,-1
 384 448 l 1,6,-1
 384 384 l 1,7,-1
 448 384 l 1,8,-1
 448 0 l 1,9,-1
 128 0 l 1,10,-1
 128 64 l 1,11,-1
 64 64 l 1,12,-1
 64 192 l 1,13,-1
 128 192 l 1,14,-1
 128 256 l 1,15,-1
 320 256 l 1,16,-1
 320 384 l 1,17,-1
 192 384 l 1,18,-1
 192 320 l 1,19,-1
 64 320 l 1,20,-1
 64 384 l 1,21,-1
 128 384 l 1,4,-1
192 576 m 1,22,-1
 192 512 l 1,23,-1
 64 512 l 1,24,-1
 64 576 l 1,25,-1
 128 576 l 1,26,-1
 128 640 l 1,27,-1
 320 640 l 1,28,-1
 320 576 l 1,29,-1
 384 576 l 1,30,-1
 384 640 l 1,31,-1
 512 640 l 1,32,-1
 512 576 l 1,33,-1
 448 576 l 1,34,-1
 448 512 l 1,35,-1
 256 512 l 1,36,-1
 256 576 l 1,37,-1
 192 576 l 1,22,-1
EndSplineSet
EndChar

StartChar: adieresis
Encoding: 228 228 158
Width: 512
GlyphClass: 2
Flags: W
LayerCount: 2
Fore
SplineSet
192 64 m 1,0,-1
 320 64 l 1,1,-1
 320 192 l 1,2,-1
 192 192 l 1,3,-1
 192 64 l 1,0,-1
128 384 m 1,4,-1
 128 448 l 1,5,-1
 384 448 l 1,6,-1
 384 384 l 1,7,-1
 448 384 l 1,8,-1
 448 0 l 1,9,-1
 128 0 l 1,10,-1
 128 64 l 1,11,-1
 64 64 l 1,12,-1
 64 192 l 1,13,-1
 128 192 l 1,14,-1
 128 256 l 1,15,-1
 320 256 l 1,16,-1
 320 384 l 1,17,-1
 192 384 l 1,18,-1
 192 320 l 1,19,-1
 64 320 l 1,20,-1
 64 384 l 1,21,-1
 128 384 l 1,4,-1
320 512 m 1,22,-1
 320 640 l 1,23,-1
 448 640 l 1,24,-1
 448 512 l 1,25,-1
 320 512 l 1,22,-1
192 640 m 1,26,-1
 192 512 l 1,27,-1
 64 512 l 1,28,-1
 64 640 l 1,29,-1
 192 640 l 1,26,-1
EndSplineSet
EndChar

StartChar: aring
Encoding: 229 229 159
Width: 512
GlyphClass: 2
Flags: W
LayerCount: 2
Fore
SplineSet
192 64 m 1,0,-1
 320 64 l 1,1,-1
 320 192 l 1,2,-1
 192 192 l 1,3,-1
 192 64 l 1,0,-1
128 384 m 1,4,-1
 128 448 l 1,5,-1
 384 448 l 1,6,-1
 384 384 l 1,7,-1
 448 384 l 1,8,-1
 448 0 l 1,9,-1
 128 0 l 1,10,-1
 128 64 l 1,11,-1
 64 64 l 1,12,-1
 64 192 l 1,13,-1
 128 192 l 1,14,-1
 128 256 l 1,15,-1
 320 256 l 1,16,-1
 320 384 l 1,17,-1
 192 384 l 1,18,-1
 192 320 l 1,19,-1
 64 320 l 1,20,-1
 64 384 l 1,21,-1
 128 384 l 1,4,-1
192 576 m 1,22,-1
 320 576 l 1,23,-1
 320 640 l 1,24,-1
 192 640 l 1,25,-1
 192 576 l 1,22,-1
384 576 m 1,26,-1
 384 512 l 1,27,-1
 128 512 l 1,28,-1
 128 576 l 1,29,-1
 64 576 l 1,30,-1
 64 640 l 1,31,-1
 128 640 l 1,32,-1
 128 704 l 1,33,-1
 384 704 l 1,34,-1
 384 640 l 1,35,-1
 448 640 l 1,36,-1
 448 576 l 1,37,-1
 384 576 l 1,26,-1
EndSplineSet
EndChar

StartChar: ae
Encoding: 230 230 160
Width: 512
GlyphClass: 2
Flags: W
LayerCount: 2
Fore
SplineSet
320 384 m 1,0,-1
 320 256 l 1,1,-1
 384 256 l 1,2,-1
 384 384 l 1,3,-1
 320 384 l 1,0,-1
192 64 m 1,4,-1
 192 192 l 1,5,-1
 128 192 l 1,6,-1
 128 64 l 1,7,-1
 192 64 l 1,4,-1
320 384 m 1,8,-1
 320 448 l 1,9,-1
 448 448 l 1,10,-1
 448 384 l 1,11,-1
 512 384 l 1,12,-1
 512 192 l 1,13,-1
 320 192 l 1,14,-1
 320 64 l 1,15,-1
 384 64 l 1,16,-1
 384 128 l 1,17,-1
 512 128 l 1,18,-1
 512 64 l 1,19,-1
 448 64 l 1,20,-1
 448 0 l 1,21,-1
 256 0 l 1,22,-1
 256 64 l 1,23,-1
 192 64 l 1,24,-1
 192 0 l 1,25,-1
 64 0 l 1,26,-1
 64 64 l 1,27,-1
 0 64 l 1,28,-1
 0 192 l 1,29,-1
 64 192 l 1,30,-1
 64 256 l 1,31,-1
 192 256 l 1,32,-1
 192 384 l 1,33,-1
 128 384 l 1,34,-1
 128 320 l 1,35,-1
 0 320 l 1,36,-1
 0 384 l 1,37,-1
 64 384 l 1,38,-1
 64 448 l 1,39,-1
 256 448 l 1,40,-1
 256 384 l 1,41,-1
 320 384 l 1,8,-1
EndSplineSet
EndChar

StartChar: ccedilla
Encoding: 231 231 161
Width: 512
GlyphClass: 2
Flags: W
LayerCount: 2
Fore
SplineSet
192 0 m 1,0,-1
 128 0 l 1,1,-1
 128 64 l 1,2,-1
 64 64 l 1,3,-1
 64 384 l 1,4,-1
 128 384 l 1,5,-1
 128 448 l 1,6,-1
 384 448 l 1,7,-1
 384 384 l 1,8,-1
 448 384 l 1,9,-1
 448 256 l 1,10,-1
 320 256 l 1,11,-1
 320 384 l 1,12,-1
 192 384 l 1,13,-1
 192 64 l 1,14,-1
 320 64 l 1,15,-1
 320 192 l 1,16,-1
 448 192 l 1,17,-1
 448 64 l 1,18,-1
 384 64 l 1,19,-1
 384 0 l 1,20,-1
 320 0 l 1,21,-1
 320 -64 l 1,22,-1
 384 -64 l 1,23,-1
 384 -128 l 1,24,-1
 320 -128 l 1,25,-1
 320 -192 l 1,26,-1
 64 -192 l 1,27,-1
 64 -128 l 1,28,-1
 256 -128 l 1,29,-1
 256 -64 l 1,30,-1
 192 -64 l 1,31,-1
 192 0 l 1,0,-1
EndSplineSet
EndChar

StartChar: egrave
Encoding: 232 232 162
Width: 512
GlyphClass: 2
Flags: W
LayerCount: 2
Fore
SplineSet
320 576 m 1,0,-1
 320 512 l 1,1,-1
 192 512 l 1,2,-1
 192 576 l 1,3,-1
 128 576 l 1,4,-1
 128 640 l 1,5,-1
 256 640 l 1,6,-1
 256 576 l 1,7,-1
 320 576 l 1,0,-1
192 256 m 1,8,-1
 320 256 l 1,9,-1
 320 384 l 1,10,-1
 192 384 l 1,11,-1
 192 256 l 1,8,-1
384 64 m 1,12,-1
 384 0 l 1,13,-1
 128 0 l 1,14,-1
 128 64 l 1,15,-1
 64 64 l 1,16,-1
 64 384 l 1,17,-1
 128 384 l 1,18,-1
 128 448 l 1,19,-1
 384 448 l 1,20,-1
 384 384 l 1,21,-1
 448 384 l 1,22,-1
 448 192 l 1,23,-1
 192 192 l 1,24,-1
 192 64 l 1,25,-1
 320 64 l 1,26,-1
 320 128 l 1,27,-1
 448 128 l 1,28,-1
 448 64 l 1,29,-1
 384 64 l 1,12,-1
EndSplineSet
EndChar

StartChar: eacute
Encoding: 233 233 163
Width: 512
GlyphClass: 2
Flags: W
LayerCount: 2
Fore
SplineSet
256 576 m 1,0,-1
 256 640 l 1,1,-1
 384 640 l 1,2,-1
 384 576 l 1,3,-1
 320 576 l 1,4,-1
 320 512 l 1,5,-1
 192 512 l 1,6,-1
 192 576 l 1,7,-1
 256 576 l 1,0,-1
192 256 m 1,8,-1
 320 256 l 1,9,-1
 320 384 l 1,10,-1
 192 384 l 1,11,-1
 192 256 l 1,8,-1
384 64 m 1,12,-1
 384 0 l 1,13,-1
 128 0 l 1,14,-1
 128 64 l 1,15,-1
 64 64 l 1,16,-1
 64 384 l 1,17,-1
 128 384 l 1,18,-1
 128 448 l 1,19,-1
 384 448 l 1,20,-1
 384 384 l 1,21,-1
 448 384 l 1,22,-1
 448 192 l 1,23,-1
 192 192 l 1,24,-1
 192 64 l 1,25,-1
 320 64 l 1,26,-1
 320 128 l 1,27,-1
 448 128 l 1,28,-1
 448 64 l 1,29,-1
 384 64 l 1,12,-1
EndSplineSet
EndChar

StartChar: ecircumflex
Encoding: 234 234 164
Width: 512
GlyphClass: 2
Flags: W
LayerCount: 2
Fore
SplineSet
128 640 m 1,0,-1
 192 640 l 1,1,-1
 192 704 l 1,2,-1
 320 704 l 1,3,-1
 320 640 l 1,4,-1
 384 640 l 1,5,-1
 384 576 l 1,6,-1
 448 576 l 1,7,-1
 448 512 l 1,8,-1
 320 512 l 1,9,-1
 320 576 l 1,10,-1
 192 576 l 1,11,-1
 192 512 l 1,12,-1
 64 512 l 1,13,-1
 64 576 l 1,14,-1
 128 576 l 1,15,-1
 128 640 l 1,0,-1
192 256 m 1,16,-1
 320 256 l 1,17,-1
 320 384 l 1,18,-1
 192 384 l 1,19,-1
 192 256 l 1,16,-1
384 64 m 1,20,-1
 384 0 l 1,21,-1
 128 0 l 1,22,-1
 128 64 l 1,23,-1
 64 64 l 1,24,-1
 64 384 l 1,25,-1
 128 384 l 1,26,-1
 128 448 l 1,27,-1
 384 448 l 1,28,-1
 384 384 l 1,29,-1
 448 384 l 1,30,-1
 448 192 l 1,31,-1
 192 192 l 1,32,-1
 192 64 l 1,33,-1
 320 64 l 1,34,-1
 320 128 l 1,35,-1
 448 128 l 1,36,-1
 448 64 l 1,37,-1
 384 64 l 1,20,-1
EndSplineSet
EndChar

StartChar: igrave
Encoding: 236 236 166
Width: 512
GlyphClass: 2
Flags: W
LayerCount: 2
Fore
SplineSet
192 384 m 1,0,-1
 64 384 l 1,1,-1
 64 448 l 1,2,-1
 320 448 l 1,3,-1
 320 64 l 1,4,-1
 448 64 l 1,5,-1
 448 0 l 1,6,-1
 64 0 l 1,7,-1
 64 64 l 1,8,-1
 192 64 l 1,9,-1
 192 384 l 1,0,-1
320 576 m 1,10,-1
 320 512 l 1,11,-1
 192 512 l 1,12,-1
 192 576 l 1,13,-1
 128 576 l 1,14,-1
 128 640 l 1,15,-1
 256 640 l 1,16,-1
 256 576 l 1,17,-1
 320 576 l 1,10,-1
EndSplineSet
EndChar

StartChar: iacute
Encoding: 237 237 167
Width: 512
GlyphClass: 2
Flags: W
LayerCount: 2
Fore
SplineSet
192 384 m 1,0,-1
 64 384 l 1,1,-1
 64 448 l 1,2,-1
 320 448 l 1,3,-1
 320 64 l 1,4,-1
 448 64 l 1,5,-1
 448 0 l 1,6,-1
 64 0 l 1,7,-1
 64 64 l 1,8,-1
 192 64 l 1,9,-1
 192 384 l 1,0,-1
256 576 m 1,10,-1
 256 640 l 1,11,-1
 384 640 l 1,12,-1
 384 576 l 1,13,-1
 320 576 l 1,14,-1
 320 512 l 1,15,-1
 192 512 l 1,16,-1
 192 576 l 1,17,-1
 256 576 l 1,10,-1
EndSplineSet
EndChar

StartChar: icircumflex
Encoding: 238 238 168
Width: 512
GlyphClass: 2
Flags: W
LayerCount: 2
Fore
SplineSet
192 384 m 1,0,-1
 64 384 l 1,1,-1
 64 448 l 1,2,-1
 320 448 l 1,3,-1
 320 64 l 1,4,-1
 448 64 l 1,5,-1
 448 0 l 1,6,-1
 64 0 l 1,7,-1
 64 64 l 1,8,-1
 192 64 l 1,9,-1
 192 384 l 1,0,-1
128 640 m 1,10,-1
 192 640 l 1,11,-1
 192 704 l 1,12,-1
 320 704 l 1,13,-1
 320 640 l 1,14,-1
 384 640 l 1,15,-1
 384 576 l 1,16,-1
 448 576 l 1,17,-1
 448 512 l 1,18,-1
 320 512 l 1,19,-1
 320 576 l 1,20,-1
 192 576 l 1,21,-1
 192 512 l 1,22,-1
 64 512 l 1,23,-1
 64 576 l 1,24,-1
 128 576 l 1,25,-1
 128 640 l 1,10,-1
EndSplineSet
EndChar

StartChar: idieresis
Encoding: 239 239 169
Width: 512
GlyphClass: 2
Flags: W
LayerCount: 2
Fore
SplineSet
192 384 m 1,0,-1
 64 384 l 1,1,-1
 64 448 l 1,2,-1
 320 448 l 1,3,-1
 320 64 l 1,4,-1
 448 64 l 1,5,-1
 448 0 l 1,6,-1
 64 0 l 1,7,-1
 64 64 l 1,8,-1
 192 64 l 1,9,-1
 192 384 l 1,0,-1
192 512 m 1,10,-1
 64 512 l 1,11,-1
 64 640 l 1,12,-1
 192 640 l 1,13,-1
 192 512 l 1,10,-1
448 512 m 1,14,-1
 320 512 l 1,15,-1
 320 640 l 1,16,-1
 448 640 l 1,17,-1
 448 512 l 1,14,-1
EndSplineSet
EndChar

StartChar: eth
Encoding: 240 240 170
Width: 512
GlyphClass: 2
Flags: W
LayerCount: 2
Fore
SplineSet
192 64 m 1,0,-1
 320 64 l 1,1,-1
 320 320 l 1,2,-1
 192 320 l 1,3,-1
 192 64 l 1,0,-1
448 448 m 1,4,-1
 448 64 l 1,5,-1
 384 64 l 1,6,-1
 384 0 l 1,7,-1
 128 0 l 1,8,-1
 128 64 l 1,9,-1
 64 64 l 1,10,-1
 64 320 l 1,11,-1
 128 320 l 1,12,-1
 128 384 l 1,13,-1
 320 384 l 1,14,-1
 320 448 l 1,15,-1
 192 448 l 1,16,-1
 192 512 l 1,17,-1
 256 512 l 1,18,-1
 256 576 l 1,19,-1
 384 576 l 1,20,-1
 384 512 l 1,21,-1
 512 512 l 1,22,-1
 512 448 l 1,23,-1
 448 448 l 1,4,-1
EndSplineSet
EndChar

StartChar: ntilde
Encoding: 241 241 171
Width: 512
GlyphClass: 2
Flags: W
LayerCount: 2
Fore
SplineSet
192 576 m 1,0,-1
 192 512 l 1,1,-1
 64 512 l 1,2,-1
 64 576 l 1,3,-1
 128 576 l 1,4,-1
 128 640 l 1,5,-1
 320 640 l 1,6,-1
 320 576 l 1,7,-1
 384 576 l 1,8,-1
 384 640 l 1,9,-1
 512 640 l 1,10,-1
 512 576 l 1,11,-1
 448 576 l 1,12,-1
 448 512 l 1,13,-1
 256 512 l 1,14,-1
 256 576 l 1,15,-1
 192 576 l 1,0,-1
192 384 m 1,16,-1
 192 0 l 1,17,-1
 64 0 l 1,18,-1
 64 448 l 1,19,-1
 384 448 l 1,20,-1
 384 384 l 1,21,-1
 448 384 l 1,22,-1
 448 0 l 1,23,-1
 320 0 l 1,24,-1
 320 384 l 1,25,-1
 192 384 l 1,16,-1
EndSplineSet
EndChar

StartChar: ograve
Encoding: 242 242 172
Width: 512
GlyphClass: 2
Flags: W
LayerCount: 2
Fore
SplineSet
320 576 m 1,0,-1
 320 512 l 1,1,-1
 192 512 l 1,2,-1
 192 576 l 1,3,-1
 128 576 l 1,4,-1
 128 640 l 1,5,-1
 256 640 l 1,6,-1
 256 576 l 1,7,-1
 320 576 l 1,0,-1
192 64 m 1,8,-1
 320 64 l 1,9,-1
 320 384 l 1,10,-1
 192 384 l 1,11,-1
 192 64 l 1,8,-1
384 64 m 1,12,-1
 384 0 l 1,13,-1
 128 0 l 1,14,-1
 128 64 l 1,15,-1
 64 64 l 1,16,-1
 64 384 l 1,17,-1
 128 384 l 1,18,-1
 128 448 l 1,19,-1
 384 448 l 1,20,-1
 384 384 l 1,21,-1
 448 384 l 1,22,-1
 448 64 l 1,23,-1
 384 64 l 1,12,-1
EndSplineSet
EndChar

StartChar: oacute
Encoding: 243 243 173
Width: 512
GlyphClass: 2
Flags: W
LayerCount: 2
Fore
SplineSet
256 576 m 1,0,-1
 256 640 l 1,1,-1
 384 640 l 1,2,-1
 384 576 l 1,3,-1
 320 576 l 1,4,-1
 320 512 l 1,5,-1
 192 512 l 1,6,-1
 192 576 l 1,7,-1
 256 576 l 1,0,-1
192 64 m 1,8,-1
 320 64 l 1,9,-1
 320 384 l 1,10,-1
 192 384 l 1,11,-1
 192 64 l 1,8,-1
384 64 m 1,12,-1
 384 0 l 1,13,-1
 128 0 l 1,14,-1
 128 64 l 1,15,-1
 64 64 l 1,16,-1
 64 384 l 1,17,-1
 128 384 l 1,18,-1
 128 448 l 1,19,-1
 384 448 l 1,20,-1
 384 384 l 1,21,-1
 448 384 l 1,22,-1
 448 64 l 1,23,-1
 384 64 l 1,12,-1
EndSplineSet
EndChar

StartChar: ocircumflex
Encoding: 244 244 174
Width: 512
GlyphClass: 2
Flags: W
LayerCount: 2
Fore
SplineSet
128 640 m 1,0,-1
 192 640 l 1,1,-1
 192 704 l 1,2,-1
 320 704 l 1,3,-1
 320 640 l 1,4,-1
 384 640 l 1,5,-1
 384 576 l 1,6,-1
 448 576 l 1,7,-1
 448 512 l 1,8,-1
 320 512 l 1,9,-1
 320 576 l 1,10,-1
 192 576 l 1,11,-1
 192 512 l 1,12,-1
 64 512 l 1,13,-1
 64 576 l 1,14,-1
 128 576 l 1,15,-1
 128 640 l 1,0,-1
192 64 m 1,16,-1
 320 64 l 1,17,-1
 320 384 l 1,18,-1
 192 384 l 1,19,-1
 192 64 l 1,16,-1
384 64 m 1,20,-1
 384 0 l 1,21,-1
 128 0 l 1,22,-1
 128 64 l 1,23,-1
 64 64 l 1,24,-1
 64 384 l 1,25,-1
 128 384 l 1,26,-1
 128 448 l 1,27,-1
 384 448 l 1,28,-1
 384 384 l 1,29,-1
 448 384 l 1,30,-1
 448 64 l 1,31,-1
 384 64 l 1,20,-1
EndSplineSet
EndChar

StartChar: otilde
Encoding: 245 245 175
Width: 512
GlyphClass: 2
Flags: W
LayerCount: 2
Fore
SplineSet
192 576 m 1,0,-1
 192 512 l 1,1,-1
 64 512 l 1,2,-1
 64 576 l 1,3,-1
 128 576 l 1,4,-1
 128 640 l 1,5,-1
 320 640 l 1,6,-1
 320 576 l 1,7,-1
 384 576 l 1,8,-1
 384 640 l 1,9,-1
 512 640 l 1,10,-1
 512 576 l 1,11,-1
 448 576 l 1,12,-1
 448 512 l 1,13,-1
 256 512 l 1,14,-1
 256 576 l 1,15,-1
 192 576 l 1,0,-1
192 64 m 1,16,-1
 320 64 l 1,17,-1
 320 384 l 1,18,-1
 192 384 l 1,19,-1
 192 64 l 1,16,-1
384 64 m 1,20,-1
 384 0 l 1,21,-1
 128 0 l 1,22,-1
 128 64 l 1,23,-1
 64 64 l 1,24,-1
 64 384 l 1,25,-1
 128 384 l 1,26,-1
 128 448 l 1,27,-1
 384 448 l 1,28,-1
 384 384 l 1,29,-1
 448 384 l 1,30,-1
 448 64 l 1,31,-1
 384 64 l 1,20,-1
EndSplineSet
EndChar

StartChar: odieresis
Encoding: 246 246 176
Width: 512
GlyphClass: 2
Flags: W
LayerCount: 2
Fore
SplineSet
320 512 m 1,0,-1
 320 640 l 1,1,-1
 448 640 l 1,2,-1
 448 512 l 1,3,-1
 320 512 l 1,0,-1
192 640 m 1,4,-1
 192 512 l 1,5,-1
 64 512 l 1,6,-1
 64 640 l 1,7,-1
 192 640 l 1,4,-1
192 64 m 1,8,-1
 320 64 l 1,9,-1
 320 384 l 1,10,-1
 192 384 l 1,11,-1
 192 64 l 1,8,-1
384 64 m 1,12,-1
 384 0 l 1,13,-1
 128 0 l 1,14,-1
 128 64 l 1,15,-1
 64 64 l 1,16,-1
 64 384 l 1,17,-1
 128 384 l 1,18,-1
 128 448 l 1,19,-1
 384 448 l 1,20,-1
 384 384 l 1,21,-1
 448 384 l 1,22,-1
 448 64 l 1,23,-1
 384 64 l 1,12,-1
EndSplineSet
EndChar

StartChar: divide
Encoding: 247 247 177
Width: 512
GlyphClass: 2
Flags: W
LayerCount: 2
Fore
SplineSet
320 64 m 1,0,-1
 192 64 l 1,1,-1
 192 192 l 1,2,-1
 320 192 l 1,3,-1
 320 64 l 1,0,-1
320 384 m 1,4,-1
 192 384 l 1,5,-1
 192 512 l 1,6,-1
 320 512 l 1,7,-1
 320 384 l 1,4,-1
448 256 m 1,8,-1
 64 256 l 1,9,-1
 64 320 l 1,10,-1
 448 320 l 1,11,-1
 448 256 l 1,8,-1
EndSplineSet
EndChar

StartChar: oslash
Encoding: 248 248 178
Width: 512
GlyphClass: 2
Flags: W
LayerCount: 2
Fore
SplineSet
256 192 m 1,0,-1
 256 128 l 1,1,-1
 192 128 l 1,2,-1
 192 64 l 1,3,-1
 320 64 l 1,4,-1
 320 192 l 1,5,-1
 256 192 l 1,0,-1
320 320 m 1,6,-1
 320 384 l 1,7,-1
 192 384 l 1,8,-1
 192 256 l 1,9,-1
 256 256 l 1,10,-1
 256 320 l 1,11,-1
 320 320 l 1,6,-1
64 64 m 1,12,-1
 64 0 l 1,13,-1
 0 0 l 1,14,-1
 0 128 l 1,15,-1
 64 128 l 1,16,-1
 64 384 l 1,17,-1
 128 384 l 1,18,-1
 128 448 l 1,19,-1
 384 448 l 1,20,-1
 384 384 l 1,21,-1
 448 384 l 1,22,-1
 448 448 l 1,23,-1
 512 448 l 1,24,-1
 512 320 l 1,25,-1
 448 320 l 1,26,-1
 448 64 l 1,27,-1
 384 64 l 1,28,-1
 384 0 l 1,29,-1
 128 0 l 1,30,-1
 128 64 l 1,31,-1
 64 64 l 1,12,-1
EndSplineSet
EndChar

StartChar: ugrave
Encoding: 249 249 179
Width: 512
GlyphClass: 2
Flags: W
LayerCount: 2
Fore
SplineSet
128 64 m 1,0,-1
 64 64 l 1,1,-1
 64 448 l 1,2,-1
 192 448 l 1,3,-1
 192 64 l 1,4,-1
 320 64 l 1,5,-1
 320 448 l 1,6,-1
 448 448 l 1,7,-1
 448 0 l 1,8,-1
 128 0 l 1,9,-1
 128 64 l 1,0,-1
320 576 m 1,10,-1
 320 512 l 1,11,-1
 192 512 l 1,12,-1
 192 576 l 1,13,-1
 128 576 l 1,14,-1
 128 640 l 1,15,-1
 256 640 l 1,16,-1
 256 576 l 1,17,-1
 320 576 l 1,10,-1
EndSplineSet
EndChar

StartChar: uacute
Encoding: 250 250 180
Width: 512
GlyphClass: 2
Flags: W
LayerCount: 2
Fore
SplineSet
448 0 m 1,0,-1
 128 0 l 1,1,-1
 128 64 l 1,2,-1
 64 64 l 1,3,-1
 64 448 l 1,4,-1
 192 448 l 1,5,-1
 192 64 l 1,6,-1
 320 64 l 1,7,-1
 320 448 l 1,8,-1
 448 448 l 1,9,-1
 448 0 l 1,0,-1
256 576 m 1,10,-1
 256 640 l 1,11,-1
 384 640 l 1,12,-1
 384 576 l 1,13,-1
 320 576 l 1,14,-1
 320 512 l 1,15,-1
 192 512 l 1,16,-1
 192 576 l 1,17,-1
 256 576 l 1,10,-1
EndSplineSet
EndChar

StartChar: ucircumflex
Encoding: 251 251 181
Width: 512
GlyphClass: 2
Flags: W
LayerCount: 2
Fore
SplineSet
128 64 m 1,0,-1
 64 64 l 1,1,-1
 64 448 l 1,2,-1
 192 448 l 1,3,-1
 192 64 l 1,4,-1
 320 64 l 1,5,-1
 320 448 l 1,6,-1
 448 448 l 1,7,-1
 448 0 l 1,8,-1
 128 0 l 1,9,-1
 128 64 l 1,0,-1
128 640 m 1,10,-1
 192 640 l 1,11,-1
 192 704 l 1,12,-1
 320 704 l 1,13,-1
 320 640 l 1,14,-1
 384 640 l 1,15,-1
 384 576 l 1,16,-1
 448 576 l 1,17,-1
 448 512 l 1,18,-1
 320 512 l 1,19,-1
 320 576 l 1,20,-1
 192 576 l 1,21,-1
 192 512 l 1,22,-1
 64 512 l 1,23,-1
 64 576 l 1,24,-1
 128 576 l 1,25,-1
 128 640 l 1,10,-1
EndSplineSet
EndChar

StartChar: udieresis
Encoding: 252 252 182
Width: 512
GlyphClass: 2
Flags: W
LayerCount: 2
Fore
SplineSet
128 64 m 1,0,-1
 64 64 l 1,1,-1
 64 448 l 1,2,-1
 192 448 l 1,3,-1
 192 64 l 1,4,-1
 320 64 l 1,5,-1
 320 448 l 1,6,-1
 448 448 l 1,7,-1
 448 0 l 1,8,-1
 128 0 l 1,9,-1
 128 64 l 1,0,-1
320 512 m 1,10,-1
 320 640 l 1,11,-1
 448 640 l 1,12,-1
 448 512 l 1,13,-1
 320 512 l 1,10,-1
192 640 m 1,14,-1
 192 512 l 1,15,-1
 64 512 l 1,16,-1
 64 640 l 1,17,-1
 192 640 l 1,14,-1
EndSplineSet
EndChar

StartChar: yacute
Encoding: 253 253 183
Width: 512
GlyphClass: 2
Flags: W
LayerCount: 2
Fore
SplineSet
192 -128 m 1,0,-1
 320 -128 l 1,1,-1
 320 0 l 1,2,-1
 128 0 l 1,3,-1
 128 64 l 1,4,-1
 64 64 l 1,5,-1
 64 448 l 1,6,-1
 192 448 l 1,7,-1
 192 64 l 1,8,-1
 320 64 l 1,9,-1
 320 448 l 1,10,-1
 448 448 l 1,11,-1
 448 -128 l 1,12,-1
 384 -128 l 1,13,-1
 384 -192 l 1,14,-1
 128 -192 l 1,15,-1
 128 -128 l 1,16,-1
 64 -128 l 1,17,-1
 64 -64 l 1,18,-1
 192 -64 l 1,19,-1
 192 -128 l 1,0,-1
256 576 m 1,20,-1
 256 640 l 1,21,-1
 384 640 l 1,22,-1
 384 576 l 1,23,-1
 320 576 l 1,24,-1
 320 512 l 1,25,-1
 192 512 l 1,26,-1
 192 576 l 1,27,-1
 256 576 l 1,20,-1
EndSplineSet
EndChar

StartChar: thorn
Encoding: 254 254 184
Width: 512
GlyphClass: 2
Flags: W
LayerCount: 2
Fore
SplineSet
192 64 m 1,0,-1
 320 64 l 1,1,-1
 320 384 l 1,2,-1
 192 384 l 1,3,-1
 192 64 l 1,0,-1
192 448 m 1,4,-1
 384 448 l 1,5,-1
 384 384 l 1,6,-1
 448 384 l 1,7,-1
 448 64 l 1,8,-1
 384 64 l 1,9,-1
 384 0 l 1,10,-1
 192 0 l 1,11,-1
 192 -128 l 1,12,-1
 64 -128 l 1,13,-1
 64 576 l 1,14,-1
 192 576 l 1,15,-1
 192 448 l 1,4,-1
EndSplineSet
EndChar

StartChar: ydieresis
Encoding: 255 255 185
Width: 512
GlyphClass: 2
Flags: W
LayerCount: 2
Fore
SplineSet
192 -128 m 1,0,-1
 320 -128 l 1,1,-1
 320 0 l 1,2,-1
 128 0 l 1,3,-1
 128 64 l 1,4,-1
 64 64 l 1,5,-1
 64 448 l 1,6,-1
 192 448 l 1,7,-1
 192 64 l 1,8,-1
 320 64 l 1,9,-1
 320 448 l 1,10,-1
 448 448 l 1,11,-1
 448 -128 l 1,12,-1
 384 -128 l 1,13,-1
 384 -192 l 1,14,-1
 128 -192 l 1,15,-1
 128 -128 l 1,16,-1
 64 -128 l 1,17,-1
 64 -64 l 1,18,-1
 192 -64 l 1,19,-1
 192 -128 l 1,0,-1
320 512 m 1,20,-1
 320 640 l 1,21,-1
 448 640 l 1,22,-1
 448 512 l 1,23,-1
 320 512 l 1,20,-1
192 640 m 1,24,-1
 192 512 l 1,25,-1
 64 512 l 1,26,-1
 64 640 l 1,27,-1
 192 640 l 1,24,-1
EndSplineSet
EndChar

StartChar: Ccaron
Encoding: 268 268 186
Width: 512
GlyphClass: 2
Flags: W
LayerCount: 2
Fore
SplineSet
320 64 m 1,0,-1
 320 192 l 1,1,-1
 448 192 l 1,2,-1
 448 64 l 1,3,-1
 384 64 l 1,4,-1
 384 0 l 1,5,-1
 128 0 l 1,6,-1
 128 64 l 1,7,-1
 64 64 l 1,8,-1
 64 512 l 1,9,-1
 128 512 l 1,10,-1
 128 576 l 1,11,-1
 384 576 l 1,12,-1
 384 512 l 1,13,-1
 448 512 l 1,14,-1
 448 384 l 1,15,-1
 320 384 l 1,16,-1
 320 512 l 1,17,-1
 192 512 l 1,18,-1
 192 64 l 1,19,-1
 320 64 l 1,0,-1
128 768 m 1,20,-1
 64 768 l 1,21,-1
 64 832 l 1,22,-1
 192 832 l 1,23,-1
 192 768 l 1,24,-1
 320 768 l 1,25,-1
 320 832 l 1,26,-1
 448 832 l 1,27,-1
 448 768 l 1,28,-1
 384 768 l 1,29,-1
 384 704 l 1,30,-1
 320 704 l 1,31,-1
 320 640 l 1,32,-1
 192 640 l 1,33,-1
 192 704 l 1,34,-1
 128 704 l 1,35,-1
 128 768 l 1,20,-1
EndSplineSet
EndChar

StartChar: ccaron
Encoding: 269 269 187
Width: 512
GlyphClass: 2
Flags: W
LayerCount: 2
Fore
SplineSet
320 64 m 1,0,-1
 320 192 l 1,1,-1
 448 192 l 1,2,-1
 448 64 l 1,3,-1
 384 64 l 1,4,-1
 384 0 l 1,5,-1
 128 0 l 1,6,-1
 128 64 l 1,7,-1
 64 64 l 1,8,-1
 64 384 l 1,9,-1
 128 384 l 1,10,-1
 128 448 l 1,11,-1
 384 448 l 1,12,-1
 384 384 l 1,13,-1
 448 384 l 1,14,-1
 448 256 l 1,15,-1
 320 256 l 1,16,-1
 320 384 l 1,17,-1
 192 384 l 1,18,-1
 192 64 l 1,19,-1
 320 64 l 1,0,-1
128 640 m 1,20,-1
 64 640 l 1,21,-1
 64 704 l 1,22,-1
 192 704 l 1,23,-1
 192 640 l 1,24,-1
 320 640 l 1,25,-1
 320 704 l 1,26,-1
 448 704 l 1,27,-1
 448 640 l 1,28,-1
 384 640 l 1,29,-1
 384 576 l 1,30,-1
 320 576 l 1,31,-1
 320 512 l 1,32,-1
 192 512 l 1,33,-1
 192 576 l 1,34,-1
 128 576 l 1,35,-1
 128 640 l 1,20,-1
EndSplineSet
EndChar

StartChar: Dcaron
Encoding: 270 270 188
Width: 512
GlyphClass: 2
Flags: W
LayerCount: 2
Fore
SplineSet
192 64 m 1,0,-1
 320 64 l 1,1,-1
 320 512 l 1,2,-1
 192 512 l 1,3,-1
 192 64 l 1,0,-1
384 64 m 1,4,-1
 384 0 l 1,5,-1
 64 0 l 1,6,-1
 64 576 l 1,7,-1
 384 576 l 1,8,-1
 384 512 l 1,9,-1
 448 512 l 1,10,-1
 448 64 l 1,11,-1
 384 64 l 1,4,-1
128 768 m 1,12,-1
 64 768 l 1,13,-1
 64 832 l 1,14,-1
 192 832 l 1,15,-1
 192 768 l 1,16,-1
 320 768 l 1,17,-1
 320 832 l 1,18,-1
 448 832 l 1,19,-1
 448 768 l 1,20,-1
 384 768 l 1,21,-1
 384 704 l 1,22,-1
 320 704 l 1,23,-1
 320 640 l 1,24,-1
 192 640 l 1,25,-1
 192 704 l 1,26,-1
 128 704 l 1,27,-1
 128 768 l 1,12,-1
EndSplineSet
EndChar

StartChar: dcaron
Encoding: 271 271 189
Width: 512
GlyphClass: 2
Flags: W
LayerCount: 2
Fore
SplineSet
192 64 m 1,0,-1
 256 64 l 1,1,-1
 256 384 l 1,2,-1
 192 384 l 1,3,-1
 192 64 l 1,0,-1
384 0 m 1,4,-1
 128 0 l 1,5,-1
 128 64 l 1,6,-1
 64 64 l 1,7,-1
 64 384 l 1,8,-1
 128 384 l 1,9,-1
 128 448 l 1,10,-1
 256 448 l 1,11,-1
 256 576 l 1,12,-1
 384 576 l 1,13,-1
 384 0 l 1,4,-1
448 384 m 1,14,-1
 448 576 l 1,15,-1
 512 576 l 1,16,-1
 512 384 l 1,17,-1
 448 384 l 1,14,-1
EndSplineSet
EndChar

StartChar: Ecaron
Encoding: 282 282 190
Width: 512
GlyphClass: 2
Flags: W
LayerCount: 2
Fore
SplineSet
192 64 m 1,0,-1
 448 64 l 1,1,-1
 448 0 l 1,2,-1
 64 0 l 1,3,-1
 64 576 l 1,4,-1
 448 576 l 1,5,-1
 448 512 l 1,6,-1
 192 512 l 1,7,-1
 192 320 l 1,8,-1
 384 320 l 1,9,-1
 384 256 l 1,10,-1
 192 256 l 1,11,-1
 192 64 l 1,0,-1
128 768 m 1,12,-1
 64 768 l 1,13,-1
 64 832 l 1,14,-1
 192 832 l 1,15,-1
 192 768 l 1,16,-1
 320 768 l 1,17,-1
 320 832 l 1,18,-1
 448 832 l 1,19,-1
 448 768 l 1,20,-1
 384 768 l 1,21,-1
 384 704 l 1,22,-1
 320 704 l 1,23,-1
 320 640 l 1,24,-1
 192 640 l 1,25,-1
 192 704 l 1,26,-1
 128 704 l 1,27,-1
 128 768 l 1,12,-1
EndSplineSet
EndChar

StartChar: ecaron
Encoding: 283 283 191
Width: 512
GlyphClass: 2
Flags: W
LayerCount: 2
Fore
SplineSet
128 640 m 1,0,-1
 64 640 l 1,1,-1
 64 704 l 1,2,-1
 192 704 l 1,3,-1
 192 640 l 1,4,-1
 320 640 l 1,5,-1
 320 704 l 1,6,-1
 448 704 l 1,7,-1
 448 640 l 1,8,-1
 384 640 l 1,9,-1
 384 576 l 1,10,-1
 320 576 l 1,11,-1
 320 512 l 1,12,-1
 192 512 l 1,13,-1
 192 576 l 1,14,-1
 128 576 l 1,15,-1
 128 640 l 1,0,-1
192 256 m 1,16,-1
 320 256 l 1,17,-1
 320 384 l 1,18,-1
 192 384 l 1,19,-1
 192 256 l 1,16,-1
384 64 m 1,20,-1
 384 0 l 1,21,-1
 128 0 l 1,22,-1
 128 64 l 1,23,-1
 64 64 l 1,24,-1
 64 384 l 1,25,-1
 128 384 l 1,26,-1
 128 448 l 1,27,-1
 384 448 l 1,28,-1
 384 384 l 1,29,-1
 448 384 l 1,30,-1
 448 192 l 1,31,-1
 192 192 l 1,32,-1
 192 64 l 1,33,-1
 320 64 l 1,34,-1
 320 128 l 1,35,-1
 448 128 l 1,36,-1
 448 64 l 1,37,-1
 384 64 l 1,20,-1
EndSplineSet
EndChar

StartChar: dotlessi
Encoding: 305 305 192
Width: 512
GlyphClass: 2
Flags: W
LayerCount: 2
Fore
SplineSet
192 384 m 1,0,-1
 64 384 l 1,1,-1
 64 448 l 1,2,-1
 320 448 l 1,3,-1
 320 64 l 1,4,-1
 448 64 l 1,5,-1
 448 0 l 1,6,-1
 64 0 l 1,7,-1
 64 64 l 1,8,-1
 192 64 l 1,9,-1
 192 384 l 1,0,-1
EndSplineSet
EndChar

StartChar: Ncaron
Encoding: 327 327 193
Width: 512
GlyphClass: 2
Flags: W
LayerCount: 2
Fore
SplineSet
192 320 m 1,0,-1
 192 0 l 1,1,-1
 64 0 l 1,2,-1
 64 576 l 1,3,-1
 192 576 l 1,4,-1
 192 448 l 1,5,-1
 256 448 l 1,6,-1
 256 320 l 1,7,-1
 320 320 l 1,8,-1
 320 576 l 1,9,-1
 448 576 l 1,10,-1
 448 0 l 1,11,-1
 320 0 l 1,12,-1
 320 192 l 1,13,-1
 256 192 l 1,14,-1
 256 320 l 1,15,-1
 192 320 l 1,0,-1
128 768 m 1,16,-1
 64 768 l 1,17,-1
 64 832 l 1,18,-1
 192 832 l 1,19,-1
 192 768 l 1,20,-1
 320 768 l 1,21,-1
 320 832 l 1,22,-1
 448 832 l 1,23,-1
 448 768 l 1,24,-1
 384 768 l 1,25,-1
 384 704 l 1,26,-1
 320 704 l 1,27,-1
 320 640 l 1,28,-1
 192 640 l 1,29,-1
 192 704 l 1,30,-1
 128 704 l 1,31,-1
 128 768 l 1,16,-1
EndSplineSet
EndChar

StartChar: ncaron
Encoding: 328 328 194
Width: 512
GlyphClass: 2
Flags: W
LayerCount: 2
Fore
SplineSet
192 384 m 1,0,-1
 192 0 l 1,1,-1
 64 0 l 1,2,-1
 64 448 l 1,3,-1
 384 448 l 1,4,-1
 384 384 l 1,5,-1
 448 384 l 1,6,-1
 448 0 l 1,7,-1
 320 0 l 1,8,-1
 320 384 l 1,9,-1
 192 384 l 1,0,-1
128 640 m 1,10,-1
 64 640 l 1,11,-1
 64 704 l 1,12,-1
 192 704 l 1,13,-1
 192 640 l 1,14,-1
 320 640 l 1,15,-1
 320 704 l 1,16,-1
 448 704 l 1,17,-1
 448 640 l 1,18,-1
 384 640 l 1,19,-1
 384 576 l 1,20,-1
 320 576 l 1,21,-1
 320 512 l 1,22,-1
 192 512 l 1,23,-1
 192 576 l 1,24,-1
 128 576 l 1,25,-1
 128 640 l 1,10,-1
EndSplineSet
EndChar

StartChar: OE
Encoding: 338 338 195
Width: 512
GlyphClass: 2
Flags: W
LayerCount: 2
Fore
SplineSet
256 64 m 1,0,-1
 256 512 l 1,1,-1
 192 512 l 1,2,-1
 192 64 l 1,3,-1
 256 64 l 1,0,-1
384 320 m 1,4,-1
 512 320 l 1,5,-1
 512 256 l 1,6,-1
 384 256 l 1,7,-1
 384 64 l 1,8,-1
 512 64 l 1,9,-1
 512 0 l 1,10,-1
 128 0 l 1,11,-1
 128 64 l 1,12,-1
 64 64 l 1,13,-1
 64 512 l 1,14,-1
 128 512 l 1,15,-1
 128 576 l 1,16,-1
 512 576 l 1,17,-1
 512 512 l 1,18,-1
 384 512 l 1,19,-1
 384 320 l 1,4,-1
EndSplineSet
EndChar

StartChar: oe
Encoding: 339 339 196
Width: 512
GlyphClass: 2
Flags: W
LayerCount: 2
Fore
SplineSet
320 384 m 1,0,-1
 320 256 l 1,1,-1
 384 256 l 1,2,-1
 384 384 l 1,3,-1
 320 384 l 1,0,-1
192 64 m 1,4,-1
 192 384 l 1,5,-1
 128 384 l 1,6,-1
 128 64 l 1,7,-1
 192 64 l 1,4,-1
320 384 m 1,8,-1
 320 448 l 1,9,-1
 448 448 l 1,10,-1
 448 384 l 1,11,-1
 512 384 l 1,12,-1
 512 192 l 1,13,-1
 320 192 l 1,14,-1
 320 64 l 1,15,-1
 384 64 l 1,16,-1
 384 128 l 1,17,-1
 512 128 l 1,18,-1
 512 64 l 1,19,-1
 448 64 l 1,20,-1
 448 0 l 1,21,-1
 256 0 l 1,22,-1
 256 64 l 1,23,-1
 192 64 l 1,24,-1
 192 0 l 1,25,-1
 64 0 l 1,26,-1
 64 64 l 1,27,-1
 0 64 l 1,28,-1
 0 384 l 1,29,-1
 64 384 l 1,30,-1
 64 448 l 1,31,-1
 256 448 l 1,32,-1
 256 384 l 1,33,-1
 320 384 l 1,8,-1
EndSplineSet
EndChar

StartChar: Rcaron
Encoding: 344 344 197
Width: 512
GlyphClass: 2
Flags: W
LayerCount: 2
Fore
SplineSet
192 320 m 1,0,-1
 320 320 l 1,1,-1
 320 512 l 1,2,-1
 192 512 l 1,3,-1
 192 320 l 1,0,-1
192 256 m 1,4,-1
 192 0 l 1,5,-1
 64 0 l 1,6,-1
 64 576 l 1,7,-1
 384 576 l 1,8,-1
 384 512 l 1,9,-1
 448 512 l 1,10,-1
 448 320 l 1,11,-1
 384 320 l 1,12,-1
 384 256 l 1,13,-1
 448 256 l 1,14,-1
 448 0 l 1,15,-1
 320 0 l 1,16,-1
 320 256 l 1,17,-1
 192 256 l 1,4,-1
128 768 m 1,18,-1
 64 768 l 1,19,-1
 64 832 l 1,20,-1
 192 832 l 1,21,-1
 192 768 l 1,22,-1
 320 768 l 1,23,-1
 320 832 l 1,24,-1
 448 832 l 1,25,-1
 448 768 l 1,26,-1
 384 768 l 1,27,-1
 384 704 l 1,28,-1
 320 704 l 1,29,-1
 320 640 l 1,30,-1
 192 640 l 1,31,-1
 192 704 l 1,32,-1
 128 704 l 1,33,-1
 128 768 l 1,18,-1
EndSplineSet
EndChar

StartChar: rcaron
Encoding: 345 345 198
Width: 512
GlyphClass: 2
Flags: W
LayerCount: 2
Fore
SplineSet
192 384 m 1,0,-1
 192 0 l 1,1,-1
 64 0 l 1,2,-1
 64 448 l 1,3,-1
 384 448 l 1,4,-1
 384 384 l 1,5,-1
 448 384 l 1,6,-1
 448 256 l 1,7,-1
 320 256 l 1,8,-1
 320 384 l 1,9,-1
 192 384 l 1,0,-1
128 640 m 1,10,-1
 64 640 l 1,11,-1
 64 704 l 1,12,-1
 192 704 l 1,13,-1
 192 640 l 1,14,-1
 320 640 l 1,15,-1
 320 704 l 1,16,-1
 448 704 l 1,17,-1
 448 640 l 1,18,-1
 384 640 l 1,19,-1
 384 576 l 1,20,-1
 320 576 l 1,21,-1
 320 512 l 1,22,-1
 192 512 l 1,23,-1
 192 576 l 1,24,-1
 128 576 l 1,25,-1
 128 640 l 1,10,-1
EndSplineSet
EndChar

StartChar: Scaron
Encoding: 352 352 199
Width: 512
GlyphClass: 2
Flags: W
LayerCount: 2
Fore
SplineSet
384 512 m 1,0,-1
 448 512 l 1,1,-1
 448 384 l 1,2,-1
 320 384 l 1,3,-1
 320 512 l 1,4,-1
 192 512 l 1,5,-1
 192 320 l 1,6,-1
 384 320 l 1,7,-1
 384 256 l 1,8,-1
 448 256 l 1,9,-1
 448 64 l 1,10,-1
 384 64 l 1,11,-1
 384 0 l 1,12,-1
 128 0 l 1,13,-1
 128 64 l 1,14,-1
 64 64 l 1,15,-1
 64 192 l 1,16,-1
 192 192 l 1,17,-1
 192 64 l 1,18,-1
 320 64 l 1,19,-1
 320 256 l 1,20,-1
 128 256 l 1,21,-1
 128 320 l 1,22,-1
 64 320 l 1,23,-1
 64 512 l 1,24,-1
 128 512 l 1,25,-1
 128 576 l 1,26,-1
 384 576 l 1,27,-1
 384 512 l 1,0,-1
128 768 m 1,28,-1
 64 768 l 1,29,-1
 64 832 l 1,30,-1
 192 832 l 1,31,-1
 192 768 l 1,32,-1
 320 768 l 1,33,-1
 320 832 l 1,34,-1
 448 832 l 1,35,-1
 448 768 l 1,36,-1
 384 768 l 1,37,-1
 384 704 l 1,38,-1
 320 704 l 1,39,-1
 320 640 l 1,40,-1
 192 640 l 1,41,-1
 192 704 l 1,42,-1
 128 704 l 1,43,-1
 128 768 l 1,28,-1
EndSplineSet
EndChar

StartChar: scaron
Encoding: 353 353 200
Width: 512
GlyphClass: 2
Flags: W
LayerCount: 2
Fore
SplineSet
384 384 m 1,0,-1
 448 384 l 1,1,-1
 448 320 l 1,2,-1
 320 320 l 1,3,-1
 320 384 l 1,4,-1
 192 384 l 1,5,-1
 192 256 l 1,6,-1
 384 256 l 1,7,-1
 384 192 l 1,8,-1
 448 192 l 1,9,-1
 448 64 l 1,10,-1
 384 64 l 1,11,-1
 384 0 l 1,12,-1
 128 0 l 1,13,-1
 128 64 l 1,14,-1
 64 64 l 1,15,-1
 64 128 l 1,16,-1
 192 128 l 1,17,-1
 192 64 l 1,18,-1
 320 64 l 1,19,-1
 320 192 l 1,20,-1
 128 192 l 1,21,-1
 128 256 l 1,22,-1
 64 256 l 1,23,-1
 64 384 l 1,24,-1
 128 384 l 1,25,-1
 128 448 l 1,26,-1
 384 448 l 1,27,-1
 384 384 l 1,0,-1
128 640 m 1,28,-1
 64 640 l 1,29,-1
 64 704 l 1,30,-1
 192 704 l 1,31,-1
 192 640 l 1,32,-1
 320 640 l 1,33,-1
 320 704 l 1,34,-1
 448 704 l 1,35,-1
 448 640 l 1,36,-1
 384 640 l 1,37,-1
 384 576 l 1,38,-1
 320 576 l 1,39,-1
 320 512 l 1,40,-1
 192 512 l 1,41,-1
 192 576 l 1,42,-1
 128 576 l 1,43,-1
 128 640 l 1,28,-1
EndSplineSet
EndChar

StartChar: Tcaron
Encoding: 356 356 201
Width: 512
GlyphClass: 2
Flags: W
LayerCount: 2
Fore
SplineSet
192 512 m 1,0,-1
 64 512 l 1,1,-1
 64 576 l 1,2,-1
 448 576 l 1,3,-1
 448 512 l 1,4,-1
 320 512 l 1,5,-1
 320 0 l 1,6,-1
 192 0 l 1,7,-1
 192 512 l 1,0,-1
128 768 m 1,8,-1
 64 768 l 1,9,-1
 64 832 l 1,10,-1
 192 832 l 1,11,-1
 192 768 l 1,12,-1
 320 768 l 1,13,-1
 320 832 l 1,14,-1
 448 832 l 1,15,-1
 448 768 l 1,16,-1
 384 768 l 1,17,-1
 384 704 l 1,18,-1
 320 704 l 1,19,-1
 320 640 l 1,20,-1
 192 640 l 1,21,-1
 192 704 l 1,22,-1
 128 704 l 1,23,-1
 128 768 l 1,8,-1
EndSplineSet
EndChar

StartChar: tcaron
Encoding: 357 357 202
Width: 512
GlyphClass: 2
Flags: W
LayerCount: 2
Fore
SplineSet
64 384 m 1,0,-1
 64 448 l 1,1,-1
 128 448 l 1,2,-1
 128 576 l 1,3,-1
 256 576 l 1,4,-1
 256 448 l 1,5,-1
 384 448 l 1,6,-1
 384 384 l 1,7,-1
 256 384 l 1,8,-1
 256 64 l 1,9,-1
 384 64 l 1,10,-1
 384 0 l 1,11,-1
 192 0 l 1,12,-1
 192 64 l 1,13,-1
 128 64 l 1,14,-1
 128 384 l 1,15,-1
 64 384 l 1,0,-1
448 384 m 1,16,-1
 448 576 l 1,17,-1
 512 576 l 1,18,-1
 512 384 l 1,19,-1
 448 384 l 1,16,-1
EndSplineSet
EndChar

StartChar: Uring
Encoding: 366 366 203
Width: 512
GlyphClass: 2
Flags: W
LayerCount: 2
Fore
SplineSet
128 64 m 1,0,-1
 64 64 l 1,1,-1
 64 576 l 1,2,-1
 192 576 l 1,3,-1
 192 64 l 1,4,-1
 320 64 l 1,5,-1
 320 576 l 1,6,-1
 448 576 l 1,7,-1
 448 64 l 1,8,-1
 384 64 l 1,9,-1
 384 0 l 1,10,-1
 128 0 l 1,11,-1
 128 64 l 1,0,-1
192 704 m 1,12,-1
 320 704 l 1,13,-1
 320 768 l 1,14,-1
 192 768 l 1,15,-1
 192 704 l 1,12,-1
384 704 m 1,16,-1
 384 640 l 1,17,-1
 128 640 l 1,18,-1
 128 704 l 1,19,-1
 64 704 l 1,20,-1
 64 768 l 1,21,-1
 128 768 l 1,22,-1
 128 832 l 1,23,-1
 384 832 l 1,24,-1
 384 768 l 1,25,-1
 448 768 l 1,26,-1
 448 704 l 1,27,-1
 384 704 l 1,16,-1
EndSplineSet
EndChar

StartChar: uring
Encoding: 367 367 204
Width: 512
GlyphClass: 2
Flags: W
LayerCount: 2
Fore
SplineSet
320 64 m 1,0,-1
 320 448 l 1,1,-1
 448 448 l 1,2,-1
 448 0 l 1,3,-1
 128 0 l 1,4,-1
 128 64 l 1,5,-1
 64 64 l 1,6,-1
 64 448 l 1,7,-1
 192 448 l 1,8,-1
 192 64 l 1,9,-1
 320 64 l 1,0,-1
192 576 m 1,10,-1
 320 576 l 1,11,-1
 320 640 l 1,12,-1
 192 640 l 1,13,-1
 192 576 l 1,10,-1
384 576 m 1,14,-1
 384 512 l 1,15,-1
 128 512 l 1,16,-1
 128 576 l 1,17,-1
 64 576 l 1,18,-1
 64 640 l 1,19,-1
 128 640 l 1,20,-1
 128 704 l 1,21,-1
 384 704 l 1,22,-1
 384 640 l 1,23,-1
 448 640 l 1,24,-1
 448 576 l 1,25,-1
 384 576 l 1,14,-1
EndSplineSet
EndChar

StartChar: Ydieresis
Encoding: 376 376 205
Width: 512
GlyphClass: 2
Flags: W
LayerCount: 2
Fore
SplineSet
128 320 m 1,0,-1
 64 320 l 1,1,-1
 64 576 l 1,2,-1
 192 576 l 1,3,-1
 192 320 l 1,4,-1
 320 320 l 1,5,-1
 320 576 l 1,6,-1
 448 576 l 1,7,-1
 448 320 l 1,8,-1
 384 320 l 1,9,-1
 384 256 l 1,10,-1
 320 256 l 1,11,-1
 320 0 l 1,12,-1
 192 0 l 1,13,-1
 192 256 l 1,14,-1
 128 256 l 1,15,-1
 128 320 l 1,0,-1
320 640 m 1,16,-1
 320 768 l 1,17,-1
 448 768 l 1,18,-1
 448 640 l 1,19,-1
 320 640 l 1,16,-1
192 768 m 1,20,-1
 192 640 l 1,21,-1
 64 640 l 1,22,-1
 64 768 l 1,23,-1
 192 768 l 1,20,-1
EndSplineSet
EndChar

StartChar: Zcaron
Encoding: 381 381 206
Width: 512
GlyphClass: 2
Flags: W
LayerCount: 2
Fore
SplineSet
320 512 m 1,0,-1
 64 512 l 1,1,-1
 64 576 l 1,2,-1
 448 576 l 1,3,-1
 448 384 l 1,4,-1
 384 384 l 1,5,-1
 384 320 l 1,6,-1
 320 320 l 1,7,-1
 320 256 l 1,8,-1
 256 256 l 1,9,-1
 256 192 l 1,10,-1
 192 192 l 1,11,-1
 192 64 l 1,12,-1
 448 64 l 1,13,-1
 448 0 l 1,14,-1
 64 0 l 1,15,-1
 64 192 l 1,16,-1
 128 192 l 1,17,-1
 128 256 l 1,18,-1
 192 256 l 1,19,-1
 192 320 l 1,20,-1
 256 320 l 1,21,-1
 256 384 l 1,22,-1
 320 384 l 1,23,-1
 320 512 l 1,0,-1
128 768 m 1,24,-1
 64 768 l 1,25,-1
 64 832 l 1,26,-1
 192 832 l 1,27,-1
 192 768 l 1,28,-1
 320 768 l 1,29,-1
 320 832 l 1,30,-1
 448 832 l 1,31,-1
 448 768 l 1,32,-1
 384 768 l 1,33,-1
 384 704 l 1,34,-1
 320 704 l 1,35,-1
 320 640 l 1,36,-1
 192 640 l 1,37,-1
 192 704 l 1,38,-1
 128 704 l 1,39,-1
 128 768 l 1,24,-1
EndSplineSet
EndChar

StartChar: zcaron
Encoding: 382 382 207
Width: 512
GlyphClass: 2
Flags: W
LayerCount: 2
Fore
SplineSet
320 384 m 1,0,-1
 64 384 l 1,1,-1
 64 448 l 1,2,-1
 448 448 l 1,3,-1
 448 320 l 1,4,-1
 384 320 l 1,5,-1
 384 256 l 1,6,-1
 320 256 l 1,7,-1
 320 192 l 1,8,-1
 256 192 l 1,9,-1
 256 128 l 1,10,-1
 192 128 l 1,11,-1
 192 64 l 1,12,-1
 448 64 l 1,13,-1
 448 0 l 1,14,-1
 64 0 l 1,15,-1
 64 128 l 1,16,-1
 128 128 l 1,17,-1
 128 192 l 1,18,-1
 192 192 l 1,19,-1
 192 256 l 1,20,-1
 256 256 l 1,21,-1
 256 320 l 1,22,-1
 320 320 l 1,23,-1
 320 384 l 1,0,-1
128 640 m 1,24,-1
 64 640 l 1,25,-1
 64 704 l 1,26,-1
 192 704 l 1,27,-1
 192 640 l 1,28,-1
 320 640 l 1,29,-1
 320 704 l 1,30,-1
 448 704 l 1,31,-1
 448 640 l 1,32,-1
 384 640 l 1,33,-1
 384 576 l 1,34,-1
 320 576 l 1,35,-1
 320 512 l 1,36,-1
 192 512 l 1,37,-1
 192 576 l 1,38,-1
 128 576 l 1,39,-1
 128 640 l 1,24,-1
EndSplineSet
EndChar

StartChar: florin
Encoding: 402 402 208
Width: 512
GlyphClass: 2
Flags: W
LayerCount: 2
Fore
SplineSet
192 384 m 1,0,-1
 192 512 l 1,1,-1
 256 512 l 1,2,-1
 256 576 l 1,3,-1
 448 576 l 1,4,-1
 448 512 l 1,5,-1
 320 512 l 1,6,-1
 320 384 l 1,7,-1
 448 384 l 1,8,-1
 448 320 l 1,9,-1
 320 320 l 1,10,-1
 320 -64 l 1,11,-1
 256 -64 l 1,12,-1
 256 -128 l 1,13,-1
 64 -128 l 1,14,-1
 64 -64 l 1,15,-1
 192 -64 l 1,16,-1
 192 320 l 1,17,-1
 64 320 l 1,18,-1
 64 384 l 1,19,-1
 192 384 l 1,0,-1
EndSplineSet
EndChar

StartChar: circumflex
Encoding: 710 710 209
Width: 512
GlyphClass: 2
Flags: W
LayerCount: 2
Fore
SplineSet
128 512 m 1,0,-1
 192 512 l 1,1,-1
 192 576 l 1,2,-1
 320 576 l 1,3,-1
 320 512 l 1,4,-1
 384 512 l 1,5,-1
 384 448 l 1,6,-1
 448 448 l 1,7,-1
 448 384 l 1,8,-1
 320 384 l 1,9,-1
 320 448 l 1,10,-1
 192 448 l 1,11,-1
 192 384 l 1,12,-1
 64 384 l 1,13,-1
 64 448 l 1,14,-1
 128 448 l 1,15,-1
 128 512 l 1,0,-1
EndSplineSet
EndChar

StartChar: caron
Encoding: 711 711 210
Width: 512
GlyphClass: 2
Flags: W
LayerCount: 2
Fore
SplineSet
128 512 m 1,0,-1
 64 512 l 1,1,-1
 64 576 l 1,2,-1
 192 576 l 1,3,-1
 192 512 l 1,4,-1
 320 512 l 1,5,-1
 320 576 l 1,6,-1
 448 576 l 1,7,-1
 448 512 l 1,8,-1
 384 512 l 1,9,-1
 384 448 l 1,10,-1
 320 448 l 1,11,-1
 320 384 l 1,12,-1
 192 384 l 1,13,-1
 192 448 l 1,14,-1
 128 448 l 1,15,-1
 128 512 l 1,0,-1
EndSplineSet
EndChar

StartChar: breve
Encoding: 728 728 211
Width: 512
GlyphClass: 2
Flags: W
LayerCount: 2
Fore
SplineSet
128 512 m 1,0,-1
 64 512 l 1,1,-1
 64 576 l 1,2,-1
 192 576 l 1,3,-1
 192 512 l 1,4,-1
 320 512 l 1,5,-1
 320 576 l 1,6,-1
 448 576 l 1,7,-1
 448 512 l 1,8,-1
 384 512 l 1,9,-1
 384 448 l 1,10,-1
 128 448 l 1,11,-1
 128 512 l 1,0,-1
EndSplineSet
EndChar

StartChar: dotaccent
Encoding: 729 729 212
Width: 512
GlyphClass: 2
Flags: W
LayerCount: 2
Fore
SplineSet
192 448 m 1,0,-1
 64 448 l 1,1,-1
 64 576 l 1,2,-1
 192 576 l 1,3,-1
 192 448 l 1,0,-1
EndSplineSet
EndChar

StartChar: ring
Encoding: 730 730 213
Width: 512
GlyphClass: 2
Flags: W
LayerCount: 2
Fore
SplineSet
192 448 m 1,0,-1
 320 448 l 1,1,-1
 320 512 l 1,2,-1
 192 512 l 1,3,-1
 192 448 l 1,0,-1
384 448 m 1,4,-1
 384 384 l 1,5,-1
 128 384 l 1,6,-1
 128 448 l 1,7,-1
 64 448 l 1,8,-1
 64 512 l 1,9,-1
 128 512 l 1,10,-1
 128 576 l 1,11,-1
 384 576 l 1,12,-1
 384 512 l 1,13,-1
 448 512 l 1,14,-1
 448 448 l 1,15,-1
 384 448 l 1,4,-1
EndSplineSet
EndChar

StartChar: ogonek
Encoding: 731 731 214
Width: 512
GlyphClass: 2
Flags: W
LayerCount: 2
Fore
SplineSet
128 0 m 1,0,-1
 256 0 l 1,1,-1
 256 -64 l 1,2,-1
 192 -64 l 1,3,-1
 192 -128 l 1,4,-1
 384 -128 l 1,5,-1
 384 -192 l 1,6,-1
 128 -192 l 1,7,-1
 128 -128 l 1,8,-1
 64 -128 l 1,9,-1
 64 -64 l 1,10,-1
 128 -64 l 1,11,-1
 128 0 l 1,0,-1
EndSplineSet
EndChar

StartChar: tilde
Encoding: 732 732 215
Width: 512
GlyphClass: 2
Flags: W
LayerCount: 2
Fore
SplineSet
192 512 m 1,0,-1
 192 448 l 1,1,-1
 64 448 l 1,2,-1
 64 512 l 1,3,-1
 128 512 l 1,4,-1
 128 576 l 1,5,-1
 320 576 l 1,6,-1
 320 512 l 1,7,-1
 384 512 l 1,8,-1
 384 576 l 1,9,-1
 512 576 l 1,10,-1
 512 512 l 1,11,-1
 448 512 l 1,12,-1
 448 448 l 1,13,-1
 256 448 l 1,14,-1
 256 512 l 1,15,-1
 192 512 l 1,0,-1
EndSplineSet
EndChar

StartChar: hungarumlaut
Encoding: 733 733 216
Width: 512
GlyphClass: 2
Flags: W
LayerCount: 2
Fore
SplineSet
128 512 m 1,0,-1
 128 576 l 1,1,-1
 256 576 l 1,2,-1
 256 512 l 1,3,-1
 192 512 l 1,4,-1
 192 448 l 1,5,-1
 64 448 l 1,6,-1
 64 512 l 1,7,-1
 128 512 l 1,0,-1
384 512 m 1,8,-1
 384 576 l 1,9,-1
 512 576 l 1,10,-1
 512 512 l 1,11,-1
 448 512 l 1,12,-1
 448 448 l 1,13,-1
 320 448 l 1,14,-1
 320 512 l 1,15,-1
 384 512 l 1,8,-1
EndSplineSet
EndChar

StartChar: endash
Encoding: 8211 8211 233
Width: 512
GlyphClass: 2
Flags: W
LayerCount: 2
Fore
SplineSet
64 256 m 1,0,-1
 64 320 l 1,1,-1
 320 320 l 1,2,-1
 320 256 l 1,3,-1
 64 256 l 1,0,-1
EndSplineSet
EndChar

StartChar: emdash
Encoding: 8212 8212 234
Width: 512
GlyphClass: 2
Flags: W
LayerCount: 2
Fore
SplineSet
0 256 m 1,0,-1
 0 320 l 1,1,-1
 512 320 l 1,2,-1
 512 256 l 1,3,-1
 0 256 l 1,0,-1
EndSplineSet
EndChar

StartChar: quoteleft
Encoding: 8216 8216 235
Width: 512
GlyphClass: 2
Flags: W
LayerCount: 2
Fore
SplineSet
192 448 m 1,0,-1
 192 320 l 1,1,-1
 64 320 l 1,2,-1
 64 512 l 1,3,-1
 128 512 l 1,4,-1
 128 448 l 1,5,-1
 192 448 l 1,0,-1
128 512 m 1,6,-1
 128 576 l 1,7,-1
 192 576 l 1,8,-1
 192 512 l 1,9,-1
 128 512 l 1,6,-1
EndSplineSet
EndChar

StartChar: quoteright
Encoding: 8217 8217 236
Width: 512
GlyphClass: 2
Flags: W
LayerCount: 2
Fore
SplineSet
64 448 m 1,0,-1
 64 576 l 1,1,-1
 192 576 l 1,2,-1
 192 384 l 1,3,-1
 128 384 l 1,4,-1
 128 448 l 1,5,-1
 64 448 l 1,0,-1
128 384 m 1,6,-1
 128 320 l 1,7,-1
 64 320 l 1,8,-1
 64 384 l 1,9,-1
 128 384 l 1,6,-1
EndSplineSet
EndChar

StartChar: quotesinglbase
Encoding: 8218 8218 237
Width: 512
GlyphClass: 2
Flags: W
LayerCount: 2
Fore
SplineSet
64 0 m 1,0,-1
 64 128 l 1,1,-1
 192 128 l 1,2,-1
 192 -64 l 1,3,-1
 128 -64 l 1,4,-1
 128 0 l 1,5,-1
 64 0 l 1,0,-1
128 -64 m 1,6,-1
 128 -128 l 1,7,-1
 64 -128 l 1,8,-1
 64 -64 l 1,9,-1
 128 -64 l 1,6,-1
EndSplineSet
EndChar

StartChar: quotereversed
Encoding: 8219 8219 238
Width: 512
GlyphClass: 2
Flags: W
LayerCount: 2
Fore
SplineSet
192 448 m 1,0,-1
 128 448 l 1,1,-1
 128 384 l 1,2,-1
 64 384 l 1,3,-1
 64 576 l 1,4,-1
 192 576 l 1,5,-1
 192 448 l 1,0,-1
128 384 m 1,6,-1
 192 384 l 1,7,-1
 192 320 l 1,8,-1
 128 320 l 1,9,-1
 128 384 l 1,6,-1
EndSplineSet
EndChar

StartChar: quotedblleft
Encoding: 8220 8220 239
Width: 512
GlyphClass: 2
Flags: W
LayerCount: 2
Fore
SplineSet
384 448 m 1,0,-1
 384 320 l 1,1,-1
 256 320 l 1,2,-1
 256 512 l 1,3,-1
 320 512 l 1,4,-1
 320 448 l 1,5,-1
 384 448 l 1,0,-1
128 448 m 1,6,-1
 192 448 l 1,7,-1
 192 320 l 1,8,-1
 64 320 l 1,9,-1
 64 512 l 1,10,-1
 128 512 l 1,11,-1
 128 448 l 1,6,-1
320 512 m 1,12,-1
 320 576 l 1,13,-1
 384 576 l 1,14,-1
 384 512 l 1,15,-1
 320 512 l 1,12,-1
128 512 m 1,16,-1
 128 576 l 1,17,-1
 192 576 l 1,18,-1
 192 512 l 1,19,-1
 128 512 l 1,16,-1
EndSplineSet
EndChar

StartChar: quotedblright
Encoding: 8221 8221 240
Width: 512
GlyphClass: 2
Flags: W
LayerCount: 2
Fore
SplineSet
64 448 m 1,0,-1
 64 576 l 1,1,-1
 192 576 l 1,2,-1
 192 384 l 1,3,-1
 128 384 l 1,4,-1
 128 448 l 1,5,-1
 64 448 l 1,0,-1
320 448 m 1,6,-1
 256 448 l 1,7,-1
 256 576 l 1,8,-1
 384 576 l 1,9,-1
 384 384 l 1,10,-1
 320 384 l 1,11,-1
 320 448 l 1,6,-1
128 384 m 1,12,-1
 128 320 l 1,13,-1
 64 320 l 1,14,-1
 64 384 l 1,15,-1
 128 384 l 1,12,-1
320 384 m 1,16,-1
 320 320 l 1,17,-1
 256 320 l 1,18,-1
 256 384 l 1,19,-1
 320 384 l 1,16,-1
EndSplineSet
EndChar

StartChar: quotedblbase
Encoding: 8222 8222 241
Width: 512
GlyphClass: 2
Flags: W
LayerCount: 2
Fore
SplineSet
64 0 m 1,0,-1
 64 128 l 1,1,-1
 192 128 l 1,2,-1
 192 -64 l 1,3,-1
 128 -64 l 1,4,-1
 128 0 l 1,5,-1
 64 0 l 1,0,-1
320 0 m 1,6,-1
 256 0 l 1,7,-1
 256 128 l 1,8,-1
 384 128 l 1,9,-1
 384 -64 l 1,10,-1
 320 -64 l 1,11,-1
 320 0 l 1,6,-1
128 -64 m 1,12,-1
 128 -128 l 1,13,-1
 64 -128 l 1,14,-1
 64 -64 l 1,15,-1
 128 -64 l 1,12,-1
320 -64 m 1,16,-1
 320 -128 l 1,17,-1
 256 -128 l 1,18,-1
 256 -64 l 1,19,-1
 320 -64 l 1,16,-1
EndSplineSet
EndChar

StartChar: uni201F
Encoding: 8223 8223 242
Width: 512
GlyphClass: 2
Flags: W
LayerCount: 2
Fore
SplineSet
384 448 m 1,0,-1
 320 448 l 1,1,-1
 320 384 l 1,2,-1
 256 384 l 1,3,-1
 256 576 l 1,4,-1
 384 576 l 1,5,-1
 384 448 l 1,0,-1
128 448 m 1,6,-1
 128 384 l 1,7,-1
 64 384 l 1,8,-1
 64 576 l 1,9,-1
 192 576 l 1,10,-1
 192 448 l 1,11,-1
 128 448 l 1,6,-1
320 384 m 1,12,-1
 384 384 l 1,13,-1
 384 320 l 1,14,-1
 320 320 l 1,15,-1
 320 384 l 1,12,-1
128 384 m 1,16,-1
 192 384 l 1,17,-1
 192 320 l 1,18,-1
 128 320 l 1,19,-1
 128 384 l 1,16,-1
EndSplineSet
EndChar

StartChar: dagger
Encoding: 8224 8224 243
Width: 512
GlyphClass: 2
Flags: W
LayerCount: 2
Fore
SplineSet
320 0 m 1,0,-1
 192 0 l 1,1,-1
 192 384 l 1,2,-1
 64 384 l 1,3,-1
 64 448 l 1,4,-1
 192 448 l 1,5,-1
 192 576 l 1,6,-1
 320 576 l 1,7,-1
 320 448 l 1,8,-1
 448 448 l 1,9,-1
 448 384 l 1,10,-1
 320 384 l 1,11,-1
 320 0 l 1,0,-1
EndSplineSet
EndChar

StartChar: daggerdbl
Encoding: 8225 8225 244
Width: 512
GlyphClass: 2
Flags: W
LayerCount: 2
Fore
SplineSet
320 192 m 1,0,-1
 448 192 l 1,1,-1
 448 128 l 1,2,-1
 320 128 l 1,3,-1
 320 0 l 1,4,-1
 192 0 l 1,5,-1
 192 128 l 1,6,-1
 64 128 l 1,7,-1
 64 192 l 1,8,-1
 192 192 l 1,9,-1
 192 384 l 1,10,-1
 64 384 l 1,11,-1
 64 448 l 1,12,-1
 192 448 l 1,13,-1
 192 576 l 1,14,-1
 320 576 l 1,15,-1
 320 448 l 1,16,-1
 448 448 l 1,17,-1
 448 384 l 1,18,-1
 320 384 l 1,19,-1
 320 192 l 1,0,-1
EndSplineSet
EndChar

StartChar: bullet
Encoding: 8226 8226 245
Width: 512
GlyphClass: 2
Flags: W
LayerCount: 2
Fore
SplineSet
320 320 m 1,0,-1
 384 320 l 1,1,-1
 384 192 l 1,2,-1
 320 192 l 1,3,-1
 320 128 l 1,4,-1
 192 128 l 1,5,-1
 192 192 l 1,6,-1
 128 192 l 1,7,-1
 128 320 l 1,8,-1
 192 320 l 1,9,-1
 192 384 l 1,10,-1
 320 384 l 1,11,-1
 320 320 l 1,0,-1
EndSplineSet
EndChar

StartChar: ellipsis
Encoding: 8230 8230 246
Width: 512
GlyphClass: 2
Flags: W
LayerCount: 2
Fore
SplineSet
128 0 m 1,0,-1
 0 0 l 1,1,-1
 0 128 l 1,2,-1
 128 128 l 1,3,-1
 128 0 l 1,0,-1
320 0 m 1,4,-1
 192 0 l 1,5,-1
 192 128 l 1,6,-1
 320 128 l 1,7,-1
 320 0 l 1,4,-1
512 0 m 1,8,-1
 384 0 l 1,9,-1
 384 128 l 1,10,-1
 512 128 l 1,11,-1
 512 0 l 1,8,-1
EndSplineSet
EndChar

StartChar: perthousand
Encoding: 8240 8240 247
Width: 1024
GlyphClass: 2
Flags: W
LayerCount: 2
Fore
SplineSet
896 192 m 1,0,-1
 768 192 l 1,1,-1
 768 256 l 1,2,-1
 896 256 l 1,3,-1
 896 192 l 1,0,-1
896 0 m 1,4,-1
 768 0 l 1,5,-1
 768 64 l 1,6,-1
 896 64 l 1,7,-1
 896 0 l 1,4,-1
768 64 m 1,8,-1
 704 64 l 1,9,-1
 704 192 l 1,10,-1
 768 192 l 1,11,-1
 768 64 l 1,8,-1
960 64 m 1,12,-1
 896 64 l 1,13,-1
 896 192 l 1,14,-1
 960 192 l 1,15,-1
 960 64 l 1,12,-1
576 192 m 1,16,-1
 448 192 l 1,17,-1
 448 256 l 1,18,-1
 576 256 l 1,19,-1
 576 192 l 1,16,-1
576 0 m 1,20,-1
 448 0 l 1,21,-1
 448 64 l 1,22,-1
 576 64 l 1,23,-1
 576 0 l 1,20,-1
256 320 m 1,24,-1
 128 320 l 1,25,-1
 128 384 l 1,26,-1
 256 384 l 1,27,-1
 256 320 l 1,24,-1
256 512 m 1,28,-1
 128 512 l 1,29,-1
 128 576 l 1,30,-1
 256 576 l 1,31,-1
 256 512 l 1,28,-1
320 384 m 1,32,-1
 256 384 l 1,33,-1
 256 512 l 1,34,-1
 320 512 l 1,35,-1
 320 384 l 1,32,-1
448 64 m 1,36,-1
 384 64 l 1,37,-1
 384 192 l 1,38,-1
 448 192 l 1,39,-1
 448 64 l 1,36,-1
128 384 m 1,40,-1
 64 384 l 1,41,-1
 64 512 l 1,42,-1
 128 512 l 1,43,-1
 128 384 l 1,40,-1
640 64 m 1,44,-1
 576 64 l 1,45,-1
 576 192 l 1,46,-1
 640 192 l 1,47,-1
 640 64 l 1,44,-1
512 448 m 1,48,-1
 512 384 l 1,49,-1
 448 384 l 1,50,-1
 448 320 l 1,51,-1
 384 320 l 1,52,-1
 384 256 l 1,53,-1
 320 256 l 1,54,-1
 320 192 l 1,55,-1
 256 192 l 1,56,-1
 256 128 l 1,57,-1
 192 128 l 1,58,-1
 192 192 l 1,59,-1
 256 192 l 1,60,-1
 256 256 l 1,61,-1
 320 256 l 1,62,-1
 320 320 l 1,63,-1
 384 320 l 1,64,-1
 384 384 l 1,65,-1
 448 384 l 1,66,-1
 448 448 l 1,67,-1
 512 448 l 1,48,-1
512 448 m 1,68,-1
 512 512 l 1,69,-1
 576 512 l 1,70,-1
 576 448 l 1,71,-1
 512 448 l 1,68,-1
192 128 m 1,72,-1
 192 64 l 1,73,-1
 128 64 l 1,74,-1
 128 128 l 1,75,-1
 192 128 l 1,72,-1
EndSplineSet
EndChar

StartChar: guilsinglleft
Encoding: 8249 8249 248
Width: 512
GlyphClass: 2
Flags: W
LayerCount: 2
Fore
SplineSet
256 128 m 1,0,-1
 256 192 l 1,1,-1
 192 192 l 1,2,-1
 192 256 l 1,3,-1
 128 256 l 1,4,-1
 128 320 l 1,5,-1
 192 320 l 1,6,-1
 192 384 l 1,7,-1
 256 384 l 1,8,-1
 256 448 l 1,9,-1
 384 448 l 1,10,-1
 384 384 l 1,11,-1
 320 384 l 1,12,-1
 320 320 l 1,13,-1
 256 320 l 1,14,-1
 256 256 l 1,15,-1
 320 256 l 1,16,-1
 320 192 l 1,17,-1
 384 192 l 1,18,-1
 384 128 l 1,19,-1
 256 128 l 1,0,-1
EndSplineSet
EndChar

StartChar: guilsinglright
Encoding: 8250 8250 249
Width: 512
GlyphClass: 2
Flags: W
LayerCount: 2
Fore
SplineSet
128 128 m 1,0,-1
 128 192 l 1,1,-1
 192 192 l 1,2,-1
 192 256 l 1,3,-1
 256 256 l 1,4,-1
 256 320 l 1,5,-1
 192 320 l 1,6,-1
 192 384 l 1,7,-1
 128 384 l 1,8,-1
 128 448 l 1,9,-1
 256 448 l 1,10,-1
 256 384 l 1,11,-1
 320 384 l 1,12,-1
 320 320 l 1,13,-1
 384 320 l 1,14,-1
 384 256 l 1,15,-1
 320 256 l 1,16,-1
 320 192 l 1,17,-1
 256 192 l 1,18,-1
 256 128 l 1,19,-1
 128 128 l 1,0,-1
EndSplineSet
EndChar

StartChar: Euro
Encoding: 8364 8364 250
Width: 512
GlyphClass: 2
Flags: W
LayerCount: 2
Fore
SplineSet
320 192 m 1,0,-1
 192 192 l 1,1,-1
 192 64 l 1,2,-1
 320 64 l 1,3,-1
 320 192 l 1,0,-1
320 384 m 1,4,-1
 320 512 l 1,5,-1
 192 512 l 1,6,-1
 192 384 l 1,7,-1
 320 384 l 1,4,-1
320 192 m 1,8,-1
 448 192 l 1,9,-1
 448 64 l 1,10,-1
 384 64 l 1,11,-1
 384 0 l 1,12,-1
 128 0 l 1,13,-1
 128 64 l 1,14,-1
 64 64 l 1,15,-1
 64 192 l 1,16,-1
 0 192 l 1,17,-1
 0 256 l 1,18,-1
 64 256 l 1,19,-1
 64 320 l 1,20,-1
 0 320 l 1,21,-1
 0 384 l 1,22,-1
 64 384 l 1,23,-1
 64 512 l 1,24,-1
 128 512 l 1,25,-1
 128 576 l 1,26,-1
 384 576 l 1,27,-1
 384 512 l 1,28,-1
 448 512 l 1,29,-1
 448 384 l 1,30,-1
 320 384 l 1,31,-1
 320 320 l 1,32,-1
 192 320 l 1,33,-1
 192 256 l 1,34,-1
 320 256 l 1,35,-1
 320 192 l 1,8,-1
EndSplineSet
EndChar

StartChar: trademark
Encoding: 8482 8482 251
Width: 640
GlyphClass: 2
Flags: W
LayerCount: 2
Fore
SplineSet
64 512 m 1,0,-1
 0 512 l 1,1,-1
 0 576 l 1,2,-1
 192 576 l 1,3,-1
 192 512 l 1,4,-1
 128 512 l 1,5,-1
 128 320 l 1,6,-1
 64 320 l 1,7,-1
 64 512 l 1,0,-1
320 512 m 1,8,-1
 384 512 l 1,9,-1
 384 448 l 1,10,-1
 320 448 l 1,11,-1
 320 320 l 1,12,-1
 256 320 l 1,13,-1
 256 576 l 1,14,-1
 320 576 l 1,15,-1
 320 512 l 1,8,-1
512 512 m 1,16,-1
 512 576 l 1,17,-1
 576 576 l 1,18,-1
 576 320 l 1,19,-1
 512 320 l 1,20,-1
 512 448 l 1,21,-1
 448 448 l 1,22,-1
 448 512 l 1,23,-1
 512 512 l 1,16,-1
384 384 m 1,24,-1
 384 448 l 1,25,-1
 448 448 l 1,26,-1
 448 384 l 1,27,-1
 384 384 l 1,24,-1
EndSplineSet
EndChar

StartChar: uni2661
Encoding: 9825 9825 252
Width: 640
GlyphClass: 2
Flags: W
LayerCount: 2
Fore
SplineSet
320 64 m 1,0,-1
 384 64 l 1,1,-1
 384 0 l 1,2,-1
 320 0 l 1,3,-1
 320 64 l 1,0,-1
320 64 m 1,4,-1
 256 64 l 1,5,-1
 256 128 l 1,6,-1
 320 128 l 1,7,-1
 320 64 l 1,4,-1
256 128 m 1,8,-1
 192 128 l 1,9,-1
 192 192 l 1,10,-1
 256 192 l 1,11,-1
 256 128 l 1,8,-1
192 192 m 1,12,-1
 128 192 l 1,13,-1
 128 256 l 1,14,-1
 192 256 l 1,15,-1
 192 192 l 1,12,-1
128 256 m 1,16,-1
 64 256 l 1,17,-1
 64 512 l 1,18,-1
 128 512 l 1,19,-1
 128 256 l 1,16,-1
384 64 m 1,20,-1
 384 128 l 1,21,-1
 448 128 l 1,22,-1
 448 64 l 1,23,-1
 384 64 l 1,20,-1
448 128 m 1,24,-1
 448 192 l 1,25,-1
 512 192 l 1,26,-1
 512 128 l 1,27,-1
 448 128 l 1,24,-1
512 192 m 1,28,-1
 512 256 l 1,29,-1
 576 256 l 1,30,-1
 576 192 l 1,31,-1
 512 192 l 1,28,-1
576 256 m 1,32,-1
 576 512 l 1,33,-1
 448 512 l 1,34,-1
 448 448 l 1,35,-1
 384 448 l 1,36,-1
 384 384 l 1,37,-1
 320 384 l 1,38,-1
 320 448 l 1,39,-1
 256 448 l 1,40,-1
 256 512 l 1,41,-1
 128 512 l 1,42,-1
 128 576 l 1,43,-1
 256 576 l 1,44,-1
 256 512 l 1,45,-1
 320 512 l 1,46,-1
 320 448 l 1,47,-1
 384 448 l 1,48,-1
 384 512 l 1,49,-1
 448 512 l 1,50,-1
 448 576 l 1,51,-1
 576 576 l 1,52,-1
 576 512 l 1,53,-1
 640 512 l 1,54,-1
 640 256 l 1,55,-1
 576 256 l 1,32,-1
EndSplineSet
EndChar

StartChar: heart
Encoding: 9829 9829 253
Width: 640
GlyphClass: 2
Flags: W
LayerCount: 2
Fore
SplineSet
384 448 m 1,0,-1
 384 512 l 1,1,-1
 448 512 l 1,2,-1
 448 576 l 1,3,-1
 576 576 l 1,4,-1
 576 512 l 1,5,-1
 640 512 l 1,6,-1
 640 256 l 1,7,-1
 576 256 l 1,8,-1
 576 192 l 1,9,-1
 512 192 l 1,10,-1
 512 128 l 1,11,-1
 448 128 l 1,12,-1
 448 64 l 1,13,-1
 384 64 l 1,14,-1
 384 0 l 1,15,-1
 320 0 l 1,16,-1
 320 64 l 1,17,-1
 256 64 l 1,18,-1
 256 128 l 1,19,-1
 192 128 l 1,20,-1
 192 192 l 1,21,-1
 128 192 l 1,22,-1
 128 256 l 1,23,-1
 64 256 l 1,24,-1
 64 512 l 1,25,-1
 128 512 l 1,26,-1
 128 576 l 1,27,-1
 256 576 l 1,28,-1
 256 512 l 1,29,-1
 320 512 l 1,30,-1
 320 448 l 1,31,-1
 384 448 l 1,0,-1
EndSplineSet
EndChar

StartChar: uni2764
Encoding: 10084 10084 254
Width: 640
GlyphClass: 2
Flags: W
LayerCount: 2
Fore
SplineSet
384 448 m 1,0,-1
 384 512 l 1,1,-1
 448 512 l 1,2,-1
 448 576 l 1,3,-1
 576 576 l 1,4,-1
 576 512 l 1,5,-1
 640 512 l 1,6,-1
 640 256 l 1,7,-1
 576 256 l 1,8,-1
 576 192 l 1,9,-1
 512 192 l 1,10,-1
 512 128 l 1,11,-1
 448 128 l 1,12,-1
 448 64 l 1,13,-1
 384 64 l 1,14,-1
 384 0 l 1,15,-1
 320 0 l 1,16,-1
 320 64 l 1,17,-1
 256 64 l 1,18,-1
 256 128 l 1,19,-1
 192 128 l 1,20,-1
 192 192 l 1,21,-1
 128 192 l 1,22,-1
 128 256 l 1,23,-1
 64 256 l 1,24,-1
 64 512 l 1,25,-1
 128 512 l 1,26,-1
 128 576 l 1,27,-1
 256 576 l 1,28,-1
 256 512 l 1,29,-1
 320 512 l 1,30,-1
 320 448 l 1,31,-1
 384 448 l 1,0,-1
EndSplineSet
EndChar

StartChar: uni2765
Encoding: 10085 10085 255
Width: 640
GlyphClass: 2
Flags: W
LayerCount: 2
Fore
SplineSet
192 320 m 1,0,-1
 128 320 l 1,1,-1
 128 384 l 1,2,-1
 64 384 l 1,3,-1
 64 512 l 1,4,-1
 128 512 l 1,5,-1
 128 576 l 1,6,-1
 384 576 l 1,7,-1
 384 512 l 1,8,-1
 448 512 l 1,9,-1
 448 448 l 1,10,-1
 512 448 l 1,11,-1
 512 384 l 1,12,-1
 576 384 l 1,13,-1
 576 320 l 1,14,-1
 640 320 l 1,15,-1
 640 256 l 1,16,-1
 576 256 l 1,17,-1
 576 192 l 1,18,-1
 512 192 l 1,19,-1
 512 128 l 1,20,-1
 448 128 l 1,21,-1
 448 64 l 1,22,-1
 384 64 l 1,23,-1
 384 0 l 1,24,-1
 128 0 l 1,25,-1
 128 64 l 1,26,-1
 64 64 l 1,27,-1
 64 192 l 1,28,-1
 128 192 l 1,29,-1
 128 256 l 1,30,-1
 192 256 l 1,31,-1
 192 320 l 1,0,-1
EndSplineSet
EndChar

StartChar: u1F494
Encoding: 128148 128148 256
Width: 896
GlyphClass: 2
Flags: W
LayerCount: 2
Fore
SplineSet
320 0 m 1,0,-1
 256 0 l 1,1,-1
 256 64 l 1,2,-1
 192 64 l 1,3,-1
 192 128 l 1,4,-1
 128 128 l 1,5,-1
 128 192 l 1,6,-1
 64 192 l 1,7,-1
 64 448 l 1,8,-1
 128 448 l 1,9,-1
 128 512 l 1,10,-1
 256 512 l 1,11,-1
 256 448 l 1,12,-1
 320 448 l 1,13,-1
 320 384 l 1,14,-1
 384 384 l 1,15,-1
 384 320 l 1,16,-1
 320 320 l 1,17,-1
 320 256 l 1,18,-1
 384 256 l 1,19,-1
 384 192 l 1,20,-1
 320 192 l 1,21,-1
 320 0 l 1,0,-1
704 192 m 1,22,-1
 704 128 l 1,23,-1
 640 128 l 1,24,-1
 640 64 l 1,25,-1
 576 64 l 1,26,-1
 576 0 l 1,27,-1
 512 0 l 1,28,-1
 512 192 l 1,29,-1
 576 192 l 1,30,-1
 576 256 l 1,31,-1
 512 256 l 1,32,-1
 512 320 l 1,33,-1
 576 320 l 1,34,-1
 576 384 l 1,35,-1
 512 384 l 1,36,-1
 512 448 l 1,37,-1
 576 448 l 1,38,-1
 576 512 l 1,39,-1
 704 512 l 1,40,-1
 704 448 l 1,41,-1
 768 448 l 1,42,-1
 768 192 l 1,43,-1
 704 192 l 1,22,-1
EndSplineSet
EndChar
